<svg width="160" height="160" viewBox="0 0 160 160" fill="none" xmlns="http://www.w3.org/2000/svg">
<g clip-path="url(#clip0_22_2473)">
<path d="M147.5 44.0442C147.5 30.9898 143.41 18.6845 135.671 8.45854L145.639 0.915914C155.033 13.3309 159.999 28.2446 159.999 44.0442H147.5ZM146.493 78.3568C164.473 96.3366 164.473 125.591 146.493 143.571C135.912 154.152 121.844 159.985 106.88 159.996C102.554 159.999 88.7388 160 72.4208 160C41.1328 160 0.621352 159.996 0.00292969 159.996L0.00417966 147.496C0.945093 147.496 94.2555 147.506 106.871 147.496C118.5 147.488 129.432 142.955 137.654 134.732C150.76 121.626 150.76 100.301 137.654 87.195C127.687 77.2268 111.466 77.2268 101.498 87.1953C93.8527 94.8407 93.6271 107.533 101.006 114.911C106.569 120.475 115.285 120.475 120.849 114.911C122.115 113.645 122.813 112.043 122.813 110.401C122.813 108.758 122.115 107.156 120.849 105.89C120.072 105.113 119.038 104.685 117.939 104.685C116.839 104.685 115.806 105.113 115.029 105.89L106.19 97.051C112.669 90.573 123.209 90.573 129.687 97.051C137.173 104.537 137.173 116.264 129.687 123.75C124.652 128.786 117.989 131.559 110.927 131.559C103.864 131.559 97.202 128.786 92.1665 123.751C89.8775 121.462 87.9954 118.866 86.5495 116.049C85.6498 117.131 84.6961 118.182 83.6821 119.196C73.1011 129.777 59.0327 135.611 44.069 135.622H0.00355467V123.122L44.0649 123.122C55.6887 123.113 66.6212 118.58 74.8435 110.358C87.9495 97.2516 87.9495 75.9265 74.8435 62.8209C70.0008 57.9782 63.5804 55.3111 56.7656 55.3111C49.9501 55.3111 43.5303 57.9782 38.6873 62.8212C31.0415 70.4667 30.8162 83.1595 38.1945 90.538C43.7581 96.1016 52.4741 96.1013 58.0377 90.5377C60.6511 87.924 60.6511 84.1294 58.0374 81.5157C56.4334 79.9111 53.8225 79.9114 52.2179 81.5157L43.379 72.6772C49.8576 66.1993 60.3976 66.1993 66.8762 72.6772C74.3617 80.163 74.3617 91.8905 66.8762 99.3762C61.8407 104.412 55.1784 107.185 48.1161 107.185C41.0535 107.185 34.3911 104.412 29.3559 99.3765C23.3548 93.3754 20.139 85.2735 20.3002 76.5637C20.4587 68.0008 23.8495 59.9813 29.8487 53.9827C37.0523 46.7788 46.6118 42.8114 56.7656 42.8114C57.484 42.8114 58.1986 42.8336 58.9105 42.873C55.6278 32.0164 58.2671 19.7364 66.8322 11.1713C74.0364 3.9674 83.7424 0 94.163 0C104.584 0 114.29 3.9674 121.494 11.1713C130.203 19.8811 135 31.5554 135 44.0445C135 52.7318 132.677 61.0235 128.333 68.1989C135.147 69.801 141.407 73.271 146.493 78.3568ZM112.969 67.7564C119.118 61.4425 122.5 53.0412 122.5 44.0442C122.5 34.8941 119.004 26.3584 112.655 20.0095C107.812 15.1668 101.245 12.4997 94.163 12.4997C87.0813 12.4997 80.5137 15.1668 75.6707 20.0098C68.1606 27.5202 68.1606 39.7409 75.671 47.2513C81.2452 52.8252 89.9781 52.8255 95.553 47.2513C98.1676 44.6364 98.1676 40.3818 95.5527 37.7669C93.9487 36.1625 91.3378 36.1628 89.7332 37.7669L80.8943 28.9283C87.3729 22.4504 97.913 22.4504 104.392 28.9283C111.88 36.4169 111.88 48.6016 104.392 56.0898C100.638 59.8432 95.9764 62.3372 90.9166 63.3653C93.1546 67.2064 94.7924 71.3032 95.828 75.5196C100.834 71.5044 106.7 68.8517 112.969 67.7564ZM45.1168 31.6598C45.4805 23.3344 48.162 15.0837 53.2019 7.99698L43.0153 0.752793C35.4783 11.3506 32.0449 23.9781 32.6537 36.4216C36.5761 34.2844 40.7606 32.6851 45.1168 31.6598Z" fill="#F6193D"/>
</g>
<defs>
<clipPath id="clip0_22_2473">
<rect width="160" height="160" fill="white"/>
</clipPath>
</defs>
</svg>
