<svg width="160" height="160" viewBox="0 0 160 160" fill="none" xmlns="http://www.w3.org/2000/svg">
<g clip-path="url(#clip0_22_2479)">
<path d="M104.656 120.466L80.0002 97.387L55.344 120.466L30.7135 97.4112L8.62198 118.339L0 109.237L30.6618 80.1913L55.3437 103.295L79.9998 80.2154L104.656 103.295L129.338 80.1913L160 109.237L151.378 118.339L129.287 97.4112L104.656 120.466ZM129.287 56.7537L151.378 77.6809L160 68.5797L129.338 39.5335L104.656 62.6371L80.0002 39.5574L55.344 62.6371L30.6621 39.5335L0 68.5797L8.62167 77.6809L30.7132 56.7534L55.3437 79.809L79.9998 56.7296L104.656 79.809L129.287 56.7537Z" fill="#F6193D"/>
</g>
<defs>
<clipPath id="clip0_22_2479">
<rect width="160" height="160" fill="white"/>
</clipPath>
</defs>
</svg>
