<svg width="160" height="160" viewBox="0 0 160 160" fill="none" xmlns="http://www.w3.org/2000/svg">
<g clip-path="url(#clip0_22_2487)">
<path d="M116.875 0C101.268 0 87.5716 8.33313 80 20.7838C72.4284 8.33313 58.7316 0 43.125 0C19.3456 0 0 19.3459 0 43.125C0 66.9041 19.3456 86.25 43.125 86.25V73.75C26.2384 73.75 12.5 60.0116 12.5 43.125C12.5 26.2384 26.2384 12.5 43.125 12.5C60.0116 12.5 73.75 26.2384 73.75 43.125V160H86.25V43.125C86.25 26.2384 99.9884 12.5 116.875 12.5C133.762 12.5 147.5 26.2384 147.5 43.125C147.5 60.0116 133.762 73.75 116.875 73.75V86.25C140.654 86.25 160 66.9041 160 43.125C160 19.3459 140.654 0 116.875 0Z" fill="#F6193D"/>
</g>
<defs>
<clipPath id="clip0_22_2487">
<rect width="160" height="160" fill="white"/>
</clipPath>
</defs>
</svg>
