<svg width="160" height="160" viewBox="0 0 160 160" fill="none" xmlns="http://www.w3.org/2000/svg">
<g clip-path="url(#clip0_22_2485)">
<path d="M26.3257 23.7564C36.7578 18.6409 53.4794 12.5429 73.8989 12.5429C87.8572 12.5429 101.316 15.8839 114.021 22.4822C96.0982 25.8675 82.4984 41.6406 82.4984 60.5333C82.4984 70.8748 86.5337 80.5699 93.8605 87.8318C101.16 95.0666 110.878 99.0506 121.224 99.0506C131.57 99.0506 141.288 95.0666 148.587 87.8318C155.914 80.5699 159.949 70.8751 159.949 60.5333C159.949 50.0712 155.777 40.5663 149.011 33.5908L149.014 33.5889C148.719 33.2404 141.654 24.9547 128.921 16.7146C112.076 5.81313 93.0498 0.0508575 73.8986 0.0508575C50.8814 0.0508575 32.1021 6.95615 20.4011 12.7493C7.65044 19.0622 0.306367 25.4266 0 25.6942L8.21196 35.1079C8.27754 35.0511 14.9036 29.3572 26.3257 23.7564V23.7564ZM121.224 86.5583C106.759 86.5583 94.9904 74.8835 94.9904 60.5333C94.9904 46.0681 106.759 34.3 121.224 34.3C135.689 34.3 147.457 46.0681 147.457 60.5333C147.457 74.8835 135.689 86.5583 121.224 86.5583ZM151.788 124.892C151.722 124.949 145.096 130.643 133.674 136.244C123.242 141.359 106.521 147.457 86.1011 147.457C72.2278 147.457 58.8022 144.11 46.0744 137.499C63.9502 134.076 77.5013 118.326 77.5013 99.4669C77.5013 89.1254 73.466 79.4303 66.1391 72.1684C58.84 64.9336 49.1222 60.9496 38.7759 60.9496C28.4297 60.9496 18.7118 64.9336 11.4127 72.1684C4.08584 79.4303 0.0505928 89.1251 0.0505928 99.4669C0.0505928 109.724 4.06085 119.061 10.5936 125.997L10.5864 126.003C10.8849 126.356 18.0423 134.734 30.865 143.072C47.8448 154.113 66.9452 159.949 86.1011 159.949C109.118 159.949 127.898 153.044 139.599 147.251C152.35 140.938 159.694 134.574 160 134.306L151.788 124.892ZM38.7762 73.4416C53.2414 73.4416 65.0095 85.1164 65.0095 99.4666C65.0095 113.932 53.2414 125.7 38.7762 125.7C24.3111 125.7 12.5429 113.932 12.5429 99.4666C12.5429 85.1164 24.3111 73.4416 38.7762 73.4416Z" fill="#F6193D"/>
</g>
<defs>
<clipPath id="clip0_22_2485">
<rect width="160" height="160" fill="white"/>
</clipPath>
</defs>
</svg>
