<svg width="160" height="160" viewBox="0 0 160 160" fill="none" xmlns="http://www.w3.org/2000/svg">
<g clip-path="url(#clip0_22_2483)">
<path d="M131.875 81.875C121.146 81.875 111.269 84.0225 102.5 88.1869V36.875C102.5 16.5422 85.9578 0 65.625 0C55.1891 0 45.7528 4.35875 39.0381 11.35C35.6362 4.62438 28.6628 0 20.625 0C9.25219 0 0 9.25219 0 20.625V33.125H12.5V20.625C12.5 16.145 16.145 12.5 20.625 12.5C25.105 12.5 28.75 16.145 28.75 20.625V110.938H41.25V36.875C41.25 23.4347 52.1847 12.5 65.625 12.5C79.0653 12.5 90 23.4347 90 36.875V95.9375C90 95.9925 90.0019 96.0469 90.0019 96.1019C86.7313 98.7772 83.6913 101.816 80.9056 105.214C69.4397 119.201 63.125 138.657 63.125 160H75.625C75.625 141.746 81.0591 123.402 92.6328 110.767C94.6881 116.329 97.9091 121.425 102.174 125.742C110.063 133.727 120.611 138.125 131.875 138.125C147.383 138.125 160 125.508 160 110C160 94.4919 147.383 81.875 131.875 81.875V81.875ZM131.875 125.625C117.748 125.625 105.92 115.494 103.126 102.044C110.932 97.2128 120.479 94.375 131.875 94.375C140.491 94.375 147.5 101.384 147.5 110C147.5 118.616 140.491 125.625 131.875 125.625Z" fill="#F6193D"/>
</g>
<defs>
<clipPath id="clip0_22_2483">
<rect width="160" height="160" fill="white"/>
</clipPath>
</defs>
</svg>
