<svg width="160" height="160" viewBox="0 0 160 160" fill="none" xmlns="http://www.w3.org/2000/svg">
<g clip-path="url(#clip0_22_2457)">
<path d="M136.569 23.4313C121.458 8.32156 101.369 0 80 0C58.6313 0 38.5416 8.32156 23.4313 23.4313C8.32156 38.5416 0 58.6313 0 80C0 101.369 8.32156 121.458 23.4313 136.569C38.5416 151.678 58.6313 160 80 160C101.369 160 121.458 151.678 136.569 136.569C151.678 121.458 160 101.369 160 80C160 58.6313 151.678 38.5416 136.569 23.4313V23.4313ZM147.208 73.75H86.25V12.7919C118.491 15.7666 144.233 41.5084 147.208 73.75ZM73.75 12.7919V73.75H12.7922C15.7666 41.5084 41.5088 15.7666 73.75 12.7919ZM12.7922 86.25H73.75V147.208C41.5088 144.233 15.7666 118.492 12.7922 86.25ZM86.25 147.208V86.25H147.208C144.233 118.492 118.491 144.233 86.25 147.208Z" fill="#F6193D"/>
</g>
<defs>
<clipPath id="clip0_22_2457">
<rect width="160" height="160" fill="white"/>
</clipPath>
</defs>
</svg>
