<svg width="160" height="160" viewBox="0 0 160 160" fill="none" xmlns="http://www.w3.org/2000/svg">
<g clip-path="url(#clip0_22_2475)">
<path d="M112.368 37.3662C98.5958 19.0149 85.0354 5.14465 84.465 4.56326L79.9877 -1.52588e-05L75.5232 4.57545C74.9531 5.15997 61.3975 19.1025 47.6285 37.4885C28.6421 62.8415 19.0151 83.5418 19.0151 99.0146C19.0151 132.642 46.3732 160 80.0005 160C113.628 160 140.986 132.642 140.986 99.0146C140.986 83.4099 131.357 62.6683 112.368 37.3662V37.3662ZM31.5246 99.0146C31.5246 86.5063 40.5277 67.8614 57.5601 45.096C63.2858 37.4431 69.05 30.5102 73.7681 25.085V80.1642L61.9204 68.3577L53.0903 77.2187L73.7681 97.8249V116.276L53.713 96.2721L44.8786 105.129L73.7681 133.945V147.09C49.9713 144.023 31.5246 123.633 31.5246 99.0146V99.0146ZM86.2779 147.084V133.945L115.168 105.129L106.333 96.2724L86.2779 116.277V97.8252L106.956 77.2191L98.1257 68.358L86.2779 80.1645V25.0822C90.9882 30.4783 96.7358 37.3706 102.445 44.9856C119.474 67.6985 128.475 86.3809 128.475 99.0146C128.476 123.617 110.053 143.996 86.2779 147.084V147.084Z" fill="#F6193D"/>
</g>
<defs>
<clipPath id="clip0_22_2475">
<rect width="160" height="160" fill="white"/>
</clipPath>
</defs>
</svg>
