<svg width="160" height="160" viewBox="0 0 160 160" fill="none" xmlns="http://www.w3.org/2000/svg">
<path d="M115.782 47.7738L105.817 55.3188C106.85 56.7219 109.991 60.9922 109.991 63.7172C109.991 69.7663 105.157 74.6875 99.2144 74.6875C93.2719 74.6875 88.4375 69.7663 88.4375 63.7172C88.4375 61.6581 89.0569 59.1588 90.2284 56.49C98.5572 37.5175 93.9663 15.7647 78.8041 2.36125C78.4719 2.0675 76.0516 0 76.0516 0H67.6919L67.2097 5.72563C66.1922 17.8088 56.2297 30.7222 45.6822 44.3937C32.595 61.3572 19.0625 78.8984 19.0625 99.0625C19.0625 132.663 46.3991 160 80 160C113.601 160 140.938 132.663 140.938 99.0625C140.938 81.5259 128.511 64.1097 115.782 47.7738ZM80 147.188C73.4522 147.188 68.125 141.865 68.125 135.322C68.125 131.323 72.1284 125.859 75.6603 121.039C77.4431 118.606 79.1847 116.229 80.6162 113.845C86.7431 120.189 91.875 128.752 91.875 135.322C91.875 141.865 86.5478 147.188 80 147.188ZM103.622 141.336C104.112 139.412 104.375 137.397 104.375 135.322C104.375 121.682 92.7078 106.084 81.7303 98.3322L80.1094 97.1875H71.5625V103.438C71.5625 105.483 68.1034 110.204 65.5778 113.651C60.9125 120.017 55.625 127.233 55.625 135.322C55.625 137.397 55.8875 139.411 56.3781 141.336C41.5838 133.036 31.5625 117.199 31.5625 99.0625C31.5625 83.1597 43.7719 67.3341 55.5791 52.0291C64.1781 40.8831 72.4275 30.1897 76.725 19.0538C82.6072 28.4947 83.56 40.5831 78.7825 51.465C76.8944 55.7656 75.9372 59.8878 75.9372 63.7169C75.9375 76.6587 86.3794 87.1875 99.2144 87.1875C108.088 87.1875 115.818 82.155 119.744 74.7713C124.887 83.1388 128.438 91.3944 128.438 99.0625C128.438 117.199 118.416 133.036 103.622 141.336Z" fill="#F6193D"/>
</svg>
