<svg width="160" height="160" viewBox="0 0 160 160" fill="none" xmlns="http://www.w3.org/2000/svg">
<path d="M130.781 116.562V0H118.281V116.562H45.2775C58.8234 107.922 68.805 97.0438 75.6138 87.8603C89.3297 69.3603 95.4691 50.7428 95.4691 40.4981C95.4688 18.1675 77.3012 0 54.9703 0C32.5 0 14.2188 18.0841 14.2188 40.3125H26.7188C26.7188 24.9766 39.3925 12.5 54.9703 12.5C70.4087 12.5 82.9688 25.06 82.9688 40.4984C82.9688 48.6747 76.9931 65.0112 65.5722 80.4159C55.9722 93.3644 38.4128 110.077 13.5938 116.562V129.062H118.281V160H130.781V129.062H146.406V116.562H130.781Z" fill="#F6193D"/>
</svg>
