<svg width="160" height="160" viewBox="0 0 160 160" fill="none" xmlns="http://www.w3.org/2000/svg">
<g clip-path="url(#clip0_22_2499)">
<path d="M147.5 134.375C147.5 137.913 146.113 141.231 143.595 143.717C141.077 146.202 137.746 147.531 134.199 147.499C127.059 147.406 121.25 141.389 121.25 134.086V28.125C121.25 12.6169 108.633 0 93.125 0C77.6169 0 65 12.6169 65 28.125V92.7731C58.0913 86.3997 48.8681 82.5 38.75 82.5C17.3831 82.5 0 99.8831 0 121.25C0 142.617 17.3831 160 38.75 160C60.1169 160 77.5 142.617 77.5 121.25V28.125C77.5 19.5094 84.5094 12.5 93.125 12.5C101.741 12.5 108.75 19.5094 108.75 28.125V134.086C108.75 148.193 120.093 159.817 134.037 159.998C134.151 159.999 134.265 160 134.38 160C141.163 160 147.542 157.384 152.376 152.612C157.293 147.759 160 141.283 160 134.375H147.5ZM38.75 147.5C24.2756 147.5 12.5 135.724 12.5 121.25C12.5 106.776 24.2756 95 38.75 95C53.2244 95 65 106.776 65 121.25C65 135.724 53.2244 147.5 38.75 147.5Z" fill="#F6193D"/>
</g>
<defs>
<clipPath id="clip0_22_2499">
<rect width="160" height="160" fill="white"/>
</clipPath>
</defs>
</svg>
