<svg width="160" height="160" viewBox="0 0 160 160" fill="none" xmlns="http://www.w3.org/2000/svg">
<g clip-path="url(#clip0_22_2493)">
<path d="M0 147.5H160V160H0V147.5ZM160 117.188V129.688H0V117.188H42.4094C26.1044 105.431 15.4688 86.2791 15.4688 64.6875C15.4688 29.0188 44.4872 0 80.1562 0C115.825 0 144.844 29.0188 144.844 64.6875C144.844 86.2791 134.208 105.431 117.903 117.188H160ZM80.1562 116.875C108.932 116.875 132.344 93.4637 132.344 64.6875C132.344 35.9113 108.932 12.5 80.1562 12.5C51.38 12.5 27.9688 35.9113 27.9688 64.6875C27.9688 93.4637 51.38 116.875 80.1562 116.875Z" fill="#F6193D"/>
</g>
<defs>
<clipPath id="clip0_22_2493">
<rect width="160" height="160" fill="white"/>
</clipPath>
</defs>
</svg>
