<svg width="160" height="160" viewBox="0 0 160 160" fill="none" xmlns="http://www.w3.org/2000/svg">
<g clip-path="url(#clip0_22_2461)">
<path d="M110.616 0V12.5023H138.599L102.012 49.0893C77.4823 29.0356 41.1516 30.4437 18.2799 53.3157C-6.09331 77.6886 -6.09331 117.347 18.2799 141.72C30.4665 153.907 46.4745 160 62.4821 160C78.4897 160 94.498 153.907 106.684 141.72C129.576 118.829 130.966 82.4554 110.858 57.9247L147.498 21.2848V49.6966H160V0L110.616 0ZM97.8442 132.88C88.0937 142.63 75.2901 147.505 62.4824 147.504C49.6776 147.502 36.8686 142.628 27.1206 132.88C7.62202 113.381 7.62202 81.6547 27.1206 62.1561C36.8699 52.4068 49.6763 47.5322 62.4824 47.5322C75.2885 47.5322 88.0949 52.4068 97.8442 62.1561C117.342 81.6547 117.342 113.381 97.8442 132.88Z" fill="#F6193D"/>
</g>
<defs>
<clipPath id="clip0_22_2461">
<rect width="160" height="160" fill="white"/>
</clipPath>
</defs>
</svg>
