<svg width="160" height="160" viewBox="0 0 160 160" fill="none" xmlns="http://www.w3.org/2000/svg">
<path d="M134.563 8.58458L125.419 0.0662347C125.234 0.262752 106.669 19.7198 80.2704 19.7198C53.8106 19.7198 34.645 0.197142 34.4548 0L29.9505 4.33088L25.4365 8.65176C26.0758 9.31973 36.8789 20.4165 54.1012 27.1409C39.8266 35.9523 30.292 51.7368 30.292 69.7083C30.292 95.1562 49.4066 116.223 74.0319 119.307V131.881H58.4105V144.379H74.0319V160H86.529V144.379H102.15V131.881H86.529V119.307C111.154 116.222 130.269 95.1562 130.269 69.7083C130.269 51.7125 120.709 35.9092 106.402 27.105C123.441 20.3591 133.941 9.2538 134.563 8.58458V8.58458ZM117.772 69.7083C117.772 90.381 100.953 107.2 80.2804 107.2C59.6077 107.2 42.7891 90.381 42.7891 69.7083C42.7891 49.0356 59.6077 32.2169 80.2804 32.2169C100.953 32.2169 117.772 49.0353 117.772 69.7083Z" fill="#F6193D"/>
</svg>
