<svg width="160" height="160" viewBox="0 0 160 160" fill="none" xmlns="http://www.w3.org/2000/svg">
<g clip-path="url(#clip0_22_2453)">
<path d="M68.0936 160C55.3711 160 42.7052 156.935 31.4649 151.137L11.9067 141.048L33.8483 139.351C64.6167 136.971 88.7186 110.901 88.7186 80C88.7186 49.0987 64.6167 23.0288 33.8483 20.6491L11.9074 18.9522L31.4649 8.86312C42.7049 3.065 55.3708 0 68.0936 0C89.4624 0 109.552 8.32156 124.662 23.4313C139.772 38.5413 148.094 58.6309 148.094 80C148.094 101.369 139.772 121.458 124.662 136.568C109.553 151.678 89.4624 160 68.0936 160V160ZM56.7677 146.565C60.473 147.187 64.252 147.5 68.0936 147.5C105.313 147.5 135.594 117.22 135.594 80C135.594 42.7803 105.313 12.5 68.0936 12.5C64.252 12.5 60.473 12.8125 56.7677 13.435C66.2252 17.3538 74.8164 23.2913 81.9489 30.9619C94.3752 44.3259 101.219 61.7412 101.219 80C101.219 98.2588 94.3752 115.674 81.9489 129.038C74.8164 136.709 66.2249 142.646 56.7677 146.565Z" fill="#F6193D"/>
</g>
<defs>
<clipPath id="clip0_22_2453">
<rect width="160" height="160" fill="white"/>
</clipPath>
</defs>
</svg>
