<svg width="160" height="160" viewBox="0 0 160 160" fill="none" xmlns="http://www.w3.org/2000/svg">
<g clip-path="url(#clip0_22_2463)">
<path d="M160 23.2816L136.872 0.153717L113.745 23.2813L122.568 32.1041L130.846 23.8262V53.1657C130.846 79.09 111.343 100.543 86.2387 103.628V23.9323L94.4105 32.1041L103.233 23.2813L80.1057 0.153717L56.9782 23.2816L65.801 32.1044L73.7613 24.1441V103.628C48.6573 100.543 29.1545 79.0903 29.1545 53.1657V23.8265L37.4323 32.1044L46.2551 23.2816L23.1275 0.153717L0 23.2816L8.82279 32.1044L16.677 24.2501V53.1657C16.677 85.9769 41.7623 113.037 73.7613 116.181V131.773H58.1645V144.251H73.7613V159.848H86.2387V144.251H101.836V131.773H86.2387V116.181C118.238 113.037 143.323 85.9772 143.323 53.1657V24.2501L151.177 32.1044L160 23.2816Z" fill="#F6193D"/>
</g>
<defs>
<clipPath id="clip0_22_2463">
<rect width="160" height="160" fill="white"/>
</clipPath>
</defs>
</svg>
