<svg width="160" height="160" viewBox="0 0 160 160" fill="none" xmlns="http://www.w3.org/2000/svg">
<g clip-path="url(#clip0_22_2445)">
<path d="M150.491 60.0155C150.379 60.1454 141.501 70.262 126.684 74.6117V0.0567627H114.192V76.5541C101.483 76.5541 88.1225 71.5639 76.1523 66.7273C65.5211 62.4319 55.4432 58.3604 45.4912 57.8767V0.0567627H33V58.9406C15.386 62.5178 0.730107 73.5381 0 74.094L7.5662 84.0329C7.71016 83.9229 19.2848 75.2129 32.9997 71.7331V113.102C32.9997 138.93 54.013 159.943 79.8415 159.943C105.67 159.943 126.683 138.93 126.683 113.102V87.54C147.264 82.8481 159.396 68.8268 160 68.1154L150.491 60.0155ZM114.192 113.102C114.192 132.043 98.7828 147.452 79.8418 147.452C60.9009 147.452 45.4912 132.043 45.4912 113.102V70.3922C53.2135 70.9334 62.1032 74.523 71.4728 78.3088C83.9408 83.3465 99.0551 89.0562 114.192 89.0562V113.102Z" fill="#F6193D"/>
</g>
<defs>
<clipPath id="clip0_22_2445">
<rect width="160" height="160" fill="white"/>
</clipPath>
</defs>
</svg>
