<svg width="160" height="160" viewBox="0 0 160 160" fill="none" xmlns="http://www.w3.org/2000/svg">
<g clip-path="url(#clip0_22_2497)">
<path d="M141.311 131.039C135.057 120.873 127.72 105.27 126.36 86.5423H148.361V74.0203H126.382C127.797 55.3483 135.107 39.6147 141.344 29.3047C148.989 16.6675 156.769 9.11416 156.847 9.03934L152.511 4.52296L148.182 0C147.824 0.341852 139.333 8.53659 130.846 22.4683C120.808 38.9445 114.987 56.6378 113.831 74.0203H46.1688C45.0124 56.6381 39.1922 38.9445 29.1542 22.4683C20.6665 8.53659 12.1756 0.341852 11.8181 0L3.15283 9.03934C3.23047 9.11416 11.0107 16.6675 18.6557 29.3047C24.893 39.6147 32.203 55.3483 33.6177 74.0203H11.8716V86.5423H33.6405C32.2797 105.27 24.9427 120.873 18.6889 131.039C11.0608 143.439 3.29715 150.761 3.22671 150.827L11.7508 160C12.1092 159.667 20.6242 151.687 29.1292 137.965C39.2366 121.657 45.0744 104.001 46.1873 86.5423H113.813C114.925 104.001 120.763 121.657 130.871 137.965C139.375 151.687 147.891 159.667 148.249 160L156.781 150.834C156.703 150.761 148.939 143.439 141.311 131.039V131.039Z" fill="#F6193D"/>
</g>
<defs>
<clipPath id="clip0_22_2497">
<rect width="160" height="160" fill="white"/>
</clipPath>
</defs>
</svg>
