<svg width="160" height="160" viewBox="0 0 160 160" fill="none" xmlns="http://www.w3.org/2000/svg">
<g clip-path="url(#clip0_22_2459)">
<path d="M86.5625 111.565V131.562H102.188V144.062H86.5625V160H74.0625V144.062H58.4375V131.562H74.0625V111.619C57.9387 110.248 42.9619 103.314 31.3866 91.7387C18.4012 78.7534 11.25 61.4887 11.25 43.125H23.75C23.75 74.1412 48.9838 99.375 80 99.375C111.016 99.375 136.25 74.1412 136.25 43.125H148.75C148.75 61.4887 141.599 78.7534 128.613 91.7384C117.188 103.164 102.448 110.071 86.5625 111.565ZM36.25 43.75C36.25 19.6263 55.8763 0 80 0C104.124 0 123.75 19.6263 123.75 43.75C123.75 67.8737 104.124 87.5 80 87.5C55.8763 87.5 36.25 67.8737 36.25 43.75V43.75ZM48.75 43.75C48.75 60.9812 62.7684 75 80 75C97.2316 75 111.25 60.9812 111.25 43.75C111.25 26.5188 97.2316 12.5 80 12.5C62.7684 12.5 48.75 26.5188 48.75 43.75Z" fill="#F6193D"/>
</g>
<defs>
<clipPath id="clip0_22_2459">
<rect width="160" height="160" fill="white"/>
</clipPath>
</defs>
</svg>
