<svg width="160" height="160" viewBox="0 0 160 160" fill="none" xmlns="http://www.w3.org/2000/svg">
<g clip-path="url(#clip0_22_2465)">
<path d="M122.188 138.125C122.188 143.294 117.982 147.5 112.812 147.5C107.643 147.5 103.438 143.294 103.438 138.125C103.438 131.357 108.646 124.018 114.16 116.249C120.852 106.818 128.438 96.1303 128.438 83.4375C128.438 59.3138 108.811 39.6875 84.6875 39.6875C72.4569 39.6875 61.3844 44.7344 53.4375 52.8525V28.125H69.0625V15.625H53.4375V0H40.9375V15.625H25.3125V28.125H40.9375V135H53.4375V83.4375C53.4375 66.2063 67.4563 52.1875 84.6875 52.1875C101.919 52.1875 115.938 66.2063 115.938 83.4375C115.938 92.1456 110.123 100.339 103.966 109.014C97.5606 118.04 90.9375 127.372 90.9375 138.125C90.9375 150.187 100.751 160 112.812 160C124.874 160 134.688 150.187 134.688 138.125H122.188Z" fill="#F6193D"/>
</g>
<defs>
<clipPath id="clip0_22_2465">
<rect width="160" height="160" fill="white"/>
</clipPath>
</defs>
</svg>
