<svg width="160" height="160" viewBox="0 0 160 160" fill="none" xmlns="http://www.w3.org/2000/svg">
<g clip-path="url(#clip0_22_2491)">
<path d="M147.487 116.259V140.747C144.073 139.082 141.022 136.644 138.291 133.407C132.971 127.098 128.78 117.616 125.838 105.226C119.992 80.6142 119.992 48.9577 119.992 25.843C119.992 18.8769 117.262 12.3447 112.304 7.4507C107.346 2.55699 100.775 -0.0821711 93.808 0.00218706C86.0821 0.10248 79.1475 3.64271 74.4357 9.14568C69.675 3.55554 62.5933 0 54.6927 0C47.6154 0 41.1942 2.85756 36.5132 7.47695C32.7277 2.91254 27.0164 0 20.637 0C9.26646 0 0.0161133 9.25034 0.0161133 20.6209V33.1184H12.5136V20.6209C12.5136 16.1418 16.1579 12.4975 20.637 12.4975C25.1161 12.4975 28.7604 16.1418 28.7604 20.6209V123.725H41.2579V25.9323H41.2804C41.2804 18.5244 47.297 12.4975 54.6927 12.4975C62.1006 12.4975 68.1275 18.5244 68.1275 25.9323V123.725H80.625V26.1351C80.625 18.7116 86.6117 12.5944 93.9702 12.4988C94.0296 12.4978 94.0889 12.4975 94.1486 12.4975C97.6832 12.4975 101.007 13.8597 103.524 16.3449C106.084 18.8725 107.495 22.2456 107.495 25.843C107.495 49.5751 107.495 82.0777 113.678 108.113C117.125 122.627 122.051 133.536 128.738 141.464C130.663 143.746 132.724 145.757 134.915 147.503H116.243V160H159.984V155.951V143.454V116.259H147.487V116.259Z" fill="#F6193D"/>
</g>
<defs>
<clipPath id="clip0_22_2491">
<rect width="160" height="160" fill="white"/>
</clipPath>
</defs>
</svg>
