<svg width="160" height="160" viewBox="0 0 160 160" fill="none" xmlns="http://www.w3.org/2000/svg">
<g clip-path="url(#clip0_22_2467)">
<path d="M80 160C58.6313 160 38.5416 151.678 23.4313 136.569C8.32156 121.458 0 101.369 0 80C0 58.6313 8.32156 38.5416 23.4313 23.4313C38.5416 8.32156 58.6313 0 80 0C101.369 0 121.458 8.32156 136.569 23.4313C151.678 38.5416 160 58.6313 160 80C160 101.369 151.678 121.458 136.569 136.569C121.458 151.678 101.369 160 80 160V160ZM80 12.5C42.7803 12.5 12.5 42.7803 12.5 80C12.5 117.22 42.7803 147.5 80 147.5C117.22 147.5 147.5 117.22 147.5 80C147.5 42.7803 117.22 12.5 80 12.5ZM73.75 80C73.75 83.4519 76.5481 86.25 80 86.25C83.4519 86.25 86.25 83.4519 86.25 80C86.25 76.5481 83.4519 73.75 80 73.75C76.5481 73.75 73.75 76.5481 73.75 80Z" fill="#F6193D"/>
</g>
<defs>
<clipPath id="clip0_22_2467">
<rect width="160" height="160" fill="white"/>
</clipPath>
</defs>
</svg>
