<svg width="160" height="160" viewBox="0 0 160 160" fill="none" xmlns="http://www.w3.org/2000/svg">
<g clip-path="url(#clip0_22_2489)">
<path d="M159.85 8.58204L150.701 0.0665541C150.629 0.144044 143.32 7.89306 130.944 15.5068C119.763 22.385 101.554 30.6414 80.2817 30.6414C58.7219 30.6414 40.7136 22.3172 29.4013 15.4737C16.7879 7.84307 9.24882 0.0774902 9.17415 0L0.151855 8.64921C0.493375 9.00604 8.67265 17.4809 22.5778 25.9526C31.2954 31.2638 40.3549 35.3914 49.5278 38.2714C29.1744 49.1784 15.2977 70.6582 15.2977 95.3207C15.2977 130.985 44.3125 160 79.977 160C115.642 160 144.656 130.985 144.656 95.3207C144.656 70.7723 130.909 49.375 110.709 38.4211C119.987 35.5308 129.116 31.3451 137.857 25.9276C151.553 17.4387 159.518 8.93949 159.85 8.58204V8.58204ZM132.158 95.3207C132.158 124.093 108.75 147.502 79.977 147.502C51.2044 147.502 27.7962 124.093 27.7962 95.3207C27.7962 66.6784 51.6875 43.1398 80.282 43.1398C109.028 43.1398 132.158 66.8071 132.158 95.3207Z" fill="#F6193D"/>
</g>
<defs>
<clipPath id="clip0_22_2489">
<rect width="160" height="160" fill="white"/>
</clipPath>
</defs>
</svg>
