<svg width="160" height="160" viewBox="0 0 160 160" fill="none" xmlns="http://www.w3.org/2000/svg">
<path d="M126.09 57.5009C126.09 30.5925 155.496 10.7191 155.794 10.5216L152.34 5.3125L148.894 0.0984375C147.543 0.990937 117.74 21.03 113.979 51.2509H86.7145V0H74.2145V51.2509H46.0123C42.252 21.03 12.4486 0.990937 11.0982 0.0984375L4.20605 10.5266C4.50293 10.7228 33.902 30.4666 33.902 57.5009C33.902 84.3522 4.5648 103.616 4.27668 103.802L11.0273 114.323C12.3804 113.454 42.2451 93.9503 46.012 63.7509H74.2145V117.165C65.1892 119.861 58.5895 128.235 58.5895 138.125C58.5895 150.187 68.4026 160 80.4645 160C92.5264 160 102.34 150.187 102.34 138.125C102.34 128.235 95.7398 119.861 86.7145 117.165V63.7509H113.98C117.746 93.9503 147.611 113.455 148.964 114.323L155.715 103.802C155.419 103.612 126.09 84.4809 126.09 57.5009V57.5009ZM89.8395 138.125C89.8395 143.294 85.6339 147.5 80.4645 147.5C75.2951 147.5 71.0895 143.294 71.0895 138.125C71.0895 132.956 75.2951 128.75 80.4645 128.75C85.6339 128.75 89.8395 132.956 89.8395 138.125Z" fill="#F6193D"/>
</svg>
