<svg width="160" height="160" viewBox="0 0 160 160" fill="none" xmlns="http://www.w3.org/2000/svg">
<path d="M139.375 59.375C139.375 26.6353 112.74 0 80 0C47.2603 0 20.625 26.6353 20.625 59.375C20.625 90.1109 44.1003 115.465 74.0625 118.454V131.562H58.4375V144.062H74.0625V160H86.5625V144.062H102.188V131.562H86.5625V118.386C116.225 115.109 139.375 89.8966 139.375 59.375ZM33.125 59.375C33.125 33.5281 54.1531 12.5 80 12.5C105.847 12.5 126.875 33.5281 126.875 59.375C126.875 85.2219 105.847 106.25 80 106.25C54.1531 106.25 33.125 85.2219 33.125 59.375Z" fill="#F6193D"/>
</svg>
