<svg width="160" height="160" viewBox="0 0 160 160" fill="none" xmlns="http://www.w3.org/2000/svg">
<g clip-path="url(#clip0_22_2477)">
<path d="M138.396 136.937C136.177 134.176 134.152 130.843 132.331 126.962C135.648 123.232 138.725 119.315 141.538 115.224C153.443 97.9063 160 78.3731 160 60.2231C160 53.2556 157.269 46.7222 152.31 41.8272C147.352 36.9325 140.782 34.2803 133.811 34.3775C128.747 34.4431 124.023 35.9747 120.033 38.5534C120.001 34.0375 120 29.7637 120 25.8481C120 18.8806 117.269 12.3472 112.31 7.45219C107.352 2.5575 100.79 -0.0821875 93.8106 0.0021875C86.0784 0.1025 79.1387 3.64781 74.4259 9.1575C69.6684 3.56063 62.5875 0 54.6875 0C47.6087 0 41.1863 2.85812 36.5044 7.47875C32.7181 2.91312 27.0056 0 20.625 0C9.25219 0 0 9.25219 0 20.625V33.125H12.5V20.625C12.5 16.145 16.145 12.5 20.625 12.5C25.105 12.5 28.75 16.145 28.75 20.625V123.75H41.25V25.9375H41.2725C41.2725 18.5281 47.2903 12.5 54.6875 12.5C62.0847 12.5 68.1025 18.5281 68.1025 25.9403L68.1475 123.73L80.6475 123.724L80.6025 26.14H80.625C80.625 18.715 86.6128 12.5966 93.9725 12.5009C97.5781 12.4494 100.968 13.8203 103.528 16.3478C106.089 18.8762 107.5 22.25 107.5 25.8481V60.3125C108.158 76.9006 110.178 94.7781 113.672 110.09C114.838 115.198 116.172 119.877 117.684 124.153C108.053 133.631 95.9984 142.079 81.3778 148.453L86.3731 159.912C100.113 153.922 112.488 145.939 123.057 136.332C124.766 139.443 126.629 142.251 128.654 144.769C136.78 154.876 147.326 160 160 160V147.5C151.177 147.5 144.111 144.045 138.396 136.937ZM133.973 46.8762C137.579 46.815 140.968 48.1956 143.528 50.7231C146.089 53.2512 147.5 56.625 147.5 60.2231C147.5 76.2253 141.024 95.7319 127.37 113.282C126.835 111.369 126.331 109.378 125.859 107.309C122.58 92.94 121.137 76.0975 120.501 60.1559C120.7 53.0134 126.786 46.9694 133.973 46.8762Z" fill="#F6193D"/>
</g>
<defs>
<clipPath id="clip0_22_2477">
<rect width="160" height="160" fill="white"/>
</clipPath>
</defs>
</svg>
