<svg width="160" height="160" viewBox="0 0 160 160" fill="none" xmlns="http://www.w3.org/2000/svg">
<path d="M80 160C46.3991 160 19.0625 132.663 19.0625 99.0625C19.0625 78.7188 35.1122 58.4734 50.6337 38.895C61.9984 24.5594 73.75 9.73594 73.75 0H86.25C86.25 9.88312 98.0125 24.6541 109.388 38.9384C124.899 58.4159 140.938 78.5566 140.938 99.0625C140.938 132.663 113.601 160 80 160ZM79.9734 19.5312C75.0725 28.1894 67.8669 37.2784 60.4291 46.6603C46.8984 63.7278 31.5625 83.0725 31.5625 99.0625C31.5625 125.771 53.2912 147.5 80 147.5C106.709 147.5 128.438 125.771 128.438 99.0625C128.438 82.9256 113.122 63.6934 99.6094 46.7253C92.1297 37.3325 84.8828 28.2319 79.9734 19.5312V19.5312ZM80 135V122.5C92.2166 122.5 102.484 112.966 103.375 100.794L115.841 101.706C115.181 110.731 111.157 119.119 104.511 125.325C97.83 131.564 89.125 135 80 135V135ZM100.12 90.2656C99.5766 89.255 98.9644 88.185 98.3006 87.0853C94.4891 80.775 89.3078 74.0003 84.2762 67.6197L94.0919 59.8797C99.3731 66.5778 104.835 73.7266 109 80.6225C109.772 81.9013 110.489 83.1547 111.13 84.3484L100.12 90.2656Z" fill="#F6193D"/>
</svg>
