<svg width="20" height="25" viewBox="0 0 20 25" fill="none" xmlns="http://www.w3.org/2000/svg">
<path d="M10.3309 5.98032C11.4223 5.98032 12.7905 5.24241 13.6053 4.25854C14.3432 3.3669 14.8813 2.12169 14.8813 0.876467C14.8813 0.707364 14.8659 0.53826 14.8352 0.399902C13.6207 0.446022 12.1602 1.21467 11.284 2.24467C10.5922 3.0287 9.9619 4.25854 9.9619 5.51913C9.9619 5.70361 9.99265 5.88808 10.008 5.94958C10.0849 5.96495 10.2079 5.98032 10.3309 5.98032ZM6.48759 24.5817C7.97878 24.5817 8.63982 23.5825 10.5 23.5825C12.3908 23.5825 12.8059 24.551 14.4662 24.551C16.0958 24.551 17.1872 23.0444 18.2172 21.5686C19.3702 19.8776 19.8468 18.2173 19.8775 18.1404C19.7699 18.1097 16.6492 16.8337 16.6492 13.2518C16.6492 10.1464 19.1089 8.74747 19.2472 8.63986C17.6177 6.30316 15.1426 6.24166 14.4662 6.24166C12.6368 6.24166 11.1456 7.34852 10.2079 7.34852C9.19325 7.34852 7.85579 6.30316 6.27237 6.30316C3.25925 6.30316 0.200012 8.79359 0.200012 13.4977C0.200012 16.4186 1.33762 19.5086 2.73657 21.5071C3.93566 23.1981 4.98103 24.5817 6.48759 24.5817Z" fill="white"/>
</svg>
