<svg width="24" height="24" viewBox="0 0 24 24" fill="none" xmlns="http://www.w3.org/2000/svg">
<path d="M10.2098 5.74581L10.2818 5.72483V5.6498V2V1.9H10.1818H9.06889H8.96889V2V4.68314L6.19184 5.49227C4.73228 5.91753 3.71818 7.32556 3.71818 8.91187V22V22.1H3.81818H4.93112H5.03112V22V8.91187C5.03112 7.93343 5.6566 7.07243 6.54457 6.8137L10.2098 5.74581Z" fill="#313131" stroke="#313131" stroke-width="0.2"/>
<path d="M7.61813 10.1818V10.0818H7.51813H6.54546H6.44546V10.1818V11.6078H6.44447L6.44643 11.6217L7.26468 17.4313L6.4488 20.5087L6.44546 20.5213V20.5343V22V22.1H6.54546H7.51813H7.61813V22V20.7201L8.4603 17.5435L8.46548 17.524L8.46266 17.504L7.61813 11.5074V10.1818Z" fill="#313131" stroke="#313131" stroke-width="0.2"/>
<path d="M17.8082 5.49227L17.7802 5.58828L17.8082 5.49227L15.0311 4.68314V2V1.9H14.9311H13.8182H13.7182V2V5.6498V5.72483L13.7902 5.74581L17.4554 6.8137C18.3434 7.07243 18.9689 7.93343 18.9689 8.91187V22V22.1H19.0689H20.1818H20.2818V22V8.91187C20.2818 7.3256 19.2677 5.91757 17.8082 5.49227Z" fill="#313131" stroke="#313131" stroke-width="0.2"/>
<path d="M16.7353 17.4313L17.5536 11.6217L17.5545 11.6219V11.6078V10.1818V10.0818H17.4545H16.4819H16.3819V10.1818V11.5074L15.5373 17.504L15.5345 17.524L15.5397 17.5435L16.3819 20.7201V22V22.1H16.4819H17.4545H17.5545V22V20.5343V20.5213L17.5512 20.5087L16.7353 17.4313Z" fill="#313131" stroke="#313131" stroke-width="0.2"/>
</svg>
