<svg width="24" height="24" viewBox="0 0 24 24" fill="none" xmlns="http://www.w3.org/2000/svg">
<path d="M10.5686 13.1899H10.6686V13.0899C10.6686 11.9701 9.75769 11.0592 8.63782 11.0592C7.51796 11.0592 6.60701 11.9701 6.60701 13.0899V13.1899H6.70701H7.87888H7.97888V13.0899C7.97888 12.7267 8.27458 12.431 8.63782 12.431C9.00106 12.431 9.29672 12.7267 9.29672 13.0899V13.1899H9.39672H10.5686Z" fill="#313131" stroke="#313131" stroke-width="0.2"/>
<path d="M13.3314 13.0899V13.1899H13.4314H14.6033H14.7033V13.0899C14.7033 12.7266 14.999 12.431 15.3622 12.431C15.7254 12.431 16.0211 12.7266 16.0211 13.0899V13.1899H16.1211H17.293H17.393V13.0899C17.393 11.97 16.4821 11.0591 15.3622 11.0591C14.2423 11.0591 13.3314 11.97 13.3314 13.0899Z" fill="#313131" stroke="#313131" stroke-width="0.2"/>
<path d="M10.2731 15.4311L10.2223 15.345L10.1362 15.3958L9.12695 15.9913L9.04082 16.0421L9.09164 16.1282C9.69679 17.1538 10.8109 17.7907 12 17.7907C13.1891 17.7907 14.3032 17.1538 14.9084 16.1282L14.9592 16.0421L14.8731 15.9913L13.8638 15.3958L13.7777 15.3449L13.7269 15.4311C13.3674 16.0403 12.7054 16.4189 12 16.4189C11.2947 16.4189 10.6327 16.0403 10.2731 15.4311Z" fill="#313131" stroke="#313131" stroke-width="0.2"/>
<path d="M20.4089 11.8431L20.3382 11.9137C20.5898 12.1657 20.7282 12.4998 20.7282 12.8556C20.7281 13.5753 20.1424 14.1725 19.4234 14.1861L18.9836 14.1944L18.9086 14.1958L18.889 14.2683L18.7742 14.6928L18.8707 14.719L18.7742 14.6928C17.9495 17.7425 15.1638 19.8727 12 19.8727C8.83617 19.8727 6.05051 17.7425 5.22583 14.6928L5.1293 14.719L5.22583 14.6928L5.11101 14.2683L5.09141 14.1958L5.01637 14.1944L4.57665 14.1861C3.85761 14.1725 3.27185 13.5753 3.27185 12.8555C3.27185 12.4998 3.41022 12.1656 3.66138 11.9142C3.90632 11.6695 4.23113 11.5314 4.5765 11.5249L5.01632 11.5167L5.09137 11.5153L5.11097 11.4428L5.22579 11.0182C6.05051 7.9686 8.83621 5.83838 12 5.83838C13.0039 5.83838 13.8207 6.65524 13.8207 7.65911C13.8207 8.66299 13.0039 9.47988 12 9.47988C10.9961 9.47988 10.1793 8.66303 10.1793 7.65915V7.55915H10.0793H8.90741H8.80741V7.65915C8.80741 9.41966 10.2395 10.8518 12 10.8518C13.7605 10.8518 15.1926 9.41966 15.1926 7.65915C15.1926 7.25136 15.1155 6.8612 14.9754 6.5023C16.8012 7.359 18.2241 8.98403 18.7742 11.0182L18.889 11.4428L18.9086 11.5153L18.9837 11.5167L19.4235 11.525C19.7689 11.5315 20.0937 11.6696 20.3382 11.9138L20.4089 11.8431ZM20.4089 11.8431C20.1461 11.5806 19.7967 11.432 19.4253 11.425L18.9855 11.4167V14.2944L19.4253 14.2861C20.1988 14.2715 20.8281 13.6298 20.8282 12.8556C20.8282 12.4733 20.6793 12.1137 20.4089 11.8431ZM21.3083 10.9438L21.3082 10.9437C20.9351 10.571 20.4698 10.3197 19.9639 10.2121C18.8353 6.80637 15.6253 4.46647 12 4.46647H11.6072C10.719 4.46647 9.99623 3.74368 9.99623 2.85554V2.75554H9.89623H8.72436H8.62436V2.85554C8.62436 3.44855 8.79858 4.00162 9.09811 4.46647H8.91745C8.02927 4.46647 7.30652 3.74368 7.30652 2.85554V2.75554H7.20652H6.03465H5.93465V2.85554C5.93465 4.09641 6.6963 5.16158 7.77595 5.61044C6.04607 6.61991 4.69088 8.23645 4.0362 10.2121C3.53022 10.3198 3.06479 10.5711 2.69141 10.9441L2.69133 10.9442C2.18118 11.4549 1.90002 12.134 1.90002 12.8555C1.90002 13.5682 2.17513 14.2411 2.67442 14.7494C3.05036 15.1321 3.52192 15.3897 4.0362 15.499C5.16472 18.9047 8.37467 21.2446 12 21.2446C15.6253 21.2446 18.8353 18.9047 19.9638 15.499C20.4781 15.3897 20.9497 15.1321 21.3256 14.7494C21.8249 14.2411 22.1 13.5682 22.1 12.8555C22.1 12.134 21.8188 11.4549 21.3083 10.9438Z" fill="#313131" stroke="#313131" stroke-width="0.2"/>
</svg>
