<svg width="16" height="16" viewBox="0 0 16 16" fill="none" xmlns="http://www.w3.org/2000/svg">
<path d="M5.68239 3.21812C6.03331 2.90016 6.44914 2.66226 6.90108 2.52088C7.35302 2.3795 7.83028 2.33801 8.29984 2.39929C9.10921 2.53071 9.84385 2.95008 10.3685 3.58021C10.8932 4.21033 11.1726 5.00879 11.1552 5.82857V8.9779C11.1568 9.11835 11.1805 9.25768 11.2252 9.39081L13.7447 11.9103C13.8818 11.7976 13.9899 11.6536 14.0596 11.4904C14.1478 11.282 14.1715 11.052 14.1279 10.83C14.0842 10.608 13.9751 10.4041 13.8147 10.2446L12.5549 8.9779V5.85656C12.5717 4.69748 12.1685 3.57148 11.4199 2.68647C10.6712 1.80145 9.62762 1.2172 8.4818 1.04158C7.81673 0.952484 7.14029 1.00695 6.49804 1.20132C5.85579 1.39568 5.26266 1.72543 4.75859 2.16834C4.61614 2.28641 4.48061 2.41259 4.35268 2.54626L5.38146 3.54705C5.47436 3.43085 5.5749 3.32096 5.68239 3.21812ZM9.25164 11.3994L8.67076 10.7975H3.3099L4.13572 9.97169C4.26671 9.84148 4.37064 9.68663 4.4415 9.51606C4.51237 9.3455 4.54878 9.1626 4.54864 8.9779V6.67539L3.14893 5.27568C3.14178 5.41323 3.14178 5.55105 3.14893 5.6886V8.9779L1.8892 10.2446C1.72754 10.4042 1.6172 10.6084 1.57231 10.8311C1.52741 11.0537 1.55002 11.2847 1.63722 11.4945C1.72442 11.7042 1.87226 11.8831 2.06178 12.0083C2.2513 12.1335 2.47389 12.1993 2.70103 12.1972H5.05253V12.4352C5.08522 13.1457 5.39822 13.8142 5.92295 14.2943C6.44768 14.7745 7.14134 15.027 7.85194 14.9966C8.51301 15.0266 9.16228 14.8142 9.67777 14.3992C10.1932 13.9843 10.5395 13.3953 10.6513 12.7431L10.0705 12.1972L9.25164 11.3994ZM7.85194 13.5969C7.51392 13.6208 7.17973 13.5133 6.91898 13.2969C6.65824 13.0805 6.49104 12.7718 6.45223 12.4352V12.1972H9.25164V12.4352C9.21283 12.7718 9.04563 13.0805 8.78489 13.2969C8.52414 13.5133 8.18995 13.6208 7.85194 13.5969ZM13.9476 13.1L13.0378 12.1972L11.6381 10.7975L4.97554 4.12793L3.94676 3.09914L2.75002 1.9024C2.68476 1.83714 2.6073 1.78538 2.52204 1.75007C2.43678 1.71475 2.3454 1.69658 2.25312 1.69658C2.16084 1.69658 2.06946 1.71475 1.9842 1.75007C1.89895 1.78538 1.82148 1.83714 1.75623 1.9024C1.62444 2.03418 1.55041 2.21292 1.55041 2.39929C1.55041 2.58566 1.62444 2.7644 1.75623 2.89619L3.32389 4.49885L4.54864 5.6886L9.66455 10.7975L9.71354 10.8465L10.6513 11.7843L11.0643 12.1972L12.9539 14.0938C13.0189 14.1594 13.0963 14.2115 13.1816 14.247C13.2669 14.2825 13.3584 14.3008 13.4508 14.3008C13.5431 14.3008 13.6346 14.2825 13.7199 14.247C13.8052 14.2115 13.8826 14.1594 13.9476 14.0938C14.0132 14.0288 14.0653 13.9514 14.1008 13.8661C14.1364 13.7808 14.1547 13.6893 14.1547 13.5969C14.1547 13.5045 14.1364 13.4131 14.1008 13.3278C14.0653 13.2425 14.0132 13.1651 13.9476 13.1Z" fill="black"/>
</svg>
