<svg width="24" height="24" viewBox="0 0 24 24" fill="none" xmlns="http://www.w3.org/2000/svg">
<g clip-path="url(#clip0_33_103)">
<path d="M21.2151 12.1098C20.7667 11.561 20.206 11.122 19.5333 10.7927C19.3091 9.80488 18.7485 8.92683 17.9636 8.26829C17.1788 7.60976 16.2818 7.17073 15.1606 7.06098C14.1515 6.95122 13.1424 7.17073 12.2454 7.60976C11.4605 8.15854 10.7878 8.81707 10.3393 9.58537C9.77869 7.82927 9.89081 5.85366 10.5635 4.09756C10.5635 3.9878 10.6757 3.87805 10.5635 3.76829C10.5635 3.65854 10.4514 3.54878 10.4514 3.43902C10.3393 3.21951 10.3393 3.10976 10.1151 3.10976C10.0029 3 9.89081 3 9.77869 3H9.66657C7.42413 3.32927 5.40593 4.53659 3.94834 6.29268C2.49076 8.15854 1.81802 10.3537 2.04227 12.5488C2.15439 14.7439 3.16349 16.939 4.84532 18.4756C6.52715 20.0122 8.65747 20.8902 11.012 21H11.1242H11.2363H11.3484C12.6939 21 14.1515 20.6707 15.3848 20.1219C16.6181 19.5732 17.7394 18.6951 18.6363 17.5976C19.5333 17.4878 20.3182 17.1585 20.9909 16.5C21.6636 15.8415 22 14.9634 22 14.0854C21.8879 13.3171 21.6636 12.6585 21.2151 12.1098ZM7.87262 12.7683C7.64837 13.4268 7.53625 14.3049 7.76049 14.9634C7.98474 15.7317 8.43323 16.3902 9.10596 16.8293C9.77869 17.2683 10.4514 17.4878 11.2363 17.4878H16.2818C14.9363 18.6951 13.1424 19.3537 11.2363 19.3537C11.1242 19.3537 11.1242 19.3537 11.012 19.3537C9.21808 19.2439 7.53625 18.5854 6.19078 17.4878C4.84532 16.2805 3.94834 14.7439 3.7241 12.9878C3.38773 11.3415 3.83622 9.58537 4.7332 8.04878C5.63017 6.62195 6.97564 5.52439 8.65747 4.86585C8.20898 6.95122 8.3211 9.14634 9.21808 11.122C8.54535 11.561 8.09686 12.1098 7.87262 12.7683ZM9.55445 12.9878C9.77869 12.5488 10.2272 12.3293 10.6757 12.2195L11.2363 12L11.3484 11.4512C11.4605 10.6829 11.909 9.91463 12.4696 9.47561C13.0302 9.03658 13.8151 8.70732 14.7121 8.70732C15.609 8.70732 16.2818 9.03658 16.9545 9.47561C17.5151 10.0244 17.9636 10.6829 18.0757 11.4512L18.1878 12L18.7485 12.1098C19.1969 12.2195 19.6454 12.5488 19.8697 12.878C20.0939 13.3171 20.3182 13.7561 20.206 14.1951C20.0939 14.6341 19.8697 15.0732 19.5333 15.4024C19.1969 15.7317 18.7485 15.8415 18.1878 15.8415H11.2363C10.7878 15.8415 10.2272 15.622 9.89081 15.4024C9.55445 15.0732 9.3302 14.6341 9.21808 14.1951C9.21808 13.8659 9.3302 13.3171 9.55445 12.9878Z" fill="#313131"/>
</g>
<defs>
<clipPath id="clip0_33_103">
<rect width="24" height="24" fill="white"/>
</clipPath>
</defs>
</svg>
