<svg width="16" height="16" viewBox="0 0 16 16" fill="none" xmlns="http://www.w3.org/2000/svg">
<path d="M8.88471 5.23371C9.02558 5.0996 9.21303 5.02546 9.40753 5.02693C9.60202 5.02841 9.78833 5.10538 9.92715 5.2416C10.066 5.37783 10.1464 5.56266 10.1516 5.75709C10.1567 5.95152 10.0861 6.14034 9.95471 6.28372L5.96471 11.2737C5.8961 11.3476 5.81329 11.4069 5.72124 11.4481C5.62919 11.4892 5.52978 11.5114 5.42896 11.5133C5.32814 11.5152 5.22798 11.4967 5.13446 11.4589C5.04095 11.4212 4.95601 11.365 4.88471 11.2937L2.23871 8.64771C2.16502 8.57905 2.10592 8.49625 2.06493 8.40425C2.02394 8.31225 2.00189 8.21294 2.00012 8.11224C1.99834 8.01153 2.01686 7.91151 2.05459 7.81812C2.09231 7.72473 2.14845 7.6399 2.21967 7.56868C2.29089 7.49746 2.37572 7.44131 2.46911 7.40359C2.5625 7.36587 2.66253 7.34735 2.76323 7.34912C2.86393 7.3509 2.96325 7.37294 3.05525 7.41393C3.14725 7.45493 3.23005 7.51403 3.29871 7.58771L5.39271 9.68071L8.86471 5.25572C8.87094 5.24799 8.87761 5.24065 8.88471 5.23371ZM7.96471 10.3737L8.88471 11.2937C8.95599 11.3649 9.04087 11.4209 9.13429 11.4586C9.22771 11.4962 9.32775 11.5146 9.42845 11.5128C9.52915 11.5109 9.62844 11.4888 9.7204 11.4477C9.81237 11.4066 9.89511 11.3475 9.96371 11.2737L13.9557 6.28372C14.0274 6.21292 14.0841 6.12839 14.1224 6.03519C14.1608 5.94199 14.1799 5.84202 14.1787 5.74126C14.1776 5.64049 14.1561 5.541 14.1156 5.44871C14.0751 5.35643 14.0165 5.27325 13.9431 5.20414C13.8698 5.13504 13.7833 5.08142 13.6887 5.04649C13.5942 5.01156 13.4936 4.99604 13.393 5.00086C13.2923 5.00567 13.1936 5.03072 13.1029 5.07451C13.0121 5.1183 12.9311 5.17992 12.8647 5.25572L9.39171 9.68071L8.90671 9.19471L7.96371 10.3737H7.96471Z" fill="#313131"/>
</svg>
