<svg width="24" height="24" viewBox="0 0 24 24" fill="none" xmlns="http://www.w3.org/2000/svg">
<path fill-rule="evenodd" clip-rule="evenodd" d="M9.91667 2.625C9.91667 2.27982 10.1965 2 10.5417 2H13.4583C13.8035 2 14.0833 2.27982 14.0833 2.625C14.0833 2.97018 13.8035 3.25 13.4583 3.25H12.625V4.52607C14.1781 4.65589 15.6529 5.26677 16.8429 6.27319L17.7453 5.37083L17.1564 4.78194C16.9123 4.53786 16.9123 4.14214 17.1564 3.89806C17.4005 3.65398 17.7962 3.65398 18.0403 3.89806L20.1019 5.95972C20.346 6.2038 20.346 6.59953 20.1019 6.84361C19.8579 7.08769 19.4621 7.08769 19.2181 6.84361L18.6292 6.25472L17.7268 7.15707C18.7332 8.34708 19.3441 9.82189 19.4739 11.375H20.75V10.5417C20.75 10.1965 21.0298 9.91667 21.375 9.91667C21.7202 9.91667 22 10.1965 22 10.5417V13.4583C22 13.8035 21.7202 14.0833 21.375 14.0833C21.0298 14.0833 20.75 13.8035 20.75 13.4583V12.625H19.4739C19.3441 14.1781 18.7332 15.6529 17.7268 16.8429L18.6292 17.7453L19.2181 17.1564C19.4621 16.9123 19.8579 16.9123 20.1019 17.1564C20.346 17.4005 20.346 17.7962 20.1019 18.0403L18.0403 20.1019C17.7962 20.346 17.4005 20.346 17.1564 20.1019C16.9123 19.8579 16.9123 19.4621 17.1564 19.2181L17.7453 18.6292L16.8429 17.7268C15.6529 18.7332 14.1781 19.3441 12.625 19.4739V20.75H13.4583C13.8035 20.75 14.0833 21.0298 14.0833 21.375C14.0833 21.7202 13.8035 22 13.4583 22H10.5417C10.1965 22 9.91667 21.7202 9.91667 21.375C9.91667 21.0298 10.1965 20.75 10.5417 20.75H11.375V19.4739C9.82189 19.3441 8.34708 18.7332 7.15707 17.7268L6.25472 18.6292L6.84361 19.2181C7.08769 19.4621 7.08769 19.8579 6.84361 20.1019C6.59953 20.346 6.2038 20.346 5.95972 20.1019L3.89806 18.0403C3.65398 17.7962 3.65398 17.4005 3.89806 17.1564C4.14214 16.9123 4.53786 16.9123 4.78194 17.1564L5.37083 17.7453L6.27319 16.8429C5.26677 15.6529 4.65589 14.1781 4.52607 12.625H3.25V13.4583C3.25 13.8035 2.97018 14.0833 2.625 14.0833C2.27982 14.0833 2 13.8035 2 13.4583V10.5417C2 10.1965 2.27982 9.91667 2.625 9.91667C2.97018 9.91667 3.25 10.1965 3.25 10.5417V11.375H4.52607C4.65589 9.82189 5.26677 8.34708 6.27319 7.15707L5.37083 6.25472L4.78194 6.84361C4.53786 7.08769 4.14214 7.08769 3.89806 6.84361C3.65398 6.59953 3.65398 6.2038 3.89806 5.95972L5.95972 3.89806C6.2038 3.65398 6.59953 3.65398 6.84361 3.89806C7.08769 4.14214 7.08769 4.53786 6.84361 4.78194L6.25472 5.37083L7.15707 6.27319C8.34708 5.26677 9.82189 4.65589 11.375 4.52607V3.25H10.5417C10.1965 3.25 9.91667 2.97018 9.91667 2.625ZM12 5.75C10.3424 5.75 8.75268 6.40848 7.58058 7.58058C6.40848 8.75268 5.75 10.3424 5.75 12C5.75 13.6576 6.40848 15.2473 7.58058 16.4194C8.75268 17.5915 10.3424 18.25 12 18.25C13.6576 18.25 15.2473 17.5915 16.4194 16.4194C17.5915 15.2473 18.25 13.6576 18.25 12C18.25 10.3424 17.5915 8.75268 16.4194 7.58058C15.2473 6.40848 13.6576 5.75 12 5.75Z" fill="#313131"/>
<path fill-rule="evenodd" clip-rule="evenodd" d="M8.44351 8.44353C8.83421 8.05282 9.36411 7.83333 9.91665 7.83333C10.4692 7.83333 10.9991 8.05282 11.3898 8.44353C11.7805 8.83423 12 9.36413 12 9.91667C12 10.4692 11.7805 10.9991 11.3898 11.3898C10.9991 11.7805 10.4692 12 9.91665 12C9.36411 12 8.83421 11.7805 8.44351 11.3898C8.05281 10.9991 7.83331 10.4692 7.83331 9.91667C7.83331 9.36413 8.05281 8.83423 8.44351 8.44353ZM9.91665 9.08333C9.69563 9.08333 9.48367 9.17113 9.32739 9.32741C9.17111 9.48369 9.08331 9.69565 9.08331 9.91667C9.08331 10.1377 9.17111 10.3496 9.32739 10.5059C9.48367 10.6622 9.69563 10.75 9.91665 10.75C10.1377 10.75 10.3496 10.6622 10.5059 10.5059C10.6622 10.3496 10.75 10.1377 10.75 9.91667C10.75 9.69565 10.6622 9.48369 10.5059 9.32741C10.3496 9.17113 10.1377 9.08333 9.91665 9.08333Z" fill="#313131"/>
<path fill-rule="evenodd" clip-rule="evenodd" d="M15.9583 12.5208C16.0412 12.5208 16.1207 12.4879 16.1793 12.4293C16.2379 12.3707 16.2708 12.2912 16.2708 12.2083C16.2708 12.1255 16.2379 12.046 16.1793 11.9874C16.1207 11.9288 16.0412 11.8958 15.9583 11.8958C15.8755 11.8958 15.796 11.9288 15.7374 11.9874C15.6788 12.046 15.6458 12.1255 15.6458 12.2083C15.6458 12.2912 15.6788 12.3707 15.7374 12.4293C15.796 12.4879 15.8755 12.5208 15.9583 12.5208ZM15.2954 11.5454C15.4712 11.3696 15.7097 11.2708 15.9583 11.2708C16.207 11.2708 16.4454 11.3696 16.6212 11.5454C16.7971 11.7212 16.8958 11.9597 16.8958 12.2083C16.8958 12.457 16.7971 12.6954 16.6212 12.8712C16.4454 13.0471 16.207 13.1458 15.9583 13.1458C15.7097 13.1458 15.4712 13.0471 15.2954 12.8712C15.1196 12.6954 15.0208 12.457 15.0208 12.2083C15.0208 11.9597 15.1196 11.7212 15.2954 11.5454ZM12.625 16.1667C12.7079 16.1667 12.7874 16.1337 12.846 16.0751C12.9046 16.0165 12.9375 15.937 12.9375 15.8542C12.9375 15.7713 12.9046 15.6918 12.846 15.6332C12.7874 15.5746 12.7079 15.5417 12.625 15.5417C12.5421 15.5417 12.4626 15.5746 12.404 15.6332C12.3454 15.6918 12.3125 15.7713 12.3125 15.8542C12.3125 15.937 12.3454 16.0165 12.404 16.0751C12.4626 16.1337 12.5421 16.1667 12.625 16.1667ZM11.9621 15.1913C12.1379 15.0154 12.3764 14.9167 12.625 14.9167C12.8736 14.9167 13.1121 15.0154 13.2879 15.1913C13.4637 15.3671 13.5625 15.6055 13.5625 15.8542C13.5625 16.1028 13.4637 16.3413 13.2879 16.5171C13.1121 16.6929 12.8736 16.7917 12.625 16.7917C12.3764 16.7917 12.1379 16.6929 11.9621 16.5171C11.7863 16.3413 11.6875 16.1028 11.6875 15.8542C11.6875 15.6055 11.7863 15.3671 11.9621 15.1913Z" fill="#313131"/>
</svg>
