<svg width="24" height="24" viewBox="0 0 24 24" fill="none" xmlns="http://www.w3.org/2000/svg">
<path fill-rule="evenodd" clip-rule="evenodd" d="M4.96296 3.9C4.68326 3.9 4.41442 4.01115 4.21574 4.20994C4.01696 4.40884 3.90476 4.67922 3.90476 4.96176V13.0088C3.90476 13.2914 4.01696 13.5617 4.21574 13.7606C4.41442 13.9594 4.68326 14.0706 4.96296 14.0706H8.98413C9.51011 14.0706 9.93651 14.4959 9.93651 15.0206V17.7515L13.3361 14.3499C13.5148 14.1711 13.7575 14.0706 14.0106 14.0706H19.037C19.3167 14.0706 19.5856 13.9594 19.7843 13.7606C19.983 13.5617 20.0952 13.2914 20.0952 13.0088V4.96176C20.0952 4.67922 19.983 4.40884 19.7843 4.20994C19.5856 4.01115 19.3167 3.9 19.037 3.9H4.96296ZM2.86679 2.86852C3.42223 2.31276 4.17618 2 4.96296 2H19.037C19.8238 2 20.5778 2.31276 21.1332 2.86852C21.6885 3.42418 22 4.1772 22 4.96176V13.0088C22 13.7934 21.6885 14.5464 21.1332 15.102C20.5778 15.6578 19.8238 15.9706 19.037 15.9706H14.4059L9.6586 20.7207C9.38646 20.993 8.97659 21.0748 8.62035 20.9279C8.2641 20.7811 8.03175 20.4345 8.03175 20.05V15.9706H4.96296C4.17618 15.9706 3.42223 15.6578 2.86679 15.102C2.31146 14.5464 2 13.7934 2 13.0088V4.96176C2 4.1772 2.31146 3.42418 2.86679 2.86852Z" fill="#313131"/>
</svg>
