<svg width="24" height="24" viewBox="0 0 24 24" fill="none" xmlns="http://www.w3.org/2000/svg">
<path d="M18.5683 12.6589H16.9048V11.4141V11.3141H16.8048H3.52917H3.42917V11.4141V15.4081C3.42917 17.5753 4.46496 19.5046 6.06664 20.7281H3.53382H3.43382V20.8281V22V22.1H3.53382H16.8002H16.9002V22V20.8281V20.7281H16.8002H14.2674C14.7608 20.3512 15.2004 19.9074 15.5726 19.4103H16.8085C18.3603 19.4103 19.7071 18.3587 20.0834 16.8534L20.5103 15.1461L20.4132 15.1219L20.5103 15.1461C20.6607 14.5441 20.5279 13.9179 20.146 13.4287L20.0672 13.4903L20.146 13.4287C19.7642 12.9397 19.1888 12.6589 18.5683 12.6589ZM18.7525 16.5206L18.8495 16.5449L18.7525 16.5206C18.5291 17.4144 17.7298 18.0384 16.8085 18.0384H16.3659C16.7126 17.2305 16.9048 16.3412 16.9048 15.4081V14.0308H18.5683C18.7638 14.0308 18.9444 14.1189 19.0647 14.2731L19.0647 14.2731C19.1851 14.4271 19.2267 14.6237 19.1793 14.8134L18.7525 16.5206ZM10.2129 20.7281H10.1211C7.18768 20.7281 4.80105 18.3415 4.80105 15.4081V12.6859H15.5329V15.4081C15.5329 18.3415 13.1463 20.7281 10.2129 20.7281Z" fill="#313131" stroke="#313131" stroke-width="0.2"/>
<path d="M8.1428 9.89621V9.99621H8.2428H9.41467H9.51467V9.89621V8.55141C9.51467 8.18812 9.81037 7.89242 10.1737 7.89242H15.5529C18.156 7.89242 20.2736 5.77484 20.2736 3.17172V2V1.9H20.1736H19.0017H18.9017V2V3.17172C18.9017 5.01821 17.3994 6.52055 15.5529 6.52055H10.1737C9.05374 6.52055 8.1428 7.43149 8.1428 8.55141V9.89621Z" fill="#313131" stroke="#313131" stroke-width="0.2"/>
<path d="M17.5839 2V1.9H17.4839H16.312H16.212V2V3.3448C16.212 3.7081 15.9163 4.00383 15.5531 4.00383H10.1738C7.57068 4.00383 5.4531 6.12141 5.4531 8.72453V9.89621V9.99621H5.5531H6.72498H6.82498V9.89621V8.72449C6.82498 6.878 8.32731 5.37566 10.1738 5.37566H15.5531C16.673 5.37566 17.5839 4.46468 17.5839 3.34477V2Z" fill="#313131" stroke="#313131" stroke-width="0.2"/>
</svg>
