<svg width="24" height="24" viewBox="0 0 24 24" fill="none" xmlns="http://www.w3.org/2000/svg">
<path d="M21.9725 12.0926L20.5066 4.1749C20.4708 3.9819 20.3962 3.79833 20.2874 3.63547C20.1786 3.47261 20.0379 3.33391 19.8739 3.22789C19.7099 3.12188 19.5261 3.05079 19.3339 3.019C19.1417 2.9872 18.945 2.99538 18.756 3.04303L18.7283 3.05113L14.0397 4.44482H9.95995L5.27134 3.05563L5.24367 3.04753C5.05468 2.99988 4.85801 2.9917 4.66577 3.02349C4.47352 3.05529 4.28977 3.12638 4.12579 3.23239C3.96182 3.33841 3.82109 3.47711 3.71228 3.63997C3.60346 3.80283 3.52885 3.9864 3.49303 4.1794L2.02717 12.0926C1.96448 12.4095 2.01101 12.7385 2.15906 13.0251C2.30711 13.3118 2.54781 13.5389 2.84134 13.6689C3.02932 13.7558 3.23355 13.8012 3.44036 13.8021C3.68788 13.802 3.93084 13.7349 4.14383 13.6078V17.401C4.14383 18.3555 4.52005 19.271 5.18972 19.9459C5.8594 20.6208 6.76767 21 7.71474 21H16.2849C17.232 21 18.1403 20.6208 18.8099 19.9459C19.4796 19.271 19.8558 18.3555 19.8558 17.401V13.6087C20.0686 13.7355 20.3112 13.8026 20.5584 13.803C20.7654 13.8024 20.97 13.7573 21.1583 13.6707C21.4522 13.5406 21.6932 13.3132 21.8412 13.0262C21.9893 12.7392 22.0356 12.4098 21.9725 12.0926ZM3.42964 12.3625L4.8964 4.44482L8.6521 5.5578L3.42964 12.3625ZM16.2849 19.5604H12.714V18.4187L13.9335 17.1905C14.0675 17.0554 14.1428 16.8723 14.1428 16.6813C14.1428 16.4903 14.0675 16.3071 13.9335 16.172C13.7995 16.0369 13.6177 15.9611 13.4282 15.9611C13.2387 15.9611 13.0569 16.0369 12.9229 16.172L11.9998 17.1032L11.0768 16.172C10.9427 16.0369 10.761 15.9611 10.5715 15.9611C10.382 15.9611 10.2002 16.0369 10.0662 16.172C9.93218 16.3071 9.85689 16.4903 9.85689 16.6813C9.85689 16.8723 9.93218 17.0554 10.0662 17.1905L11.2857 18.4187V19.5604H7.71474C7.1465 19.5604 6.60154 19.3329 6.19973 18.928C5.79792 18.523 5.57219 17.9737 5.57219 17.401V11.9225L10.2072 5.8844H13.7915L18.4275 11.9225V17.401C18.4275 17.9737 18.2017 18.523 17.7999 18.928C17.3981 19.3329 16.8532 19.5604 16.2849 19.5604ZM20.57 12.3625L15.3476 5.5578L19.1033 4.44482L20.57 12.3625ZM9.85729 13.4422C9.85729 13.6557 9.79446 13.8645 9.67675 14.042C9.55903 14.2196 9.39172 14.358 9.19597 14.4397C9.00022 14.5214 8.78482 14.5428 8.57702 14.5011C8.36921 14.4595 8.17833 14.3567 8.02851 14.2057C7.87869 14.0547 7.77666 13.8623 7.73532 13.6528C7.69399 13.4434 7.7152 13.2263 7.79629 13.029C7.87737 12.8317 8.01468 12.6631 8.19085 12.5445C8.36702 12.4258 8.57414 12.3625 8.78601 12.3625C9.07013 12.3625 9.34262 12.4763 9.54352 12.6787C9.74442 12.8812 9.85729 13.1559 9.85729 13.4422ZM16.2849 13.4422C16.2849 13.6557 16.2221 13.8645 16.1044 14.042C15.9867 14.2196 15.8194 14.358 15.6236 14.4397C15.4279 14.5214 15.2125 14.5428 15.0047 14.5011C14.7969 14.4595 14.606 14.3567 14.4562 14.2057C14.3063 14.0547 14.2043 13.8623 14.163 13.6528C14.1216 13.4434 14.1428 13.2263 14.2239 13.029C14.305 12.8317 14.4423 12.6631 14.6185 12.5445C14.7947 12.4258 15.0018 12.3625 15.2137 12.3625C15.4978 12.3625 15.7703 12.4763 15.9712 12.6787C16.1721 12.8812 16.2849 13.1559 16.2849 13.4422Z" fill="#313131"/>
</svg>
