<svg width="24" height="24" viewBox="0 0 24 24" fill="none" xmlns="http://www.w3.org/2000/svg">
<path fill-rule="evenodd" clip-rule="evenodd" d="M12 2C12.5523 2 13 2.3731 13 2.83333V21.1667C13 21.6269 12.5523 22 12 22C11.4477 22 11 21.6269 11 21.1667V2.83333C11 2.3731 11.4477 2 12 2Z" fill="#313131"/>
<path fill-rule="evenodd" clip-rule="evenodd" d="M7.12973 6.15327C7.85309 5.41484 8.83416 5 9.85714 5H16.2857C16.7591 5 17.1429 5.39175 17.1429 5.875C17.1429 6.35825 16.7591 6.75 16.2857 6.75H9.85714C9.28882 6.75 8.74378 6.98047 8.34191 7.3907C7.94005 7.80094 7.71429 8.35734 7.71429 8.9375C7.71429 9.51766 7.94005 10.0741 8.34191 10.4843C8.74378 10.8945 9.28882 11.125 9.85714 11.125H14.1429C15.1658 11.125 16.1469 11.5398 16.8703 12.2783C17.5936 13.0167 18 14.0182 18 15.0625C18 16.1068 17.5936 17.1083 16.8703 17.8467C16.1469 18.5852 15.1658 19 14.1429 19H6.85714C6.38376 19 6 18.6082 6 18.125C6 17.6418 6.38376 17.25 6.85714 17.25H14.1429C14.7112 17.25 15.2562 17.0195 15.6581 16.6093C16.0599 16.1991 16.2857 15.6427 16.2857 15.0625C16.2857 14.4823 16.0599 13.9259 15.6581 13.5157C15.2562 13.1055 14.7112 12.875 14.1429 12.875H9.85714C8.83416 12.875 7.85309 12.4602 7.12973 11.7217C6.40638 10.9833 6 9.98179 6 8.9375C6 7.89321 6.40638 6.89169 7.12973 6.15327Z" fill="#313131"/>
</svg>
