<svg width="24" height="24" viewBox="0 0 24 24" fill="none" xmlns="http://www.w3.org/2000/svg">
<path d="M2 21.0909C2 21.5818 2.40909 22 2.90909 22H14.7273C15.2364 22 15.6364 21.5818 15.6364 21.0909V20.1818H2V21.0909ZM8.81818 9.27273C5.40909 9.27273 2 11.0909 2 14.7273H15.6364C15.6364 11.0909 12.2273 9.27273 8.81818 9.27273ZM4.38182 12.9091C5.39091 11.5 7.53636 11.0909 8.81818 11.0909C10.1 11.0909 12.2455 11.5 13.2545 12.9091H4.38182ZM2 16.5455H15.6364V18.3636H2V16.5455ZM17.4545 5.63636V2H15.6364V5.63636H11.0909L11.3 7.45455H19.9909L18.7182 20.1818H17.4545V22H19.0182C19.7818 22 20.4091 21.4091 20.5 20.6636L22 5.63636H17.4545Z" fill="#313131"/>
</svg>
