<svg width="24" height="24" viewBox="0 0 24 24" fill="none" xmlns="http://www.w3.org/2000/svg">
<path d="M18.4953 19.7062H22H22.05V19.6562V9.07031V9.02031H22H14.9797V2V1.95H14.9297H2H1.95V2V12.5859V12.6359H2H5.50469V14.9297V15.0297L5.58469 14.9697L8.69635 12.6359H9.02031V19.6562V19.7062H9.07031H15.3036L18.4153 22.04L18.4953 22.1V22V19.7062ZM15.7109 18.4344H10.2922V10.2922H20.7781V18.4344H17.2734H17.2234V18.4844V19.5562L15.7409 18.4444L15.7276 18.4344H15.7109ZM8.28906 11.3641H8.2724L8.25906 11.3741L6.77656 12.4859V11.4141V11.3641H6.72656H3.22187V3.22187H13.7078V9.02031H11.2211L8.5291 3.63627L8.48438 3.54683L8.43965 3.63627L5.57176 9.3719L5.5494 9.41661L5.59412 9.43898L6.64225 9.96312L6.68697 9.98548L6.70933 9.94076L7.41252 8.53438H9.55623L9.79919 9.02031H9.07031H9.02031V9.07031V11.3641H8.28906ZM8.92029 7.2625H8.04846L8.48438 6.39067L8.92029 7.2625Z" fill="#313131" stroke="#313131" stroke-width="0.1"/>
<path d="M17.244 15.8532C16.994 15.7256 16.7056 15.5373 16.4073 15.2904C16.733 14.8882 17.0712 14.3695 17.23 13.8078H18.4453H18.4953V13.7578V12.5859V12.5359H18.4453H16.1516V11.4141V11.3641H16.1016H14.9297H14.8797V11.4141V12.5359H12.5859H12.5359V12.5859V13.7578V13.8078H12.5859H13.8012C13.9601 14.3695 14.2983 14.8882 14.6239 15.2904C14.3257 15.5373 14.0373 15.7256 13.7872 15.8532C13.5249 15.9871 13.3101 16.0516 13.1719 16.0516H13.1219V16.1016V17.2734V17.3234H13.1719C13.5607 17.3234 13.9844 17.1815 14.3943 16.9684C14.7919 16.7616 15.1799 16.486 15.5156 16.2012C15.8513 16.486 16.2394 16.7616 16.637 16.9684C17.0468 17.1815 17.4706 17.3234 17.8594 17.3234H17.9094V17.2734V16.1016V16.0516H17.8594C17.7212 16.0516 17.5063 15.9871 17.244 15.8532ZM15.8687 13.8074C15.7799 13.986 15.6607 14.1755 15.5156 14.3676C15.3706 14.1755 15.2514 13.986 15.1625 13.8074H15.8687Z" fill="#313131" stroke="#313131" stroke-width="0.1"/>
</svg>
