<svg width="24" height="24" viewBox="0 0 24 24" fill="none" xmlns="http://www.w3.org/2000/svg">
<path fill-rule="evenodd" clip-rule="evenodd" d="M5 4.25C4.80109 4.25 4.61032 4.32902 4.46967 4.46967C4.32902 4.61032 4.25 4.80109 4.25 5V19C4.25 19.1989 4.32902 19.3897 4.46967 19.5303C4.61032 19.671 4.80109 19.75 5 19.75H9C9.69036 19.75 10.25 20.3096 10.25 21C10.25 21.6904 9.69036 22.25 9 22.25H5C4.13805 22.25 3.3114 21.9076 2.7019 21.2981C2.09241 20.6886 1.75 19.862 1.75 19V5C1.75 4.13805 2.09241 3.3114 2.7019 2.7019C3.3114 2.09241 4.13805 1.75 5 1.75H9C9.69036 1.75 10.25 2.30964 10.25 3C10.25 3.69036 9.69036 4.25 9 4.25H5Z" fill="#313131"/>
<path d="M16 17L21 12L16 7" stroke="#313131" stroke-width="2" stroke-linecap="round" stroke-linejoin="round"/>
<path fill-rule="evenodd" clip-rule="evenodd" d="M8 12C8 11.4477 8.44772 11 9 11H21C21.5523 11 22 11.4477 22 12C22 12.5523 21.5523 13 21 13H9C8.44772 13 8 12.5523 8 12Z" fill="#313131"/>
</svg>
