<svg width="24" height="24" viewBox="0 0 24 24" fill="none" xmlns="http://www.w3.org/2000/svg">
<path fill-rule="evenodd" clip-rule="evenodd" d="M22.8504 11.5871C22.7707 11.4915 21.4134 9.88851 19.3896 8.93916C20.1493 6.83683 19.9756 4.74348 19.9643 4.61952C19.9363 4.30941 19.6906 4.06372 19.3805 4.03566C19.2565 4.02444 17.1632 3.85068 15.0608 4.61045C14.1115 2.58662 12.5084 1.22929 12.4128 1.14958C12.1738 0.95012 11.8263 0.95012 11.5872 1.14958C11.4916 1.22929 9.88852 2.58662 8.93917 4.61045C6.83684 3.85068 4.74349 4.02444 4.61952 4.03566C4.30942 4.06372 4.06372 4.30941 4.03567 4.61952C4.02445 4.74348 3.85068 6.83678 4.61046 8.93916C2.58663 9.88851 1.22929 11.4916 1.14958 11.5871C0.950123 11.8262 0.950123 12.1737 1.14958 12.4128C1.22933 12.5084 2.58663 14.1115 4.61046 15.0608C3.85068 17.1631 4.02445 19.2565 4.03567 19.3805C4.06372 19.6906 4.30942 19.9363 4.61952 19.9643C4.74349 19.9755 6.8368 20.1493 8.93917 19.3895C9.88852 21.4133 11.4916 22.7707 11.5872 22.8504C11.8262 23.0499 12.1737 23.0499 12.4128 22.8504C12.5085 22.7707 14.1115 21.4133 15.0608 19.3895C17.1632 20.1493 19.2565 19.9755 19.3805 19.9643C19.6906 19.9363 19.9363 19.6906 19.9643 19.3805C19.9756 19.2565 20.1493 17.1632 19.3896 15.0608C21.4134 14.1115 22.7707 12.5084 22.8504 12.4128C23.0498 12.1737 23.0498 11.8263 22.8504 11.5871ZM18.6974 5.30259C18.6954 6.00487 18.6186 7.25848 18.1793 8.48708C17.3964 8.2734 16.4776 8.15481 15.6587 8.34125C15.8452 7.52226 15.7266 6.60368 15.5129 5.82075C16.7415 5.38144 17.9951 5.30456 18.6974 5.30259ZM16.4874 9.53788C16.8736 9.53788 17.251 9.58742 17.6152 9.67349C16.8554 10.956 15.6396 11.6654 14.2009 11.0883C14.5641 10.1809 15.4518 9.53788 16.4874 9.53788ZM14.4621 7.51264C14.4621 8.54823 13.8191 9.43587 12.9117 9.79904C12.3345 8.35891 13.0446 7.14461 14.3265 6.3848C14.4126 6.74904 14.4621 7.12644 14.4621 7.51264ZM12.7362 12C12.7362 12.4059 12.4059 12.7362 12 12.7362C11.0233 12.6957 11.0236 11.3041 12 11.2638C12.4059 11.2638 12.7362 11.5941 12.7362 12ZM12 2.52844C12.4952 3.02645 13.3274 3.96716 13.8855 5.14653C13.1804 5.54923 12.4461 6.11525 12 6.8275C11.5538 6.11517 10.8197 5.54931 10.1145 5.14653C10.6726 3.96712 11.5048 3.02641 12 2.52844ZM9.67351 6.3848C10.9561 7.14461 11.6654 8.36041 11.0883 9.79904C9.66199 9.18906 9.30599 7.82842 9.67351 6.3848ZM9.79906 11.0883C8.35896 11.6655 7.14462 10.9554 6.38481 9.67349C7.82886 9.30555 9.19002 9.66314 9.79906 11.0883ZM8.4871 5.82075C8.27341 6.60355 8.15482 7.52239 8.34126 8.34125C7.52228 8.15481 6.60369 8.2734 5.82076 8.48708C5.38145 7.25848 5.30457 6.00491 5.3026 5.30259C6.00488 5.30456 7.25849 5.38144 8.4871 5.82075ZM2.52845 12C3.02646 11.5048 3.96717 10.6726 5.14654 10.1145C5.54924 10.8196 6.11527 11.5539 6.82752 12C6.11518 12.4462 5.54932 13.1803 5.14654 13.8855C3.96713 13.3274 3.02642 12.4952 2.52845 12ZM5.3026 18.6974C5.30457 17.9951 5.38145 16.7415 5.82076 15.5129C6.60356 15.7266 7.52241 15.8452 8.34126 15.6587C8.15482 16.4777 8.27341 17.3963 8.4871 18.1792C7.25849 18.6185 6.00488 18.6954 5.3026 18.6974ZM7.51265 14.4621C7.12641 14.4621 6.74901 14.4125 6.38481 14.3265C7.14462 13.044 8.36042 12.3346 9.79906 12.9117C9.43589 13.8191 8.54824 14.4621 7.51265 14.4621ZM9.5379 16.4873C9.5379 15.4517 10.1809 14.5641 11.0883 14.2009C11.6655 15.6411 10.9554 16.8554 9.67351 17.6152C9.58744 17.2509 9.5379 16.8735 9.5379 16.4873ZM12 21.4715C11.5048 20.9735 10.6726 20.0328 10.1145 18.8534C10.8196 18.4507 11.5539 17.8847 12 17.1725C12.4462 17.8848 13.1804 18.4507 13.8855 18.8534C13.3274 20.0329 12.4952 20.9736 12 21.4715ZM14.3265 17.6152C13.0439 16.8554 12.3346 15.6396 12.9117 14.2009C14.338 14.8109 14.694 16.1716 14.3265 17.6152ZM14.2009 12.9117C15.641 12.3345 16.8554 13.0446 17.6152 14.3265C16.1712 14.6944 14.81 14.3368 14.2009 12.9117ZM15.5129 18.1792C15.7266 17.3964 15.8452 16.4775 15.6587 15.6587C16.4777 15.8452 17.3963 15.7266 18.1793 15.5129C18.6186 16.7415 18.6954 17.9951 18.6974 18.6974C17.9951 18.6954 16.7415 18.6185 15.5129 18.1792ZM18.8535 13.8855C18.4508 13.1804 17.8847 12.4461 17.1725 12C17.8848 11.5538 18.4507 10.8196 18.8535 10.1145C20.0329 10.6726 20.9736 11.5048 21.4716 12C20.9736 12.4952 20.0329 13.3274 18.8535 13.8855Z" fill="#313131"/>
</svg>
