<svg width="24" height="24" viewBox="0 0 24 24" fill="none" xmlns="http://www.w3.org/2000/svg">
<path d="M21.7521 15.5852L18.1983 12.8362C17.9504 12.6696 17.5372 12.6696 17.2892 12.9195L17.0413 13.1694L16.2975 12.503L15.3058 4.5057C15.1405 3.50604 14.314 2.8396 13.3223 2.8396C12.8264 2.8396 12.4132 3.00621 12 3.33943C11.6694 3.00621 11.1735 2.8396 10.6776 2.8396C9.76855 2.7563 8.85946 3.50604 8.77682 4.5057L7.78508 12.503L7.04127 13.1694L6.71069 12.8362C6.46276 12.5863 6.13218 12.5863 5.8016 12.7529L2.24787 15.5019C2.08258 15.5852 1.99994 15.7518 1.99994 16.0018C1.99994 16.1684 2.08258 16.335 2.16523 16.5016L6.29747 20.9167C6.38012 21.0834 6.62805 21.1667 6.79334 21.1667C6.95863 21.1667 7.12392 21.0834 7.28921 21.0001L10.595 17.6679C10.8429 17.4179 10.8429 17.0014 10.595 16.7515L10.4297 16.5849L12 15.0021L13.5702 16.5849L13.4049 16.7515C13.157 17.0014 13.157 17.4179 13.4049 17.6679L16.7107 21.0001C16.7934 21.1667 17.0413 21.1667 17.2066 21.1667C17.3719 21.1667 17.5372 21.0834 17.7025 20.9167L21.8347 16.5016C22 16.335 22 16.1684 22 16.0018C22 15.9185 21.9173 15.6685 21.7521 15.5852ZM20.3471 16.1684L17.2066 19.5839L14.8925 17.168L17.7851 14.1691L20.3471 16.1684ZM12.6611 4.75561C12.6611 4.42239 12.9091 4.08917 13.3223 4.08917C13.6529 4.08917 13.9008 4.33909 13.9834 4.67231L15.0578 12.9195C15.0578 13.0861 15.1405 13.2527 15.3058 13.336L16.2149 14.0858L14.6446 15.6685L12.8264 13.9191C12.7438 13.8358 12.6611 13.6692 12.6611 13.5026V4.75561ZM9.1074 17.2513L6.79334 19.6672L3.65284 16.1684L6.21483 14.2524L9.1074 17.2513ZM11.3388 4.75561V13.5859C11.3388 13.7525 11.2562 13.9191 11.1735 14.0024L9.43797 15.7518L7.86772 14.0858L8.77682 13.336C8.94211 13.2527 9.02475 13.0861 9.02475 12.9195L10.0991 4.67231C10.1818 4.33909 10.4297 4.08917 10.7603 4.08917C11.0909 4.08917 11.3388 4.42239 11.3388 4.75561Z" fill="#313131"/>
</svg>
