<svg width="24" height="24" viewBox="0 0 24 24" fill="none" xmlns="http://www.w3.org/2000/svg">
<g clip-path="url(#clip0_76_142)">
<path d="M12.9992 17.2637C12.9992 17.8155 12.5519 18.2629 12 18.2629C11.4481 18.2629 11.0008 17.8155 11.0008 17.2637C11.0008 16.7118 11.4481 16.2645 12 16.2645C12.5519 16.2645 12.9992 16.7118 12.9992 17.2637Z" fill="#313131" stroke="#313131" stroke-width="0.15"/>
<path d="M12 0.925C5.87919 0.925 0.925 5.87837 0.925 12C0.925 18.1208 5.87837 23.075 12 23.075C18.1208 23.075 23.075 18.1216 23.075 12C23.075 5.87919 18.1216 0.925 12 0.925ZM12 21.2062C6.91194 21.2062 2.79375 17.0887 2.79375 12C2.79375 6.91194 6.91126 2.79375 12 2.79375C17.0881 2.79375 21.2062 6.91126 21.2062 12C21.2062 17.0881 17.0887 21.2062 12 21.2062Z" fill="#313131" stroke="#313131" stroke-width="0.15"/>
<path d="M12.8406 13.2151L12.7844 13.2296V13.2877V14.6855C12.7844 15.1188 12.4332 15.4699 12 15.4699C11.5668 15.4699 11.2156 15.1188 11.2156 14.6855V12.5371C11.2156 12.1039 11.5668 11.7527 12 11.7527C12.9891 11.7527 13.7937 10.9481 13.7937 9.95898C13.7937 8.96984 12.9891 8.16523 12 8.16523C11.0109 8.16523 10.2062 8.96984 10.2062 9.95898C10.2062 10.3922 9.85509 10.7434 9.42188 10.7434C8.98866 10.7434 8.6375 10.3922 8.6375 9.95898C8.6375 8.10497 10.146 6.59648 12 6.59648C13.854 6.59648 15.3625 8.10497 15.3625 9.95898C15.3625 11.5227 14.2893 12.8409 12.8406 13.2151Z" fill="#313131" stroke="#313131" stroke-width="0.15"/>
</g>
<defs>
<clipPath id="clip0_76_142">
<rect width="24" height="24" fill="white"/>
</clipPath>
</defs>
</svg>
