<svg width="24" height="24" viewBox="0 0 24 24" fill="none" xmlns="http://www.w3.org/2000/svg">
<path d="M17.2742 2.13749L2.13732 17.2744C2.13732 17.2744 2.13732 17.2744 2.13732 17.2744C2.01747 17.3942 1.95021 17.5566 1.95021 17.726C1.95021 17.8954 2.01747 18.0578 2.13733 18.1776L5.82286 21.8631C5.94757 21.9878 6.11112 22.0502 6.27447 22.0502C6.4378 22.0502 6.6014 21.9879 6.72608 21.8631L21.863 6.72624C21.9828 6.60649 22.0501 6.44405 22.0501 6.27464V6.27461C22.05 6.10525 21.9827 5.94281 21.8629 5.82304L18.1774 2.13749C17.9281 1.88808 17.5236 1.88809 17.2742 2.13749ZM6.27443 20.5083L3.49212 17.726L4.47323 16.7449L5.29189 17.5636C5.4166 17.6883 5.58014 17.7507 5.74349 17.7507C5.90684 17.7507 6.07042 17.6883 6.1951 17.5636C6.4445 17.3142 6.4445 16.9098 6.1951 16.6604L5.37644 15.8417L6.36794 14.8502L7.18664 15.6689C7.31135 15.7936 7.4749 15.856 7.63824 15.856C7.80157 15.856 7.96516 15.7936 8.08984 15.6689C8.33925 15.4195 8.33925 15.0151 8.08984 14.7657L7.27114 13.947L8.26265 12.9555L9.08135 13.7742C9.20605 13.8989 9.3696 13.9613 9.53295 13.9613C9.69628 13.9613 9.85987 13.899 9.98455 13.7742C10.234 13.5248 10.234 13.1204 9.98455 12.871L9.16585 12.0523L10.1574 11.0608L10.9761 11.8795C11.1008 12.0042 11.2643 12.0666 11.4277 12.0666C11.591 12.0666 11.7546 12.0043 11.8793 11.8795C12.1287 11.6301 12.1287 11.2257 11.8793 10.9763L11.0606 10.1576L12.0521 9.16611L12.8707 9.9848C12.9954 10.1095 13.159 10.1719 13.3223 10.1719C13.4857 10.1719 13.6492 10.1095 13.7739 9.98484C14.0233 9.73544 14.0233 9.33105 13.7739 9.08164L12.9553 8.26294L13.9468 7.27144L14.7655 8.09014C14.8902 8.21485 15.0537 8.2772 15.2171 8.2772C15.3804 8.2772 15.544 8.21486 15.6687 8.0901C15.9181 7.84069 15.9181 7.4363 15.6687 7.1869L14.85 6.36824L15.8415 5.37673L16.6602 6.19539C16.7849 6.3201 16.9484 6.38249 17.1118 6.38249C17.2751 6.38249 17.4387 6.32015 17.5634 6.19539C17.8128 5.94598 17.8128 5.54159 17.5634 5.29219L16.7447 4.47353L17.7258 3.49241L20.5082 6.27468L6.27443 20.5083Z" fill="#313131" stroke="#313131" stroke-width="0.1"/>
</svg>
