<svg width="24" height="24" viewBox="0 0 24 24" fill="none" xmlns="http://www.w3.org/2000/svg">
<mask id="path-1-inside-1_127_73" fill="white">
<path d="M21.6094 16.3594L20.0156 15.4387C20.304 15.1417 20.6348 14.889 20.9972 14.6887C21.2341 14.5552 21.4087 14.3334 21.4829 14.0718C21.5571 13.8101 21.5249 13.5297 21.3933 13.2917C21.2618 13.0536 21.0415 12.8772 20.7805 12.8007C20.5195 12.7243 20.2389 12.7541 19.9997 12.8836C19.3078 13.2666 18.6946 13.7771 18.1927 14.3883L14.0625 12L18.1917 9.61594C18.6935 10.2272 19.3067 10.7378 19.9988 11.1206C20.1174 11.1875 20.2481 11.2302 20.3833 11.2463C20.5185 11.2624 20.6555 11.2516 20.7865 11.2144C20.9176 11.1773 21.0399 11.1146 21.1465 11.0299C21.2532 10.9452 21.342 10.8403 21.4078 10.7211C21.4737 10.6019 21.5153 10.4709 21.5302 10.3355C21.5452 10.2002 21.5332 10.0632 21.4949 9.93252C21.4567 9.80184 21.3929 9.68003 21.3073 9.57412C21.2217 9.46821 21.116 9.38031 20.9963 9.31547C20.6339 9.11513 20.3032 8.86241 20.0147 8.56547L21.6084 7.64484C21.7304 7.57967 21.8379 7.49064 21.9247 7.38307C22.0116 7.27549 22.0759 7.15156 22.1138 7.01864C22.1518 6.88572 22.1626 6.74652 22.1457 6.60932C22.1288 6.47212 22.0845 6.33972 22.0154 6.21999C21.9463 6.10025 21.8539 5.99563 21.7435 5.91235C21.6332 5.82906 21.5073 5.76881 21.3732 5.73516C21.2391 5.70152 21.0996 5.69518 20.963 5.71652C20.8265 5.73786 20.6956 5.78644 20.5781 5.85938L18.9844 6.77953C18.8709 6.38106 18.8169 5.96801 18.8241 5.55375C18.8271 5.41808 18.8032 5.28316 18.754 5.15672C18.7047 5.03028 18.631 4.9148 18.537 4.81691C18.443 4.71901 18.3307 4.64063 18.2063 4.58625C18.082 4.53187 17.9482 4.50256 17.8125 4.5H17.7933C17.5231 4.49995 17.2637 4.60596 17.0708 4.79522C16.8779 4.98448 16.7671 5.24187 16.762 5.51203C16.7475 6.30229 16.8827 7.08815 17.1605 7.82812L13.0313 10.2136V5.44594C13.8114 5.317 14.5601 5.04135 15.2377 4.63359C15.4719 4.49243 15.6406 4.26398 15.7064 3.9985C15.7722 3.73301 15.7299 3.45225 15.5888 3.21797C15.4476 2.98369 15.2191 2.81508 14.9537 2.74924C14.6882 2.68339 14.4074 2.72571 14.1731 2.86687C13.818 3.08033 13.4332 3.24003 13.0313 3.34078V1.78125C13.0313 1.50775 12.9226 1.24544 12.7292 1.05205C12.5358 0.858649 12.2735 0.75 12 0.75C11.7265 0.75 11.4642 0.858649 11.2708 1.05205C11.0774 1.24544 10.9688 1.50775 10.9688 1.78125V3.34078C10.5668 3.24003 10.182 3.08033 9.82689 2.86687C9.5926 2.72571 9.31184 2.68339 9.04636 2.74924C8.78088 2.81508 8.55243 2.98369 8.41126 3.21797C8.27009 3.45225 8.22778 3.73301 8.29362 3.9985C8.35946 4.26398 8.52807 4.49243 8.76235 4.63359C9.43989 5.04135 10.1886 5.317 10.9688 5.44594V10.2136L6.83954 7.82812C7.11775 7.08792 7.25326 6.30172 7.23892 5.51109C7.23388 5.24093 7.12301 4.98354 6.93016 4.79428C6.73731 4.60502 6.47787 4.49902 6.20767 4.49906H6.18751C6.05208 4.50156 5.91846 4.53072 5.7943 4.58487C5.67014 4.63902 5.55786 4.7171 5.46388 4.81465C5.3699 4.9122 5.29606 5.02731 5.24658 5.1534C5.19709 5.27949 5.17293 5.4141 5.17548 5.54953C5.18304 5.96439 5.12917 6.37809 5.01564 6.77719L3.42189 5.85938C3.30452 5.78937 3.17442 5.74338 3.03913 5.7241C2.90384 5.70481 2.76606 5.71261 2.63381 5.74703C2.50156 5.78145 2.37747 5.84182 2.26875 5.92462C2.16004 6.00742 2.06886 6.111 2.00053 6.22935C1.93219 6.34769 1.88806 6.47844 1.87069 6.61399C1.85333 6.74954 1.86308 6.88719 1.89938 7.01894C1.93568 7.15068 1.9978 7.27391 2.08213 7.38144C2.16647 7.48897 2.27133 7.57866 2.39064 7.64531L3.98439 8.56594C3.69589 8.86288 3.36514 9.1156 3.00282 9.31594C2.88308 9.38077 2.77737 9.46868 2.69178 9.57459C2.60619 9.6805 2.54243 9.80231 2.50416 9.93299C2.4659 10.0637 2.45389 10.2006 2.46884 10.336C2.48378 10.4713 2.52539 10.6024 2.59125 10.7215C2.6571 10.8407 2.74591 10.9457 2.85255 11.0304C2.95918 11.115 3.08153 11.1778 3.21253 11.2149C3.34354 11.2521 3.4806 11.2629 3.61581 11.2468C3.75102 11.2307 3.88171 11.188 4.00032 11.1211C4.69226 10.7381 5.30541 10.2276 5.80735 9.61641L9.93751 12L5.80829 14.3841C5.30634 13.7729 4.6932 13.2624 4.00126 12.8794C3.88265 12.8125 3.75196 12.7698 3.61675 12.7537C3.48154 12.7376 3.34448 12.7484 3.21347 12.7856C3.08247 12.8227 2.96012 12.8854 2.85348 12.9701C2.74685 13.0548 2.65804 13.1597 2.59218 13.2789C2.52632 13.3981 2.48472 13.5291 2.46978 13.6645C2.45483 13.7998 2.46683 13.9368 2.5051 14.0675C2.54336 14.1982 2.60713 14.32 2.69272 14.4259C2.77831 14.5318 2.88402 14.6197 3.00376 14.6845C3.36607 14.8849 3.69683 15.1376 3.98532 15.4345L2.39064 16.3594C2.27133 16.426 2.16647 16.5157 2.08213 16.6233C1.9978 16.7308 1.93568 16.854 1.89938 16.9858C1.86308 17.1175 1.85333 17.2551 1.87069 17.3907C1.88806 17.5262 1.93219 17.657 2.00053 17.7753C2.06886 17.8937 2.16004 17.9973 2.26875 18.0801C2.37747 18.1629 2.50156 18.2232 2.63381 18.2577C2.76606 18.2921 2.90384 18.2999 3.03913 18.2806C3.17442 18.2613 3.30452 18.2153 3.42189 18.1453L5.01564 17.2252C5.12915 17.6236 5.18317 18.0367 5.17595 18.4509C5.17118 18.7241 5.27503 18.9881 5.46469 19.1847C5.65435 19.3814 5.91432 19.4948 6.18751 19.5H6.20673C6.47694 19.5 6.73637 19.394 6.92922 19.2048C7.12208 19.0155 7.23294 18.7581 7.23798 18.488C7.2525 17.6977 7.11731 16.9118 6.83954 16.1719L10.9688 13.7864V18.5541C10.1886 18.683 9.43989 18.9587 8.76235 19.3664C8.52807 19.5076 8.35946 19.736 8.29362 20.0015C8.22778 20.267 8.27009 20.5478 8.41126 20.782C8.55243 21.0163 8.78088 21.1849 9.04636 21.2508C9.31184 21.3166 9.5926 21.2743 9.82689 21.1331C10.182 20.9197 10.5668 20.76 10.9688 20.6592V22.2188C10.9688 22.4923 11.0774 22.7546 11.2708 22.948C11.4642 23.1413 11.7265 23.25 12 23.25C12.2735 23.25 12.5358 23.1413 12.7292 22.948C12.9226 22.7546 13.0313 22.4923 13.0313 22.2188V20.6592C13.4332 20.76 13.818 20.9197 14.1731 21.1331C14.4074 21.2743 14.6882 21.3166 14.9537 21.2508C15.2191 21.1849 15.4476 21.0163 15.5888 20.782C15.7299 20.5478 15.7722 20.267 15.7064 20.0015C15.6406 19.736 15.4719 19.5076 15.2377 19.3664C14.5601 18.9587 13.8114 18.683 13.0313 18.5541V13.7864L17.1605 16.1719C16.8823 16.9121 16.7468 17.6983 16.7611 18.4889C16.7661 18.7591 16.877 19.0165 17.0699 19.2057C17.2627 19.395 17.5221 19.501 17.7924 19.5009H17.8125C17.9479 19.4984 18.0816 19.4693 18.2057 19.4151C18.3299 19.361 18.4422 19.2829 18.5361 19.1854C18.6301 19.0878 18.704 18.9727 18.7534 18.8466C18.8029 18.7205 18.8271 18.5859 18.8245 18.4505C18.817 18.0356 18.8708 17.6219 18.9844 17.2228L20.5781 18.143C20.6955 18.2183 20.8269 18.2691 20.9645 18.2922C21.102 18.3153 21.2428 18.3103 21.3783 18.2774C21.5139 18.2446 21.6413 18.1845 21.753 18.101C21.8647 18.0175 21.9583 17.9121 22.0281 17.7914C22.0979 17.6707 22.1425 17.537 22.1592 17.3985C22.1759 17.2601 22.1643 17.1197 22.1251 16.9858C22.086 16.8519 22.0201 16.7274 21.9315 16.6197C21.8428 16.5121 21.7332 16.4235 21.6094 16.3594Z"/>
</mask>
<path d="M21.6094 16.3594L20.0156 15.4387C20.304 15.1417 20.6348 14.889 20.9972 14.6887C21.2341 14.5552 21.4087 14.3334 21.4829 14.0718C21.5571 13.8101 21.5249 13.5297 21.3933 13.2917C21.2618 13.0536 21.0415 12.8772 20.7805 12.8007C20.5195 12.7243 20.2389 12.7541 19.9997 12.8836C19.3078 13.2666 18.6946 13.7771 18.1927 14.3883L14.0625 12L18.1917 9.61594C18.6935 10.2272 19.3067 10.7378 19.9988 11.1206C20.1174 11.1875 20.2481 11.2302 20.3833 11.2463C20.5185 11.2624 20.6555 11.2516 20.7865 11.2144C20.9176 11.1773 21.0399 11.1146 21.1465 11.0299C21.2532 10.9452 21.342 10.8403 21.4078 10.7211C21.4737 10.6019 21.5153 10.4709 21.5302 10.3355C21.5452 10.2002 21.5332 10.0632 21.4949 9.93252C21.4567 9.80184 21.3929 9.68003 21.3073 9.57412C21.2217 9.46821 21.116 9.38031 20.9963 9.31547C20.6339 9.11513 20.3032 8.86241 20.0147 8.56547L21.6084 7.64484C21.7304 7.57967 21.8379 7.49064 21.9247 7.38307C22.0116 7.27549 22.0759 7.15156 22.1138 7.01864C22.1518 6.88572 22.1626 6.74652 22.1457 6.60932C22.1288 6.47212 22.0845 6.33972 22.0154 6.21999C21.9463 6.10025 21.8539 5.99563 21.7435 5.91235C21.6332 5.82906 21.5073 5.76881 21.3732 5.73516C21.2391 5.70152 21.0996 5.69518 20.963 5.71652C20.8265 5.73786 20.6956 5.78644 20.5781 5.85938L18.9844 6.77953C18.8709 6.38106 18.8169 5.96801 18.8241 5.55375C18.8271 5.41808 18.8032 5.28316 18.754 5.15672C18.7047 5.03028 18.631 4.9148 18.537 4.81691C18.443 4.71901 18.3307 4.64063 18.2063 4.58625C18.082 4.53187 17.9482 4.50256 17.8125 4.5H17.7933C17.5231 4.49995 17.2637 4.60596 17.0708 4.79522C16.8779 4.98448 16.7671 5.24187 16.762 5.51203C16.7475 6.30229 16.8827 7.08815 17.1605 7.82812L13.0313 10.2136V5.44594C13.8114 5.317 14.5601 5.04135 15.2377 4.63359C15.4719 4.49243 15.6406 4.26398 15.7064 3.9985C15.7722 3.73301 15.7299 3.45225 15.5888 3.21797C15.4476 2.98369 15.2191 2.81508 14.9537 2.74924C14.6882 2.68339 14.4074 2.72571 14.1731 2.86687C13.818 3.08033 13.4332 3.24003 13.0313 3.34078V1.78125C13.0313 1.50775 12.9226 1.24544 12.7292 1.05205C12.5358 0.858649 12.2735 0.75 12 0.75C11.7265 0.75 11.4642 0.858649 11.2708 1.05205C11.0774 1.24544 10.9688 1.50775 10.9688 1.78125V3.34078C10.5668 3.24003 10.182 3.08033 9.82689 2.86687C9.5926 2.72571 9.31184 2.68339 9.04636 2.74924C8.78088 2.81508 8.55243 2.98369 8.41126 3.21797C8.27009 3.45225 8.22778 3.73301 8.29362 3.9985C8.35946 4.26398 8.52807 4.49243 8.76235 4.63359C9.43989 5.04135 10.1886 5.317 10.9688 5.44594V10.2136L6.83954 7.82812C7.11775 7.08792 7.25326 6.30172 7.23892 5.51109C7.23388 5.24093 7.12301 4.98354 6.93016 4.79428C6.73731 4.60502 6.47787 4.49902 6.20767 4.49906H6.18751C6.05208 4.50156 5.91846 4.53072 5.7943 4.58487C5.67014 4.63902 5.55786 4.7171 5.46388 4.81465C5.3699 4.9122 5.29606 5.02731 5.24658 5.1534C5.19709 5.27949 5.17293 5.4141 5.17548 5.54953C5.18304 5.96439 5.12917 6.37809 5.01564 6.77719L3.42189 5.85938C3.30452 5.78937 3.17442 5.74338 3.03913 5.7241C2.90384 5.70481 2.76606 5.71261 2.63381 5.74703C2.50156 5.78145 2.37747 5.84182 2.26875 5.92462C2.16004 6.00742 2.06886 6.111 2.00053 6.22935C1.93219 6.34769 1.88806 6.47844 1.87069 6.61399C1.85333 6.74954 1.86308 6.88719 1.89938 7.01894C1.93568 7.15068 1.9978 7.27391 2.08213 7.38144C2.16647 7.48897 2.27133 7.57866 2.39064 7.64531L3.98439 8.56594C3.69589 8.86288 3.36514 9.1156 3.00282 9.31594C2.88308 9.38077 2.77737 9.46868 2.69178 9.57459C2.60619 9.6805 2.54243 9.80231 2.50416 9.93299C2.4659 10.0637 2.45389 10.2006 2.46884 10.336C2.48378 10.4713 2.52539 10.6024 2.59125 10.7215C2.6571 10.8407 2.74591 10.9457 2.85255 11.0304C2.95918 11.115 3.08153 11.1778 3.21253 11.2149C3.34354 11.2521 3.4806 11.2629 3.61581 11.2468C3.75102 11.2307 3.88171 11.188 4.00032 11.1211C4.69226 10.7381 5.30541 10.2276 5.80735 9.61641L9.93751 12L5.80829 14.3841C5.30634 13.7729 4.6932 13.2624 4.00126 12.8794C3.88265 12.8125 3.75196 12.7698 3.61675 12.7537C3.48154 12.7376 3.34448 12.7484 3.21347 12.7856C3.08247 12.8227 2.96012 12.8854 2.85348 12.9701C2.74685 13.0548 2.65804 13.1597 2.59218 13.2789C2.52632 13.3981 2.48472 13.5291 2.46978 13.6645C2.45483 13.7998 2.46683 13.9368 2.5051 14.0675C2.54336 14.1982 2.60713 14.32 2.69272 14.4259C2.77831 14.5318 2.88402 14.6197 3.00376 14.6845C3.36607 14.8849 3.69683 15.1376 3.98532 15.4345L2.39064 16.3594C2.27133 16.426 2.16647 16.5157 2.08213 16.6233C1.9978 16.7308 1.93568 16.854 1.89938 16.9858C1.86308 17.1175 1.85333 17.2551 1.87069 17.3907C1.88806 17.5262 1.93219 17.657 2.00053 17.7753C2.06886 17.8937 2.16004 17.9973 2.26875 18.0801C2.37747 18.1629 2.50156 18.2232 2.63381 18.2577C2.76606 18.2921 2.90384 18.2999 3.03913 18.2806C3.17442 18.2613 3.30452 18.2153 3.42189 18.1453L5.01564 17.2252C5.12915 17.6236 5.18317 18.0367 5.17595 18.4509C5.17118 18.7241 5.27503 18.9881 5.46469 19.1847C5.65435 19.3814 5.91432 19.4948 6.18751 19.5H6.20673C6.47694 19.5 6.73637 19.394 6.92922 19.2048C7.12208 19.0155 7.23294 18.7581 7.23798 18.488C7.2525 17.6977 7.11731 16.9118 6.83954 16.1719L10.9688 13.7864V18.5541C10.1886 18.683 9.43989 18.9587 8.76235 19.3664C8.52807 19.5076 8.35946 19.736 8.29362 20.0015C8.22778 20.267 8.27009 20.5478 8.41126 20.782C8.55243 21.0163 8.78088 21.1849 9.04636 21.2508C9.31184 21.3166 9.5926 21.2743 9.82689 21.1331C10.182 20.9197 10.5668 20.76 10.9688 20.6592V22.2188C10.9688 22.4923 11.0774 22.7546 11.2708 22.948C11.4642 23.1413 11.7265 23.25 12 23.25C12.2735 23.25 12.5358 23.1413 12.7292 22.948C12.9226 22.7546 13.0313 22.4923 13.0313 22.2188V20.6592C13.4332 20.76 13.818 20.9197 14.1731 21.1331C14.4074 21.2743 14.6882 21.3166 14.9537 21.2508C15.2191 21.1849 15.4476 21.0163 15.5888 20.782C15.7299 20.5478 15.7722 20.267 15.7064 20.0015C15.6406 19.736 15.4719 19.5076 15.2377 19.3664C14.5601 18.9587 13.8114 18.683 13.0313 18.5541V13.7864L17.1605 16.1719C16.8823 16.9121 16.7468 17.6983 16.7611 18.4889C16.7661 18.7591 16.877 19.0165 17.0699 19.2057C17.2627 19.395 17.5221 19.501 17.7924 19.5009H17.8125C17.9479 19.4984 18.0816 19.4693 18.2057 19.4151C18.3299 19.361 18.4422 19.2829 18.5361 19.1854C18.6301 19.0878 18.704 18.9727 18.7534 18.8466C18.8029 18.7205 18.8271 18.5859 18.8245 18.4505C18.817 18.0356 18.8708 17.6219 18.9844 17.2228L20.5781 18.143C20.6955 18.2183 20.8269 18.2691 20.9645 18.2922C21.102 18.3153 21.2428 18.3103 21.3783 18.2774C21.5139 18.2446 21.6413 18.1845 21.753 18.101C21.8647 18.0175 21.9583 17.9121 22.0281 17.7914C22.0979 17.6707 22.1425 17.537 22.1592 17.3985C22.1759 17.2601 22.1643 17.1197 22.1251 16.9858C22.086 16.8519 22.0201 16.7274 21.9315 16.6197C21.8428 16.5121 21.7332 16.4235 21.6094 16.3594Z" fill="#303131" stroke="#303131" stroke-width="5" mask="url(#path-1-inside-1_127_73)"/>
</svg>
