<svg width="24" height="24" viewBox="0 0 24 24" fill="none" xmlns="http://www.w3.org/2000/svg">
<path d="M17.7143 13.4286C16.2966 13.4286 15.0473 14.1284 14.2667 15.192L10.3664 13.2414C10.4872 12.8458 10.5714 12.4345 10.5714 12C10.5714 11.5654 10.4872 11.1541 10.3664 10.7585L14.2667 8.80791C15.0473 9.87157 16.2966 10.5714 17.7143 10.5714C20.0776 10.5714 22 8.64894 22 6.28568C22 3.92241 20.0776 2 17.7143 2C15.351 2 13.4286 3.92245 13.4286 6.28572C13.4286 6.72027 13.5129 7.13156 13.6337 7.52709L9.73322 9.47779C8.95265 8.41412 7.70335 7.7143 6.28568 7.7143C3.92241 7.7143 2 9.63671 2 12C2 14.3633 3.92241 16.2857 6.28572 16.2857C7.7034 16.2857 8.95269 15.5859 9.73326 14.5223L13.6336 16.4729C13.5128 16.8684 13.4286 17.2797 13.4286 17.7143C13.4286 20.0776 15.351 22 17.7143 22C20.0776 22 22 20.0776 22 17.7143C22 15.3511 20.0776 13.4286 17.7143 13.4286ZM17.7143 3.42859C19.2901 3.42859 20.5714 4.71069 20.5714 6.28572C20.5714 7.86079 19.29 9.14285 17.7143 9.14285C16.1385 9.14285 14.8572 7.86075 14.8572 6.28572C14.8572 4.71069 16.1385 3.42859 17.7143 3.42859ZM6.28572 14.8572C4.70994 14.8572 3.42859 13.575 3.42859 12C3.42859 10.425 4.70998 9.14289 6.28572 9.14289C7.86149 9.14289 9.14285 10.425 9.14285 12C9.14285 13.575 7.86149 14.8572 6.28572 14.8572ZM17.7143 20.5714C16.1385 20.5714 14.8572 19.2893 14.8572 17.7143C14.8572 16.1393 16.1385 14.8572 17.7143 14.8572C19.2901 14.8572 20.5714 16.1393 20.5714 17.7143C20.5714 19.2894 19.2901 20.5714 17.7143 20.5714Z" fill="#313131"/>
</svg>
