<svg width="24" height="24" viewBox="0 0 24 24" fill="none" xmlns="http://www.w3.org/2000/svg">
<path d="M17.5774 14.7859L16.9559 9.72494L22.0185 7.70578L12.0001 3.71005L1.98174 7.70578L7.04433 9.72494L6.42288 14.7859H11.4134V16.4069C10.7304 16.6491 10.2399 17.3013 10.2399 18.0662V21H13.7604V18.0662C13.7604 17.3013 13.2698 16.6491 12.5869 16.4069V14.7859H17.5774ZM12.5869 19.8265H11.4134V18.0662C11.4134 17.7427 11.6766 17.4795 12.0001 17.4795C12.3237 17.4795 12.5869 17.7427 12.5869 18.0662V19.8265ZM16.251 13.6124H12.5869V11.4675L15.8288 10.1745L16.251 13.6124ZM12.0001 4.97344L18.8508 7.70578L12.5869 10.2041V7.70578H11.4134V10.2041L5.1494 7.70578L12.0001 4.97344ZM7.74929 13.6124L8.17143 10.1745L11.4133 11.4675V13.6124H7.74929Z" fill="#313131"/>
</svg>
