<svg width="24" height="24" viewBox="0 0 24 24" fill="none" xmlns="http://www.w3.org/2000/svg">
<path d="M13.2636 15.774H18.2677C18.2632 18.5341 16.0163 20.7782 13.2552 20.7782C10.4357 20.7782 8.24266 18.48 8.24266 15.7657V13.2636H9.48126V16.3933C9.48126 17.4361 10.3296 18.2844 11.3724 18.2844C12.4152 18.2844 13.2636 17.4361 13.2636 16.3933V15.774ZM18.9036 11.9917H12.6276C12.2764 11.9917 11.9916 12.2764 11.9916 12.6276V16.3933C11.9916 16.7347 11.7138 17.0125 11.3724 17.0125C11.031 17.0125 10.7531 16.7347 10.7531 16.3933V10.1172C10.7531 8.38226 9.34168 6.97085 7.60673 6.97085H5.09637C4.74517 6.97085 4.46044 7.25558 4.46044 7.60679C4.46044 7.958 4.74517 8.24273 5.09637 8.24273C6.12993 8.24273 6.97087 9.08366 6.97087 10.1172V15.7657C6.97087 19.2413 9.78429 22.05 13.2553 22.05C16.7206 22.05 19.5397 19.2309 19.5397 15.7657V12.6276C19.5396 12.2764 19.2549 11.9917 18.9036 11.9917ZM8.2427 10.1172C8.2427 9.41555 8.01175 8.76665 7.622 8.24279C8.64857 8.251 9.48126 9.08874 9.48126 10.1172V11.9917H8.2427V10.1172ZM18.2677 14.5021H13.2635V13.2635H18.2677V14.5021Z" fill="#313131" stroke="#313131" stroke-width="0.1"/>
<path d="M13.8829 8.2427H15.1381C15.4762 8.2427 15.7574 8.51467 15.7574 8.86195V10.1172C15.7574 10.4684 16.0421 10.7531 16.3933 10.7531C16.7445 10.7531 17.0292 10.4684 17.0292 10.1172V8.86199C17.0292 7.79332 16.1584 6.97086 15.1381 6.97086H13.8829C13.5442 6.97086 13.2636 6.69821 13.2636 6.3516C13.2636 6.0102 13.5415 5.73234 13.8829 5.73234H17.6485C18.6714 5.73234 19.5397 4.90792 19.5397 3.84059C19.5396 2.79804 18.6913 1.95 17.6485 1.95C17.2973 1.95 17.0126 2.23473 17.0126 2.58594C17.0126 2.93715 17.2973 3.22187 17.6485 3.22187C17.9899 3.22187 18.2678 3.49947 18.2678 3.84113C18.2678 4.18866 17.9863 4.46039 17.6485 4.46039H13.8829C12.8401 4.46039 11.9917 5.30871 11.9917 6.35152C11.9917 7.41809 12.8603 8.2427 13.8829 8.2427Z" fill="#313131" stroke="#313131" stroke-width="0.1"/>
</svg>
