<svg width="24" height="24" viewBox="0 0 24 24" fill="none" xmlns="http://www.w3.org/2000/svg">
<path d="M20.6143 6.34283H3.3857C2.67673 6.34283 2.09998 6.91962 2.09998 7.62856V19.7143C2.09998 20.4232 2.67673 21 3.3857 21H20.6143C21.3232 21 21.9 20.4232 21.9 19.7143V7.62856C21.9 6.91962 21.3233 6.34283 20.6143 6.34283ZM20.3572 19.4571H3.64283V7.88569H20.3572V19.4571Z" fill="#313131"/>
<path d="M21.1287 10.7143H2.87148V12.2571H21.1287V10.7143Z" fill="#313131"/>
<path d="M14.4429 3.00006H9.81432C8.82172 3.00006 8.01433 3.80749 8.01433 4.80005V7.11433H9.55719V4.80005C9.55719 4.66067 9.67494 4.54292 9.81432 4.54292H14.4429C14.5823 4.54292 14.7 4.66067 14.7 4.80005V7.11433H16.2429V4.80005C16.2429 3.80749 15.4352 3.00006 14.4429 3.00006Z" fill="#313131"/>
</svg>
