<svg width="24" height="24" viewBox="0 0 24 24" fill="none" xmlns="http://www.w3.org/2000/svg">
<path d="M3.75781 1.9L20.2422 1.9C21.2667 1.9 22.1 2.73335 22.1 3.75781L22.1 20.2422C22.1 21.2667 21.2667 22.1 20.2422 22.1L3.75781 22.1C2.73334 22.1 1.9 21.2667 1.9 20.2422L1.9 3.75781C1.9 2.73334 2.73335 1.9 3.75781 1.9ZM3.27187 20.2422C3.27187 20.51 3.49001 20.7281 3.75781 20.7281L20.2422 20.7281C20.51 20.7281 20.7281 20.51 20.7281 20.2422L20.7281 3.75781C20.7281 3.49001 20.51 3.27187 20.2422 3.27187L3.75781 3.27187C3.49001 3.27187 3.27188 3.49001 3.27188 3.75781L3.27187 20.2422Z" fill="#313131" stroke="#313131" stroke-width="0.2"/>
<path d="M5.17174 6.34965L5.17169 6.34969C5.02631 6.46723 4.93177 6.64069 4.90674 6.83067M5.17174 6.34965L5.00589 6.84373M5.17174 6.34965C7.15561 4.74774 9.51714 3.9 12 3.9C14.4828 3.9 16.8443 4.74774 18.8282 6.34965L18.8282 6.34969C18.9736 6.46722 19.0681 6.64049 19.0933 6.83059L19.0933 6.83068C19.1183 7.02067 19.0725 7.21444 18.9644 7.36952L18.9644 7.36956L15.8678 11.8051L15.8678 11.8051C15.734 11.9966 15.5276 12.0999 15.3164 12.0999C15.1712 12.0999 15.0255 12.0511 14.902 11.9514L14.902 11.9514C14.0574 11.2695 13.0543 10.9098 12 10.9098C10.9458 10.9098 9.94252 11.2695 9.0979 11.9514L5.17174 6.34965ZM4.90674 6.83067L5.00589 6.84373M4.90674 6.83067C4.90675 6.83064 4.90675 6.83061 4.90675 6.83059L5.00589 6.84373M4.90674 6.83067C4.88157 7.02068 4.92738 7.21447 5.03571 7.36955M5.00589 6.84373C4.98389 7.00968 5.02406 7.17827 5.11771 7.31231M5.03571 7.36955L5.11771 7.31231M5.03571 7.36955L5.03573 7.36958M5.03571 7.36955L5.03573 7.36958M5.11771 7.31231L5.03573 7.36958M5.11771 7.31231L5.03573 7.36958M8.13228 11.805L8.21428 11.7478L8.13229 11.8051C8.13229 11.805 8.13228 11.805 8.13228 11.805ZM8.84317 10.3717C9.60064 9.88963 10.4375 9.5902 11.3134 9.4873L11.3134 7.65195C11.3134 7.25496 11.6139 6.92037 12 6.92037C12.386 6.92037 12.6866 7.25496 12.6866 7.65195L12.6866 9.4873C13.5624 9.5902 14.3993 9.88963 15.1567 10.3717L17.4428 7.0972C15.8207 5.96019 13.9528 5.36315 12 5.36315C10.0471 5.36315 8.17922 5.96019 6.55715 7.0972L8.84317 10.3717Z" fill="#313131" stroke="#313131" stroke-width="0.2"/>
</svg>
