<svg width="64" height="62" viewBox="0 0 64 62" fill="none" xmlns="http://www.w3.org/2000/svg">
<g filter="url(#filter0_d_772_40431)">
<path d="M30.105 8.61625C30.7171 6.80214 33.2829 6.80215 33.895 8.61625L37.5371 19.41C37.8088 20.2153 38.5597 20.7609 39.4096 20.7705L50.8005 20.8988C52.715 20.9204 53.5079 23.3606 51.9717 24.5034L42.8316 31.3026C42.1498 31.8099 41.8629 32.6927 42.1164 33.5039L45.5144 44.3769C46.0855 46.2044 44.0097 47.7125 42.4482 46.6047L33.1573 40.013C32.4641 39.5213 31.5359 39.5213 30.8427 40.0131L21.5518 46.6047C19.9903 47.7125 17.9145 46.2044 18.4856 44.3769L21.8836 33.5038C22.1371 32.6927 21.8502 31.8098 21.1684 31.3026L12.0283 24.5034C10.4921 23.3606 11.285 20.9204 13.1995 20.8988L24.5904 20.7705C25.4403 20.7609 26.1912 20.2153 26.4629 19.41L30.105 8.61625Z" fill="#FFCA41"/>
<path d="M30.105 8.61625C30.7171 6.80214 33.2829 6.80215 33.895 8.61625L37.5371 19.41C37.8088 20.2153 38.5597 20.7609 39.4096 20.7705L50.8005 20.8988C52.715 20.9204 53.5079 23.3606 51.9717 24.5034L42.8316 31.3026C42.1498 31.8099 41.8629 32.6927 42.1164 33.5039L45.5144 44.3769C46.0855 46.2044 44.0097 47.7125 42.4482 46.6047L33.1573 40.013C32.4641 39.5213 31.5359 39.5213 30.8427 40.0131L21.5518 46.6047C19.9903 47.7125 17.9145 46.2044 18.4856 44.3769L21.8836 33.5038C22.1371 32.6927 21.8502 31.8098 21.1684 31.3026L12.0283 24.5034C10.4921 23.3606 11.285 20.9204 13.1995 20.8988L24.5904 20.7705C25.4403 20.7609 26.1912 20.2153 26.4629 19.41L30.105 8.61625Z" stroke="#FFCA41"/>
</g>
<defs>
<filter id="filter0_d_772_40431" x="0.717285" y="0.755676" width="62.5654" height="60.7286" filterUnits="userSpaceOnUse" color-interpolation-filters="sRGB">
<feFlood flood-opacity="0" result="BackgroundImageFix"/>
<feColorMatrix in="SourceAlpha" type="matrix" values="0 0 0 0 0 0 0 0 0 0 0 0 0 0 0 0 0 0 127 0" result="hardAlpha"/>
<feOffset dy="4"/>
<feGaussianBlur stdDeviation="5"/>
<feComposite in2="hardAlpha" operator="out"/>
<feColorMatrix type="matrix" values="0 0 0 0 1 0 0 0 0 0.701961 0 0 0 0 0.254902 0 0 0 0.4 0"/>
<feBlend mode="normal" in2="BackgroundImageFix" result="effect1_dropShadow_772_40431"/>
<feBlend mode="normal" in="SourceGraphic" in2="effect1_dropShadow_772_40431" result="shape"/>
</filter>
</defs>
</svg>
