<svg width="24" height="24" viewBox="0 0 24 24" fill="none" xmlns="http://www.w3.org/2000/svg">
<path d="M18.3 12H21M18.3 12C18.3011 12.8275 18.1387 13.6471 17.8221 14.4116C17.5055 15.1762 17.0409 15.8706 16.455 16.455M18.3 12C18.3011 11.1725 18.1387 10.3529 17.8221 9.58837C17.5055 8.82383 17.0409 8.1294 16.455 7.545M12 18.3V21M12 18.3C12.8275 18.3011 13.6471 18.1387 14.4116 17.8221C15.1762 17.5055 15.8706 17.0409 16.455 16.455M12 18.3C11.1725 18.3011 10.3529 18.1387 9.58837 17.8221C8.82383 17.5055 8.1294 17.0409 7.545 16.455M5.7 12C5.7 10.3291 6.36375 8.72671 7.54523 7.54523C8.72671 6.36375 10.3291 5.7 12 5.7M5.7 12H3M5.7 12C5.7 13.7397 6.4056 15.3147 7.545 16.455M12 5.7V3M12 5.7C13.7397 5.7 15.3147 6.4056 16.455 7.545M12 3H13.8M12 3H10.2M12 21H13.8M12 21H10.2M21 12V10.2M21 12V13.8M3 12V10.2M3 12V13.8M18.75 5.25L17.4 3.9M18.75 5.25L20.1 6.6M18.75 5.25L16.455 7.545M5.25 5.25L6.6 3.9M5.25 5.25L3.9 6.6M5.25 5.25L7.5 7.5M5.25 18.75L6.6 20.1M5.25 18.75L3.9 17.4M5.25 18.75L7.545 16.455M18.75 18.75L17.4 20.1M18.75 18.75L20.1 17.4M18.75 18.75L16.455 16.455M13.8 13.8H13.8009" stroke="#313131" stroke-width="1.5" stroke-linecap="round" stroke-linejoin="round"/>
<path d="M10.65 12C11.3956 12 12 11.3956 12 10.65C12 9.90441 11.3956 9.3 10.65 9.3C9.9044 9.3 9.29999 9.90441 9.29999 10.65C9.29999 11.3956 9.9044 12 10.65 12Z" stroke="#313131" stroke-width="1.5" stroke-linecap="round" stroke-linejoin="round"/>
</svg>
