<svg width="24" height="24" viewBox="0 0 24 24" fill="none" xmlns="http://www.w3.org/2000/svg">
<path fill-rule="evenodd" clip-rule="evenodd" d="M5.11612 19.6118C4.62797 19.1236 4.62797 18.3322 5.11612 17.844L17.844 5.1161C18.3322 4.62795 19.1237 4.62794 19.6118 5.1161C20.1 5.60426 20.1 6.39571 19.6118 6.88387L6.88389 19.6118C6.39573 20.0999 5.60428 20.0999 5.11612 19.6118Z" fill="#313131"/>
<path fill-rule="evenodd" clip-rule="evenodd" d="M5.11612 5.11612C5.60427 4.62797 6.39573 4.62797 6.88388 5.11612L19.6118 17.844C20.1 18.3322 20.1 19.1237 19.6118 19.6118C19.1236 20.1 18.3322 20.1 17.844 19.6118L5.11612 6.88389C4.62796 6.39573 4.62796 5.60428 5.11612 5.11612Z" fill="#313131"/>
</svg>
