<svg width="24" height="24" viewBox="0 0 24 24" fill="none" xmlns="http://www.w3.org/2000/svg">
<path fill-rule="evenodd" clip-rule="evenodd" d="M4 3C4 2.44772 4.44772 2 5 2H18.865C19.245 2.00014 19.6175 2.10856 19.9382 2.31254C20.2588 2.51653 20.5147 2.80765 20.6759 3.15181C20.837 3.49597 20.8968 3.87892 20.8482 4.25583C20.7996 4.63275 20.6446 4.988 20.4014 5.28L17.3017 9L20.4012 12.7198C20.6445 13.0119 20.7996 13.3673 20.8482 13.7442C20.8968 14.1211 20.837 14.504 20.6759 14.8482C20.5147 15.1923 20.2588 15.4835 19.9382 15.6875C19.6175 15.8914 19.2454 15.9999 18.8654 16H6V21C6 21.5523 5.55228 22 5 22C4.44772 22 4 21.5523 4 21V3ZM6 14H18.8646L15.2317 9.64015C14.9228 9.26932 14.9228 8.73068 15.2317 8.35985L18.8646 4L6 4V14Z" fill="#313131"/>
</svg>
