<svg width="24" height="24" viewBox="0 0 24 24" fill="none" xmlns="http://www.w3.org/2000/svg">
<path d="M7 9.5H7.5V9V7C7.5 4.51914 9.51914 2.5 12 2.5C14.4809 2.5 16.5 4.51914 16.5 7V9V9.5H17H18C18.8269 9.5 19.5 10.1731 19.5 11V20C19.5 20.8269 18.8269 21.5 18 21.5H6C5.17314 21.5 4.5 20.8269 4.5 20V11C4.5 10.1731 5.17314 9.5 6 9.5H7ZM15 9.5H15.5V9V7C15.5 5.06986 13.9301 3.5 12 3.5C10.0699 3.5 8.5 5.06986 8.5 7V9V9.5H9H15ZM18.002 20.5H18.5021L18.502 19.9999L18.5 10.9999L18.4999 10.5H18H6H5.5V11V20V20.5H6H11H11.5V20V17.722V17.4348L11.2519 17.2901C10.8002 17.0266 10.5 16.5465 10.5 16C10.5 15.1731 11.1731 14.5 12 14.5C12.8269 14.5 13.5 15.1731 13.5 16C13.5 16.5473 13.2 17.0266 12.7481 17.2901L12.5 17.4348V17.722V20V20.5H13H18.002Z" fill="#313131" stroke="#313131"/>
</svg>
