<svg width="24" height="24" viewBox="0 0 24 24" fill="none" xmlns="http://www.w3.org/2000/svg">
<path d="M14.9688 2C11.0855 2 7.9375 5.14797 7.9375 9.03125C7.9375 12.2654 10.1239 14.9823 13.0971 15.8027C13.1649 15.5085 13.2109 15.2054 13.2109 14.8906C13.2109 14.5639 13.1657 14.2485 13.0928 13.944C11.1116 13.1846 9.69531 11.2764 9.69531 9.03125C9.69531 6.12332 12.0608 3.75781 14.9688 3.75781C17.8767 3.75781 20.2422 6.12332 20.2422 9.03125C20.2422 11.1307 19.0004 12.9325 17.2204 13.7805C17.2702 14.1451 17.3125 14.5125 17.3125 14.8906C17.3125 15.1588 17.2725 15.4162 17.2472 15.6778C20.0107 14.7303 22 12.1159 22 9.03125C22 5.14797 18.852 2 14.9688 2Z" fill="#313131"/>
<path d="M10.9058 8.19806C10.8353 8.49138 10.7891 8.79407 10.7891 9.10942C10.7891 9.43606 10.8362 9.75165 10.9113 10.0573C12.8904 10.8177 14.3047 12.7251 14.3047 14.9688C14.3047 17.8767 11.9392 20.2422 9.03125 20.2422C6.12332 20.2422 3.75781 17.8767 3.75781 14.9688C3.75781 12.8738 4.99484 11.0756 6.76883 10.2254C6.71797 9.85896 6.6875 9.487 6.6875 9.10942C6.6875 8.84298 6.71988 8.58513 6.74492 8.32521C3.9857 9.27493 2 11.887 2 14.9688C2 18.8521 5.14797 22 9.03125 22C12.9145 22 16.0625 18.8521 16.0625 14.9688C16.0625 11.7357 13.8776 9.01939 10.9058 8.19806Z" fill="#313131"/>
</svg>
