<svg width="24" height="24" viewBox="0 0 24 24" fill="none" xmlns="http://www.w3.org/2000/svg">
<path d="M4.2825 19.2811L3 18.0122L6.69 14.2963C7.155 13.828 7.4736 13.2426 7.6458 12.5399C7.8186 11.8378 7.905 10.7617 7.905 9.31157C7.905 8.43547 8.1 7.57447 8.49 6.72857C8.88 5.88268 9.435 5.0972 10.155 4.37215C11.52 2.99757 13.0275 2.21965 14.6775 2.03839C16.3275 1.85712 17.685 2.31783 18.75 3.42052C19.83 4.5081 20.28 5.88268 20.1 7.54426C19.92 9.20584 19.155 10.7164 17.805 12.0758C17.085 12.8009 16.305 13.3598 15.465 13.7525C14.625 14.1453 13.77 14.3416 12.9 14.3416C11.445 14.3416 10.38 14.4247 9.705 14.5909C9.03 14.757 8.4525 15.0818 7.9725 15.5652L4.2825 19.2811ZM10.47 11.7133C11.175 12.4082 12.1275 12.6649 13.3275 12.4837C14.5275 12.3024 15.6 11.736 16.545 10.7843C17.505 9.8176 18.0789 8.73365 18.2667 7.53247C18.4539 6.33191 18.195 5.39176 17.49 4.71202C16.77 3.98697 15.8289 3.71507 14.6667 3.89633C13.5039 4.0776 12.435 4.6516 11.46 5.61833C10.515 6.56997 9.9414 7.64637 9.7392 8.84754C9.5364 10.0481 9.78 11.0034 10.47 11.7133ZM17.4 22C16.41 22 15.5625 21.645 14.8575 20.9351C14.1525 20.2251 13.8 19.3717 13.8 18.3747C13.8 17.3778 14.1525 16.5243 14.8575 15.8144C15.5625 15.1044 16.41 14.7495 17.4 14.7495C18.39 14.7495 19.2375 15.1044 19.9425 15.8144C20.6475 16.5243 21 17.3778 21 18.3747C21 19.3717 20.6475 20.2251 19.9425 20.9351C19.2375 21.645 18.39 22 17.4 22ZM17.4 20.1874C17.895 20.1874 18.3189 20.01 18.6717 19.6554C19.0239 19.3001 19.2 18.8732 19.2 18.3747C19.2 17.8763 19.0239 17.4494 18.6717 17.0941C18.3189 16.7394 17.895 16.5621 17.4 16.5621C16.905 16.5621 16.4811 16.7394 16.1283 17.0941C15.7761 17.4494 15.6 17.8763 15.6 18.3747C15.6 18.8732 15.7761 19.3001 16.1283 19.6554C16.4811 20.01 16.905 20.1874 17.4 20.1874Z" fill="#313131"/>
</svg>
