<svg width="26" height="24" viewBox="0 0 26 24" fill="none" xmlns="http://www.w3.org/2000/svg">
<path d="M11.2823 13.4079H11.3823V13.3079C11.3823 11.9751 10.2982 10.891 8.96541 10.891C7.63262 10.891 6.54844 11.9751 6.54844 13.3079V13.4079H6.64844H8.05468H8.15468V13.3079C8.15468 12.861 8.51848 12.4972 8.96541 12.4972C9.41234 12.4972 9.7761 12.861 9.7761 13.3079V13.4079H9.8761H11.2823Z" fill="#303131" stroke="#303131" stroke-width="0.2"/>
<path d="M14.6178 13.3078V13.4078H14.7178H16.124H16.224V13.3078C16.224 12.8608 16.5878 12.4971 17.0347 12.4971C17.4816 12.4971 17.8454 12.8609 17.8454 13.3078V13.4078H17.9454H19.3517H19.4517V13.3078C19.4517 11.975 18.3675 10.8908 17.0347 10.8908C15.7019 10.8908 14.6178 11.975 14.6178 13.3078Z" fill="#303131" stroke="#303131" stroke-width="0.2"/>
<path d="M10.9105 16.1274L10.8597 16.0413L10.7736 16.0921L9.56246 16.8067L9.47634 16.8576L9.52716 16.9437C10.2497 18.1682 11.5802 18.9288 13 18.9288C14.4198 18.9288 15.7502 18.1682 16.4728 16.9437L16.5236 16.8576L16.4375 16.8067L15.2264 16.0921L15.1403 16.0413L15.0894 16.1274C14.6545 16.8646 13.8535 17.3226 13 17.3226C12.1465 17.3226 11.3456 16.8646 10.9105 16.1274Z" fill="#303131" stroke="#303131" stroke-width="0.2"/>
<path d="M23.0907 11.8117L23.0199 11.8823C23.3257 12.1884 23.4938 12.5945 23.4938 13.0267C23.4938 13.9013 22.7821 14.6268 21.9084 14.6433L21.3807 14.6533L21.3057 14.6547L21.2861 14.7271L21.1483 15.2366L21.2449 15.2627L21.1483 15.2366C20.1563 18.9049 16.8055 21.4672 13 21.4672C9.19437 21.4672 5.84365 18.9049 4.85168 15.2366L4.75514 15.2627L4.85167 15.2366L4.71389 14.7271L4.69429 14.6547L4.61925 14.6533L4.09158 14.6433C3.21783 14.6267 2.5062 13.9012 2.5062 13.0266C2.5062 12.5944 2.67435 12.1883 2.97949 11.8828C3.27707 11.5856 3.67178 11.4178 4.09141 11.4099L4.61919 11.4L4.69424 11.3986L4.71384 11.3261L4.85163 10.8166C5.84365 7.14832 9.19442 4.58602 13 4.58602C14.2157 4.58602 15.2049 5.57521 15.2049 6.7909C15.2049 8.0066 14.2157 8.99583 13 8.99583C11.7843 8.99583 10.7951 8.00664 10.7951 6.79095V6.69095H10.6951H9.28887H9.18887V6.79095C9.18887 8.89251 10.8984 10.6021 13 10.6021C15.1016 10.6021 16.8111 8.89251 16.8111 6.79095C16.8111 6.28641 16.7123 5.80453 16.5333 5.36334C18.7514 6.38803 20.482 8.35278 21.1483 10.8166L21.2861 11.3262L21.3057 11.3986L21.3808 11.4L21.9085 11.41C22.3283 11.4178 22.723 11.5857 23.02 11.8824L23.0907 11.8117ZM23.0907 11.8117C22.7754 11.4967 22.356 11.3183 21.9104 11.31L21.3826 11.3001V14.7533L21.9103 14.7432C22.8386 14.7257 23.5938 13.9557 23.5938 13.0267C23.5938 12.5679 23.4151 12.1365 23.0907 11.8117ZM24.1558 10.7466L24.1557 10.7466C23.708 10.2993 23.1489 9.99871 22.5413 9.87173C21.1929 5.78705 17.3456 2.97973 13 2.97973H12.5286C11.4517 2.97973 10.5755 2.10343 10.5755 1.02661V0.926611H10.4755H9.06922H8.96922V1.02661C8.96922 1.7474 9.1849 2.41871 9.55462 2.97973H9.30092C8.22406 2.97973 7.34781 2.10343 7.34781 1.02661V0.926611H7.24781H5.84156H5.74156V1.02661C5.74156 2.52161 6.66809 3.80297 7.97632 4.32937C5.88458 5.53876 4.24587 7.48734 3.45879 9.87173C2.85108 9.99872 2.2919 10.2995 1.8438 10.7471L1.84373 10.7472C1.23529 11.3562 0.9 12.1661 0.9 13.0266C0.9 13.8766 1.22807 14.679 1.82355 15.2852C2.27467 15.7445 2.84115 16.0526 3.4588 16.1815C4.80708 20.2662 8.65438 23.0735 13 23.0735C17.3456 23.0735 21.1929 20.2662 22.5412 16.1815C23.1588 16.0526 23.7253 15.7445 24.1765 15.2852C24.7719 14.679 25.1 13.8766 25.1 13.0266C25.1 12.166 24.7647 11.3562 24.1558 10.7466Z" fill="#303131" stroke="#303131" stroke-width="0.2"/>
</svg>
