<svg width="24" height="26" viewBox="0 0 24 26" fill="none" xmlns="http://www.w3.org/2000/svg">
<path d="M10.0632 5.47614L10.1365 5.45584V5.37977V1V0.9H10.0365H8.63098H8.53098V1V4.23372L5.00628 5.20956C3.17715 5.71596 1.9 7.39547 1.9 9.29425V25V25.1H2H3.40549H3.50549V25V9.29425C3.50549 8.11531 4.29892 7.072 5.43445 6.75761L10.0632 5.47614Z" fill="#303131" stroke="#303131" stroke-width="0.2"/>
<path d="M6.86804 10.4097V10.3097H6.76804H5.36255H5.26255V10.4097V12.1701V12.1783L5.26388 12.1864L6.44646 19.3601L5.26704 23.1608L5.26255 23.1753V23.1905V24.9999V25.0999H5.36255H6.76804H6.86804V24.9999V23.4189L8.0853 19.4962L8.09231 19.4736L8.08846 19.4503L6.86804 12.0467V10.4097Z" fill="#303131" stroke="#303131" stroke-width="0.2"/>
<path d="M15.4691 1V0.9H15.3691H13.9636H13.8636V1V5.37977V5.45584L13.9369 5.47614L18.5657 6.75761C19.7012 7.072 20.4946 8.11531 20.4946 9.29425V25V25.1H20.5946H22.0001H22.1001V25V9.29425C22.1001 7.39552 20.8229 5.716 18.9938 5.20956L15.4691 4.23372V1Z" fill="#303131" stroke="#303131" stroke-width="0.2"/>
<path d="M18.733 23.1608L17.5536 19.3601L18.7362 12.1864L18.7375 12.1783V12.1701V10.4097V10.3097H18.6375H17.232H17.132V10.4097V12.0467L15.9116 19.4503L15.9077 19.4736L15.9147 19.4962L17.132 23.4189V24.9999V25.0999H17.232H18.6375H18.7375V24.9999V23.1905V23.1753L18.733 23.1608Z" fill="#303131" stroke="#303131" stroke-width="0.2"/>
</svg>
