<svg width="20" height="20" viewBox="0 0 20 20" fill="none" xmlns="http://www.w3.org/2000/svg">
<path d="M18.1295 10.27C17.9495 10.01 17.7295 9.78 17.4895 9.58C17.2495 9.38 16.9695 9.23 16.6795 9.11C16.5695 8.67 16.3995 8.26 16.1695 7.88C15.9395 7.5 15.6495 7.16 15.3095 6.86C14.9595 6.56 14.5795 6.31 14.1595 6.13C13.7395 5.95 13.3095 5.83 12.8495 5.78C12.3895 5.73 11.9395 5.75 11.4895 5.84C11.0395 5.93 10.6195 6.08 10.2095 6.31C9.83947 6.51 9.50947 6.76 9.21947 7.05C8.92947 7.34 8.67947 7.67 8.46947 8.03C8.22947 7.21 8.11947 6.35 8.14947 5.5C8.17947 4.65 8.32947 3.8 8.61947 3C8.63947 2.95 8.65947 2.89 8.65947 2.83C8.65947 2.77 8.65947 2.71 8.65947 2.66C8.65947 2.6 8.63947 2.54 8.61947 2.49C8.59947 2.44 8.56947 2.38 8.53947 2.33C8.50947 2.28 8.46947 2.24 8.42947 2.2C8.38947 2.16 8.33947 2.13 8.28947 2.1C8.23947 2.07 8.18947 2.05 8.12947 2.03C8.06947 2.01 8.00947 2 7.94947 2C7.92947 2 7.90947 2 7.88947 2C7.86947 2 7.84947 2 7.82947 2C6.81947 2.18 5.86947 2.54 5.00947 3.06C4.14947 3.58 3.37947 4.25 2.74947 5.06C2.11947 5.87 1.64947 6.78 1.35947 7.74C1.06947 8.7 0.949469 9.72 1.01947 10.74C1.08947 11.76 1.34947 12.75 1.76947 13.66C2.18947 14.57 2.78947 15.4 3.51947 16.12C4.24947 16.84 5.10947 17.39 6.02947 17.79C6.94947 18.19 7.94947 18.41 8.96947 18.44C8.98947 18.44 9.00947 18.44 9.01947 18.44C9.02947 18.44 9.05947 18.44 9.06947 18.44C9.07947 18.44 9.09947 18.44 9.11947 18.44C9.13947 18.44 9.14947 18.44 9.16947 18.44H9.21947H9.26947C9.88947 18.44 10.5195 18.37 11.1295 18.23C11.7395 18.09 12.3295 17.88 12.8895 17.6C13.4395 17.33 13.9695 16.99 14.4495 16.6C14.9295 16.21 15.3695 15.77 15.7495 15.28C16.1495 15.24 16.5295 15.13 16.8695 14.96C17.2095 14.79 17.5395 14.55 17.8095 14.26C18.0895 13.96 18.2995 13.62 18.4395 13.25C18.5795 12.88 18.6595 12.49 18.6595 12.08C18.6595 11.75 18.6095 11.43 18.5195 11.12C18.4295 10.81 18.2795 10.52 18.0995 10.25L18.1295 10.27ZM6.20947 10.95C6.08947 11.27 6.01947 11.62 5.99947 11.96C5.97947 12.3 6.02947 12.65 6.11947 12.99C6.21947 13.32 6.36947 13.64 6.55947 13.93C6.74947 14.22 6.99947 14.47 7.27947 14.68C7.55947 14.89 7.86947 15.05 8.18947 15.16C8.50947 15.27 8.85947 15.33 9.20947 15.33H13.7595C13.1395 15.87 12.4395 16.29 11.6795 16.57C10.9195 16.85 10.1195 17 9.29947 17.01H9.03947C8.23947 16.98 7.45947 16.81 6.72947 16.52C5.99947 16.23 5.31947 15.81 4.72947 15.28C4.13947 14.75 3.63947 14.12 3.26947 13.43C2.89947 12.74 2.63947 11.98 2.52947 11.19C2.40947 10.4 2.43947 9.6 2.58947 8.83C2.73947 8.06 3.03947 7.31 3.44947 6.63C3.84947 5.97 4.34947 5.4 4.93947 4.91C5.52947 4.42 6.18947 4.04 6.90947 3.78C6.70947 4.73 6.65947 5.7 6.74947 6.65C6.83947 7.6 7.07947 8.54 7.44947 9.44C7.16947 9.62 6.91947 9.85 6.71947 10.11C6.51947 10.37 6.33947 10.66 6.21947 10.97L6.20947 10.95ZM7.76947 11.08C7.88947 10.9 8.04947 10.75 8.22947 10.63C8.40947 10.51 8.60947 10.42 8.81947 10.37L9.05947 10.31L9.29947 10.25L9.33947 10.01L9.37947 9.77C9.42947 9.41 9.54947 9.07 9.71947 8.76C9.88947 8.45 10.1195 8.16 10.3895 7.93C10.6595 7.7 10.9795 7.51 11.3095 7.39C11.6395 7.27 11.9995 7.2 12.3595 7.2C12.7195 7.2 13.0795 7.27 13.4095 7.39C13.7395 7.51 14.0595 7.7 14.3295 7.93C14.5995 8.17 14.8295 8.45 14.9995 8.76C15.1695 9.07 15.2895 9.42 15.3395 9.77L15.3795 10.01L15.4195 10.25L15.6595 10.31L15.8995 10.37C16.1095 10.42 16.3095 10.51 16.4895 10.63C16.6695 10.75 16.8195 10.9 16.9495 11.08C17.0695 11.26 17.1595 11.46 17.2195 11.66C17.2795 11.86 17.2895 12.08 17.2595 12.3C17.2295 12.52 17.1695 12.72 17.0695 12.91C16.9695 13.1 16.8395 13.27 16.6795 13.41C16.5195 13.55 16.3295 13.67 16.1295 13.74C15.9295 13.81 15.7195 13.86 15.4995 13.86H9.23947C9.01947 13.86 8.80947 13.82 8.60947 13.74C8.40947 13.66 8.22947 13.55 8.05947 13.41C7.89947 13.27 7.75947 13.09 7.65947 12.91C7.55947 12.73 7.49947 12.51 7.46947 12.3C7.43947 12.08 7.45947 11.87 7.50947 11.66C7.55947 11.45 7.64947 11.25 7.77947 11.08H7.76947Z" fill="#303131"/>
</svg>
