<svg width="20" height="20" viewBox="0 0 20 20" fill="none" xmlns="http://www.w3.org/2000/svg">
<path d="M6.94453 13.0882H3.42601C2.95942 13.0882 2.51195 12.9023 2.18202 12.5714C1.8521 12.2404 1.66675 11.7916 1.66675 11.3235V4.26471C1.66675 3.79668 1.8521 3.34782 2.18202 3.01687C2.51195 2.68592 2.95942 2.5 3.42601 2.5H15.7408C16.2074 2.5 16.6549 2.68592 16.9848 3.01687C17.3147 3.34782 17.5001 3.79668 17.5001 4.26471V11.3235C17.5001 11.7916 17.3147 12.2404 16.9848 12.5714C16.6549 12.9023 16.2074 13.0882 15.7408 13.0882H11.3427L6.94453 17.5V13.0882Z" stroke="#303131" stroke-width="1.8" stroke-linecap="round" stroke-linejoin="round"/>
</svg>
