<svg width="375" height="280" viewBox="0 0 375 280" fill="none" xmlns="http://www.w3.org/2000/svg">
<path d="M71.2467 27.2045C69.9629 27.2073 68.6804 27.2883 67.406 27.447C63.8673 19.2831 58.0687 12.3415 50.7168 7.46815C43.365 2.59477 34.7772 0 26 0C17.2228 0 8.63504 2.59477 1.28317 7.46815C-6.0687 12.3415 -11.8673 19.2831 -15.406 27.447C-19.6687 26.9133 -23.9936 27.2626 -28.1198 28.474C-32.246 29.6853 -36.0881 31.7336 -39.4143 34.4953C-42.7404 37.2569 -45.4818 40.6747 -47.473 44.5426C-49.4642 48.4104 -50.664 52.6481 -51 57H103C102.36 48.8863 98.7377 41.3151 92.8535 35.7937C86.9693 30.2723 79.2551 27.2057 71.2467 27.2045Z" fill="white"/>
<path d="M352.36 168.409C351.769 168.41 351.177 168.447 350.59 168.52C348.958 164.796 346.285 161.629 342.895 159.407C339.506 157.184 335.547 156 331.5 156C327.453 156 323.494 157.184 320.105 159.407C316.715 161.629 314.042 164.796 312.41 168.52C310.445 168.276 308.451 168.436 306.549 168.988C304.646 169.541 302.875 170.475 301.341 171.735C299.808 172.994 298.544 174.553 297.626 176.318C296.708 178.082 296.155 180.015 296 182H367C366.705 178.299 365.035 174.845 362.322 172.327C359.609 169.808 356.053 168.41 352.36 168.409Z" fill="white"/>
</svg>
