<svg width="24" height="26" viewBox="0 0 24 26" fill="none" xmlns="http://www.w3.org/2000/svg">
<path d="M19.882 13.8107H17.8658V12.2969V12.1969H17.7658H1.83508H1.73508V12.2969V17.0897C1.73508 19.7051 2.99533 22.0311 4.93953 23.4937H1.84066H1.74066V23.5938V25V25.1H1.84066H17.7603H17.8603V25V23.5938V23.4937H17.7603H14.6614C15.2739 23.033 15.8185 22.4866 16.2771 21.8723H17.7703C19.6233 21.8723 21.2314 20.6167 21.6808 18.8192L22.193 16.7705L22.096 16.7463L22.193 16.7705C22.372 16.0541 22.214 15.3089 21.7596 14.7268L21.6807 14.7883L21.7596 14.7268C21.3051 14.1448 20.6204 13.8107 19.882 13.8107ZM9.85554 23.4937H9.74538C6.21425 23.4937 3.34133 20.6208 3.34133 17.0897V13.8031H16.2596V17.0897C16.2596 20.6208 13.3867 23.4937 9.85554 23.4937ZM20.6347 16.381L20.1225 18.4296C19.8521 19.511 18.885 20.2661 17.7703 20.2661H17.2088C17.6313 19.2916 17.8658 18.2175 17.8658 17.0897V15.417H19.882C20.1228 15.417 20.3453 15.5256 20.4935 15.7154L20.5723 15.6538L20.4935 15.7154C20.6417 15.9051 20.693 16.1473 20.6347 16.381Z" fill="#303131" stroke="#303131" stroke-width="0.2"/>
<path d="M7.39146 10.4755V10.5755H7.49146H8.89771H8.99771V10.4755V8.86169C8.99771 8.4147 9.3615 8.05091 9.80849 8.05091H16.2636C19.3763 8.05091 21.9084 5.51876 21.9084 2.40606V1V0.9H21.8084H20.4022H20.3022V1V2.40606C20.3022 4.6329 18.4904 6.44466 16.2636 6.44466H9.80849C8.47563 6.44466 7.39146 7.52883 7.39146 8.86169V10.4755Z" fill="#303131" stroke="#303131" stroke-width="0.2"/>
<path d="M18.6808 1V0.9H18.5808H17.1745H17.0745V1V2.61377C17.0745 3.06076 16.7107 3.42459 16.2637 3.42459H9.80864C6.69594 3.42459 4.16379 5.95674 4.16379 9.06944V10.4755V10.5755H4.26379H5.67004H5.77004V10.4755V9.06939C5.77004 6.84256 7.5818 5.0308 9.80864 5.0308H16.2637C17.5966 5.0308 18.6808 3.94657 18.6808 2.61372V1Z" fill="#303131" stroke="#303131" stroke-width="0.2"/>
</svg>
