<svg width="36" height="36" viewBox="0 0 36 36" fill="none" xmlns="http://www.w3.org/2000/svg">
<path d="M18.2921 11.4895C19.3836 11.4895 20.7518 10.7516 21.5666 9.76773C22.3045 8.87609 22.8425 7.63087 22.8425 6.38565C22.8425 6.21655 22.8271 6.04745 22.7964 5.90909C21.5819 5.95521 20.1215 6.72386 19.2452 7.75386C18.5534 8.53788 17.9231 9.76773 17.9231 11.0283C17.9231 11.2128 17.9539 11.3973 17.9693 11.4588C18.0461 11.4741 18.1691 11.4895 18.2921 11.4895ZM14.4488 30.0909C15.94 30.0909 16.6011 29.0917 18.4612 29.0917C20.3521 29.0917 20.7672 30.0602 22.4274 30.0602C24.057 30.0602 25.1485 28.5536 26.1785 27.0778C27.3315 25.3868 27.808 23.7265 27.8388 23.6496C27.7312 23.6189 24.6104 22.3429 24.6104 18.761C24.6104 15.6556 27.0701 14.2567 27.2085 14.149C25.5789 11.8123 23.1039 11.7508 22.4274 11.7508C20.5981 11.7508 19.1069 12.8577 18.1691 12.8577C17.1545 12.8577 15.817 11.8123 14.2336 11.8123C11.2205 11.8123 8.16125 14.3028 8.16125 19.0069C8.16125 21.9278 9.29886 25.0178 10.6978 27.0163C11.8969 28.7073 12.9423 30.0909 14.4488 30.0909Z" fill="white"/>
</svg>
