<svg width="24" height="24" viewBox="0 0 24 24" fill="none" xmlns="http://www.w3.org/2000/svg">
    <path d="M19.4928 14.743H19.4929V4.03573C19.4929 3.74379 19.2562 3.50714 18.9643 3.50714H4.03571C3.74378 3.50714 3.50713 3.74379 3.50713 4.03573V14.893C3.50713 15.1849 3.74378 15.4216 4.03571 15.4216H7.20236L19.4928 14.743ZM19.4928 14.743V14.893C19.4928 15.1849 19.2562 15.4216 18.9642 15.4216H11.274H11.274C11.0692 15.4216 10.8718 15.4975 10.7197 15.6345L19.4928 14.743ZM5.92644 20.2303L5.92643 20.2305C5.87618 20.6853 6.20419 21.0947 6.65903 21.145C6.89392 21.1709 7.12869 21.0953 7.30433 20.9373L11.5922 17.0787H18.9643C20.1714 17.0787 21.15 16.1001 21.15 14.893V4.03573C21.15 2.82858 20.1714 1.85 18.9643 1.85H4.03571C2.82858 1.85 1.85 2.82858 1.85 4.03573V14.893C1.85 16.1001 2.82858 17.0787 4.03571 17.0787H6.27704L5.92644 20.2303Z" fill="#8995A4" stroke="#8995A4" stroke-width="0.3"/>
</svg>
