<svg width="20" height="20" viewBox="0 0 20 20" fill="none" xmlns="http://www.w3.org/2000/svg">
<g clip-path="url(#clip0_1375_19723)">
<path d="M18.1818 14.5455H17.2727V7.27273C17.2727 3.26273 14.01 0 10 0C5.99 0 2.72726 3.26273 2.72726 7.27273V14.5455H1.81816C1.31542 14.5455 0.909058 14.9518 0.909058 15.4546C0.909058 15.9573 1.31542 16.3637 1.81816 16.3637H2.72726H6.36363C6.36363 18.3691 7.99453 20 10 20C12.0055 20 13.6364 18.3691 13.6364 16.3636H17.2727H18.1818C18.6846 16.3636 19.0909 15.9573 19.0909 15.4545C19.0909 14.9518 18.6845 14.5455 18.1818 14.5455ZM10 18.1818C8.99726 18.1818 8.18183 17.3664 8.18183 16.3637H11.8182C11.8182 17.3664 11.0027 18.1818 10 18.1818ZM15.4545 14.5455H13.6364H6.36363H4.54546V7.27273C4.54546 4.26457 6.99183 1.8182 10 1.8182C13.0082 1.8182 15.4545 4.26457 15.4545 7.27273V14.5455Z" fill="white"/>
</g>
<defs>
<clipPath id="clip0_1375_19723">
<rect width="20" height="20" fill="white"/>
</clipPath>
</defs>
</svg>
