<svg xmlns="http://www.w3.org/2000/svg" viewBox="0 0 19 19">
    <defs></defs>
    <g id="Layer_2" data-name="Layer 2">
        <g id="Layer_1-2" data-name="Layer 1">
            <path class="cls-1"
                d="M16.85.15H2.15a2,2,0,0,0-2,2V12.84a2,2,0,0,0,2,2H4.52l-.36,3.27a.67.67,0,0,0,1.11.57l4.26-3.84h7.32a2,2,0,0,0,2-2V2.15A2,2,0,0,0,16.85.15Zm.67,12.69a.67.67,0,0,1-.67.67H9.28a.66.66,0,0,0-.45.17L5.68,16.51l.25-2.26a.67.67,0,0,0-.59-.74H2.15a.67.67,0,0,1-.67-.67V2.15a.67.67,0,0,1,.67-.67h14.7a.67.67,0,0,1,.67.67Z" />
            <path class="cls-1"
                d="M4.82,19H4.73a.78.78,0,0,1-.54-.3.81.81,0,0,1-.18-.6L4.36,15H2.15A2.15,2.15,0,0,1,0,12.84V2.15A2.16,2.16,0,0,1,2.15,0h14.7A2.16,2.16,0,0,1,19,2.15V12.84A2.15,2.15,0,0,1,16.85,15H9.59l-4.22,3.8A.81.81,0,0,1,4.82,19ZM2.15.3A1.85,1.85,0,0,0,.3,2.15V12.84A1.86,1.86,0,0,0,2.15,14.7H4.69l-.38,3.43a.49.49,0,0,0,.11.38.48.48,0,0,0,.35.19.5.5,0,0,0,.4-.13L9.48,14.7h7.37a1.86,1.86,0,0,0,1.85-1.86V2.15A1.85,1.85,0,0,0,16.85.3ZM5.49,16.88l.3-2.65a.57.57,0,0,0-.11-.38.51.51,0,0,0-.35-.19H2.15a.82.82,0,0,1-.81-.82V2.15a.81.81,0,0,1,.81-.81h14.7a.81.81,0,0,1,.81.81V12.84a.82.82,0,0,1-.81.82H9.28a.51.51,0,0,0-.35.13ZM2.15,1.63a.52.52,0,0,0-.52.52V12.84a.52.52,0,0,0,.52.52H5.36a.8.8,0,0,1,.55.3.85.85,0,0,1,.17.6l-.21,1.87,2.86-2.57a.81.81,0,0,1,.55-.21h7.57a.52.52,0,0,0,.52-.52V2.15a.52.52,0,0,0-.52-.52Z" />
        </g>
    </g>
</svg>