<svg width="64" height="64" viewBox="0 0 64 64" fill="none" xmlns="http://www.w3.org/2000/svg">
<g filter="url(#filter0_d_1375_7441)">
<circle cx="32" cy="27" r="22" fill="#F6193D"/>
</g>
<path d="M32 35H41" stroke="white" stroke-width="2" stroke-linecap="round" stroke-linejoin="round"/>
<path d="M36.5 18.5C36.8978 18.1022 37.4374 17.8787 38 17.8787C38.2786 17.8787 38.5544 17.9335 38.8118 18.0401C39.0692 18.1467 39.303 18.303 39.5 18.5C39.697 18.697 39.8532 18.9308 39.9598 19.1882C40.0665 19.4456 40.1213 19.7214 40.1213 20C40.1213 20.2786 40.0665 20.5544 39.9598 20.8118C39.8532 21.0691 39.697 21.303 39.5 21.5L27 34L23 35L24 31L36.5 18.5Z" stroke="white" stroke-width="2" stroke-linecap="round" stroke-linejoin="round"/>
<defs>
<filter id="filter0_d_1375_7441" x="0" y="0" width="64" height="64" filterUnits="userSpaceOnUse" color-interpolation-filters="sRGB">
<feFlood flood-opacity="0" result="BackgroundImageFix"/>
<feColorMatrix in="SourceAlpha" type="matrix" values="0 0 0 0 0 0 0 0 0 0 0 0 0 0 0 0 0 0 127 0" result="hardAlpha"/>
<feOffset dy="5"/>
<feGaussianBlur stdDeviation="5"/>
<feColorMatrix type="matrix" values="0 0 0 0 0.964706 0 0 0 0 0.0980392 0 0 0 0 0.239216 0 0 0 0.3 0"/>
<feBlend mode="normal" in2="BackgroundImageFix" result="effect1_dropShadow_1375_7441"/>
<feBlend mode="normal" in="SourceGraphic" in2="effect1_dropShadow_1375_7441" result="shape"/>
</filter>
</defs>
</svg>
