<svg width="32" height="32" viewBox="0 0 32 32" fill="none" xmlns="http://www.w3.org/2000/svg">
<path fill-rule="evenodd" clip-rule="evenodd" d="M27.232 16.2657C27.232 15.4361 27.1575 14.6384 27.0193 13.8726H16V18.3983H22.2967C22.0255 19.8608 21.2012 21.1 19.962 21.9296V24.8652H23.7433C25.9556 22.8284 27.232 19.8289 27.232 16.2657Z" fill="#4285F4"/>
<path fill-rule="evenodd" clip-rule="evenodd" d="M16 27.6997C19.159 27.6997 21.8074 26.652 23.7433 24.8651L19.962 21.9294C18.9143 22.6314 17.5742 23.0462 16 23.0462C12.9527 23.0462 10.3733 20.9881 9.4533 18.2227H5.54443V21.254C7.46962 25.0778 11.4263 27.6997 16 27.6997Z" fill="#34A853"/>
<path fill-rule="evenodd" clip-rule="evenodd" d="M9.45312 18.223C9.21912 17.521 9.08617 16.7711 9.08617 16C9.08617 15.2288 9.21912 14.479 9.45312 13.777V10.7456H5.54426C4.75185 12.3251 4.2998 14.112 4.2998 16C4.2998 17.8879 4.75185 19.6748 5.54426 21.2543L9.45312 18.223Z" fill="#FBBC05"/>
<path fill-rule="evenodd" clip-rule="evenodd" d="M16 8.95321C17.7178 8.95321 19.26 9.54353 20.4726 10.7029L23.8283 7.34712C21.8021 5.45917 19.1537 4.2998 16 4.2998C11.4263 4.2998 7.46962 6.92167 5.54443 10.7454L9.4533 13.7768C10.3733 11.0114 12.9527 8.95321 16 8.95321Z" fill="#EA4335"/>
</svg>
