<svg width="25" height="24" viewBox="0 0 25 24" fill="none" xmlns="http://www.w3.org/2000/svg">
<g clip-path="url(#clip0_2151_3653)">
<path d="M21.0901 4.60987C20.5794 4.09888 19.9729 3.69352 19.3055 3.41696C18.638 3.14039 17.9226 2.99805 17.2001 2.99805C16.4776 2.99805 15.7622 3.14039 15.0948 3.41696C14.4273 3.69352 13.8209 4.09888 13.3101 4.60987L12.2501 5.66987L11.1901 4.60987C10.1584 3.57818 8.75915 2.99858 7.30012 2.99858C5.84109 2.99858 4.44181 3.57818 3.41012 4.60987C2.37843 5.64156 1.79883 7.04084 1.79883 8.49987C1.79883 9.95891 2.37843 11.3582 3.41012 12.3899L4.47012 13.4499L12.2501 21.2299L20.0301 13.4499L21.0901 12.3899C21.6011 11.8791 22.0065 11.2727 22.283 10.6052C22.5596 9.93777 22.7019 9.22236 22.7019 8.49987C22.7019 7.77738 22.5596 7.06198 22.283 6.39452C22.0065 5.72706 21.6011 5.12063 21.0901 4.60987V4.60987Z" stroke="#8995A4" stroke-width="2" stroke-linecap="round" stroke-linejoin="round"/>
</g>
<defs>
<clipPath id="clip0_2151_3653">
<rect width="24" height="24" fill="white" transform="translate(0.25)"/>
</clipPath>
</defs>
</svg>
