<svg width="24" height="24" viewBox="0 0 24 24" fill="none" xmlns="http://www.w3.org/2000/svg">
<g>
<path d="M20.84 4.61C20.3292 4.099 19.7228 3.69365 19.0554 3.41708C18.3879 3.14052 17.6725 2.99817 16.95 2.99817C16.2275 2.99817 15.5121 3.14052 14.8446 3.41708C14.1772 3.69365 13.5708 4.099 13.06 4.61L12 5.67L10.94 4.61C9.90831 3.57831 8.50903 2.99871 7.05 2.99871C5.59097 2.99871 4.19169 3.57831 3.16 4.61C2.12831 5.64169 1.54871 7.04097 1.54871 8.5C1.54871 9.95903 2.12831 11.3583 3.16 12.39L4.22 13.45L12 21.23L19.78 13.45L20.84 12.39C21.351 11.8792 21.7564 11.2728 22.0329 10.6054C22.3095 9.9379 22.4518 9.22249 22.4518 8.5C22.4518 7.77751 22.3095 7.0621 22.0329 6.39464C21.7564 5.72719 21.351 5.12076 20.84 4.61V4.61Z" stroke="black" stroke-width="2" stroke-linecap="round" stroke-linejoin="round"/>
</g>
<path d="M12.5 21C15.5 17 20.1688 12.8853 21 11.5C24 6.50001 19.8413 5.05225 18.5 3.49999C17.0751 1.851 13.3029 6.0151 11.5 5.49999C9.31956 4.877 7.75027 1.50001 4.00015 4.50001C-1.00001 8.50001 4.44554 12.1848 3.5 12.5L12.5 21Z" fill="#919294"/>
</svg>
