<svg width="25" height="24" viewBox="0 0 25 24" fill="none" xmlns="http://www.w3.org/2000/svg">
<g clip-path="url(#clip0_9103_28666)">
<path d="M16.1302 1H9.36978C7.56982 1 5.79405 1.63259 4.3732 2.8682V1.85938C4.3732 1.38474 3.98846 1 3.51382 1C3.03919 1 2.65445 1.38474 2.65445 1.85938V5.2396C2.65445 5.71423 3.0425 6.09897 3.51382 6.09897H6.89405C7.36868 6.09897 7.75342 5.71423 7.75342 5.2396C7.75342 4.76497 7.36868 4.38022 6.89405 4.38022H5.26841C6.35612 3.33157 7.82441 2.71875 9.36978 2.71875H16.1302C19.3841 2.71875 22.0312 5.36593 22.0312 8.61978V15.3802C22.0312 18.6341 19.3841 21.2812 16.1302 21.2812H9.36978C6.11593 21.2812 3.46875 18.6341 3.46875 15.3802V12C3.46875 11.5254 3.08401 11.1406 2.60938 11.1406C2.13474 11.1406 1.75 11.5254 1.75 12V15.3802C1.75 19.5818 5.16821 23 9.36978 23H16.1302C20.3318 23 23.75 19.5818 23.75 15.3802V8.61978C23.75 4.41821 20.3318 1 16.1302 1Z" fill="black"/>
<path d="M16.1331 9.61885C15.9376 9.42266 15.7056 9.26702 15.4501 9.16084C15.1947 9.05465 14.9209 9 14.6444 9C14.3678 9 14.094 9.05465 13.8386 9.16084C13.5831 9.26702 13.3511 9.42266 13.1556 9.61885L12.7499 10.0258L12.3442 9.61885C11.9494 9.22274 11.4138 9.00021 10.8554 9.00021C10.297 9.00021 9.76152 9.22274 9.36667 9.61885C8.97182 10.015 8.75 10.5522 8.75 11.1124C8.75 11.6726 8.97182 12.2098 9.36667 12.6059L9.77235 13.0129L12.7499 16L15.7274 13.0129L16.1331 12.6059C16.3287 12.4098 16.4838 12.177 16.5897 11.9207C16.6955 11.6645 16.75 11.3898 16.75 11.1124C16.75 10.835 16.6955 10.5603 16.5897 10.3041C16.4838 10.0478 16.3287 9.81495 16.1331 9.61885V9.61885Z" stroke="black" stroke-width="1.5" stroke-linecap="round" stroke-linejoin="round"/>
</g>
<defs>
<clipPath id="clip0_9103_28666">
<rect width="22" height="22" fill="white" transform="translate(1.75 1)"/>
</clipPath>
</defs>
</svg>
