<svg width="24" height="24" viewBox="0 0 24 24" fill="none" xmlns="http://www.w3.org/2000/svg">
<path fill-rule="evenodd" clip-rule="evenodd" d="M22.8504 11.5872C22.7707 11.4916 21.4134 9.88852 19.3896 8.93917C20.1493 6.83684 19.9756 4.74349 19.9644 4.61953C19.9363 4.30943 19.6906 4.06373 19.3805 4.03567C19.2565 4.02446 17.1632 3.85069 15.0609 4.61046C14.1115 2.58664 12.5084 1.2293 12.4129 1.1496C12.1738 0.950135 11.8263 0.950135 11.5872 1.1496C11.4916 1.2293 9.88853 2.58664 8.93918 4.61046C6.83685 3.85069 4.7435 4.02446 4.61954 4.03567C4.30943 4.06373 4.06374 4.30943 4.03568 4.61953C4.02446 4.74349 3.8507 6.8368 4.61047 8.93917C2.58664 9.88852 1.2293 11.4916 1.1496 11.5872C0.950135 11.8262 0.950135 12.1737 1.1496 12.4128C1.22935 12.5084 2.58664 14.1115 4.61047 15.0608C3.8507 17.1632 4.02446 19.2565 4.03568 19.3805C4.06374 19.6906 4.30943 19.9363 4.61954 19.9643C4.7435 19.9755 6.83681 20.1493 8.93918 19.3895C9.88853 21.4134 11.4916 22.7707 11.5872 22.8504C11.8263 23.0499 12.1737 23.0499 12.4129 22.8504C12.5085 22.7707 14.1115 21.4134 15.0609 19.3895C17.1632 20.1493 19.2565 19.9755 19.3805 19.9643C19.6906 19.9363 19.9363 19.6906 19.9644 19.3805C19.9756 19.2565 20.1493 17.1632 19.3896 15.0608C21.4134 14.1115 22.7707 12.5084 22.8504 12.4128C23.0499 12.1737 23.0499 11.8263 22.8504 11.5872ZM18.6974 5.3026C18.6954 6.00488 18.6186 7.25849 18.1793 8.4871C17.3965 8.27341 16.4776 8.15482 15.6588 8.34126C15.8452 7.52228 15.7266 6.60369 15.5129 5.82076C16.7415 5.38145 17.9951 5.30458 18.6974 5.3026ZM16.4874 9.5379C16.8736 9.5379 17.251 9.58744 17.6152 9.67351C16.8554 10.956 15.6396 11.6654 14.201 11.0883C14.5641 10.1809 15.4518 9.5379 16.4874 9.5379ZM14.4621 7.51265C14.4621 8.54824 13.8191 9.43589 12.9117 9.79906C12.3345 8.35892 13.0446 7.14463 14.3265 6.38481C14.4126 6.74906 14.4621 7.12645 14.4621 7.51265ZM12.7362 12C12.7362 12.4059 12.4059 12.7362 12 12.7362C11.0233 12.6957 11.0236 11.3041 12 11.2638C12.4059 11.2638 12.7362 11.5941 12.7362 12ZM12 2.52846C12.4952 3.02647 13.3274 3.96718 13.8855 5.14654C13.1805 5.54924 12.4461 6.11527 12 6.82752C11.5538 6.11518 10.8197 5.54933 10.1145 5.14654C10.6726 3.96714 11.5048 3.02642 12 2.52846ZM9.67352 6.38481C10.9561 7.14463 11.6654 8.36043 11.0883 9.79906C9.662 9.18908 9.30601 7.82843 9.67352 6.38481ZM9.79907 11.0883C8.35898 11.6655 7.14464 10.9554 6.38482 9.67351C7.82887 9.30556 9.19003 9.66315 9.79907 11.0883ZM8.48711 5.82076C8.27342 6.60357 8.15483 7.52241 8.34127 8.34126C7.52229 8.15482 6.6037 8.27341 5.82077 8.4871C5.38146 7.25849 5.30459 6.00493 5.30261 5.3026C6.00489 5.30458 7.2585 5.38145 8.48711 5.82076ZM2.52846 12C3.02647 11.5048 3.96718 10.6726 5.14655 10.1145C5.54925 10.8196 6.11528 11.5539 6.82753 12C6.11519 12.4462 5.54934 13.1804 5.14655 13.8855C3.96714 13.3274 3.02643 12.4952 2.52846 12ZM5.30261 18.6974C5.30459 17.9951 5.38146 16.7415 5.82077 15.5129C6.60357 15.7266 7.52242 15.8452 8.34127 15.6587C8.15483 16.4777 8.27342 17.3963 8.48711 18.1792C7.2585 18.6186 6.00489 18.6954 5.30261 18.6974ZM7.51266 14.4621C7.12642 14.4621 6.74902 14.4126 6.38482 14.3265C7.14464 13.044 8.36044 12.3346 9.79907 12.9117C9.4359 13.8191 8.54825 14.4621 7.51266 14.4621ZM9.53791 16.4873C9.53791 15.4518 10.1809 14.5641 11.0883 14.2009C11.6655 15.6411 10.9554 16.8554 9.67352 17.6152C9.58745 17.2509 9.53791 16.8736 9.53791 16.4873ZM12 21.4715C11.5048 20.9735 10.6726 20.0328 10.1145 18.8535C10.8196 18.4508 11.5539 17.8847 12 17.1725C12.4462 17.8848 13.1804 18.4507 13.8855 18.8535C13.3274 20.0329 12.4952 20.9736 12 21.4715ZM14.3265 17.6152C13.0439 16.8554 12.3346 15.6396 12.9117 14.2009C14.338 14.8109 14.694 16.1716 14.3265 17.6152ZM14.201 12.9117C15.6411 12.3345 16.8554 13.0446 17.6152 14.3265C16.1712 14.6944 14.81 14.3369 14.201 12.9117ZM15.5129 18.1792C15.7266 17.3964 15.8452 16.4775 15.6588 15.6587C16.4777 15.8452 17.3963 15.7266 18.1793 15.5129C18.6186 16.7415 18.6954 17.9951 18.6974 18.6974C17.9951 18.6954 16.7415 18.6186 15.5129 18.1792ZM18.8535 13.8855C18.4508 13.1804 17.8848 12.4461 17.1725 12C17.8848 11.5538 18.4507 10.8197 18.8535 10.1145C20.0329 10.6726 20.9736 11.5048 21.4716 12C20.9736 12.4952 20.0329 13.3274 18.8535 13.8855Z" fill="#303131"/>
</svg>
