<svg width="20" height="20" viewBox="0 0 20 20" fill="none" xmlns="http://www.w3.org/2000/svg">
<g clip-path="url(#clip0_7182_3309)">
<path d="M10 18.7499L9.35834 19.5169C9.7297 19.8276 10.2703 19.8276 10.6417 19.5169L10 18.7499ZM16.5 8.33325C16.5 9.09668 16.1422 10.0757 15.4709 11.1935C14.8131 12.2886 13.9213 13.4082 13.0062 14.4265C12.0946 15.4408 11.1799 16.3327 10.4914 16.972C10.1478 17.2911 9.86208 17.5459 9.66331 17.72C9.56396 17.8071 9.48644 17.8739 9.43437 17.9184C9.40834 17.9406 9.38868 17.9573 9.37586 17.9682C9.36945 17.9736 9.36474 17.9776 9.3618 17.98C9.36033 17.9813 9.3593 17.9821 9.35872 17.9826C9.35843 17.9829 9.35825 17.983 9.35819 17.9831C9.35816 17.9831 9.35819 17.9831 9.35818 17.9831C9.35824 17.983 9.35834 17.9829 10 18.7499C10.6417 19.5169 10.6418 19.5168 10.642 19.5166C10.6421 19.5165 10.6423 19.5164 10.6425 19.5162C10.6429 19.5159 10.6434 19.5155 10.644 19.5149C10.6452 19.5139 10.6469 19.5125 10.6491 19.5107C10.6533 19.5071 10.6594 19.502 10.6672 19.4954C10.6827 19.4823 10.7052 19.4632 10.7341 19.4385C10.7919 19.3891 10.8755 19.317 10.9812 19.2244C11.1926 19.0392 11.4928 18.7714 11.8524 18.4376C12.5701 17.771 13.5304 16.8353 14.4938 15.7633C15.4537 14.6951 16.4369 13.4695 17.1854 12.2232C17.9203 10.9995 18.5 9.64089 18.5 8.33325H16.5ZM10 18.7499C10.6417 17.9829 10.6418 17.983 10.6418 17.9831C10.6418 17.9831 10.6418 17.9831 10.6418 17.9831C10.6417 17.983 10.6416 17.9829 10.6413 17.9826C10.6407 17.9821 10.6397 17.9813 10.6382 17.98C10.6353 17.9776 10.6306 17.9736 10.6241 17.9682C10.6113 17.9573 10.5917 17.9406 10.5656 17.9184C10.5136 17.8739 10.436 17.8071 10.3367 17.72C10.1379 17.5459 9.85221 17.2911 9.50861 16.972C8.82014 16.3327 7.90538 15.4408 6.99378 14.4265C6.07871 13.4082 5.18685 12.2886 4.52915 11.1935C3.85784 10.0757 3.5 9.09668 3.5 8.33325H1.5C1.5 9.64089 2.07966 10.9995 2.8146 12.2232C3.56315 13.4695 4.54629 14.6951 5.50622 15.7633C6.46962 16.8353 7.42986 17.771 8.14764 18.4376C8.50716 18.7714 8.80739 19.0392 9.01878 19.2244C9.12451 19.317 9.20812 19.3891 9.26591 19.4385C9.29482 19.4632 9.31727 19.4823 9.33283 19.4954C9.34061 19.502 9.34666 19.5071 9.35093 19.5107C9.35306 19.5125 9.35475 19.5139 9.35599 19.5149C9.35661 19.5155 9.35711 19.5159 9.35751 19.5162C9.3577 19.5164 9.35791 19.5165 9.35801 19.5166C9.35819 19.5168 9.35834 19.5169 10 18.7499ZM3.5 8.33325C3.5 4.7434 6.41015 1.83325 10 1.83325V-0.166748C5.30558 -0.166748 1.5 3.63883 1.5 8.33325H3.5ZM10 1.83325C13.5899 1.83325 16.5 4.7434 16.5 8.33325H18.5C18.5 3.63883 14.6944 -0.166748 10 -0.166748V1.83325Z" fill="white"/>
<ellipse cx="9.99996" cy="8.33333" rx="3.33333" ry="3.33333" stroke="white" stroke-width="2"/>
</g>
<defs>
<clipPath id="clip0_7182_3309">
<rect width="20" height="20" fill="white"/>
</clipPath>
</defs>
</svg>
