<svg width="21" height="20" viewBox="0 0 21 20" fill="none" xmlns="http://www.w3.org/2000/svg">
    <path d="M10.4999 7.5C11.163 7.5 11.7988 7.76339 12.2677 8.23223C12.7365 8.70107 12.9999 9.33696 12.9999 10C12.9999 10.663 12.7365 11.2989 12.2677 11.7678C11.7988 12.2366 11.163 12.5 10.4999 12.5C9.83688 12.5 9.20099 12.2366 8.73215 11.7678C8.26331 11.2989 7.99992 10.663 7.99992 10C7.99992 9.33696 8.26331 8.70107 8.73215 8.23223C9.20099 7.76339 9.83688 7.5 10.4999 7.5ZM10.4999 3.75C14.6666 3.75 18.2249 6.34167 19.6666 10C18.2249 13.6583 14.6666 16.25 10.4999 16.25C6.33325 16.25 2.77492 13.6583 1.33325 10C2.77492 6.34167 6.33325 3.75 10.4999 3.75ZM3.14992 10C3.82346 11.3753 4.86934 12.534 6.16865 13.3444C7.46796 14.1548 8.96858 14.5844 10.4999 14.5844C12.0313 14.5844 13.5319 14.1548 14.8312 13.3444C16.1305 12.534 17.1764 11.3753 17.8499 10C17.1764 8.62474 16.1305 7.46604 14.8312 6.65562C13.5319 5.8452 12.0313 5.41557 10.4999 5.41557C8.96858 5.41557 7.46796 5.8452 6.16865 6.65562C4.86934 7.46604 3.82346 8.62474 3.14992 10Z" fill="#8995A4"/>
</svg>
