<svg width="14" height="15" viewBox="0 0 14 15" fill="none" xmlns="http://www.w3.org/2000/svg">
    <g clip-path="url(#clip0_6622_5908)">
        <path d="M7.10336 1.31344C7.01222 1.28693 6.91541 1.28692 6.82426 1.3134L1.57163 2.83933C1.35804 2.90138 1.21112 3.09706 1.21112 3.31948V6.44713C1.21115 8.15672 1.75168 9.82273 2.75579 11.2091C3.75988 12.5954 5.17651 13.6316 6.80465 14.1714C6.90684 14.2052 7.01722 14.2052 7.1194 14.1714C8.74707 13.6315 10.1632 12.5954 11.167 11.2094C12.1707 9.82333 12.7111 8.15775 12.7111 6.44859V3.31948C12.7111 3.09711 12.5643 2.90146 12.3507 2.83937L7.10336 1.31344Z" fill="#2F80ED" stroke="white" stroke-linejoin="round"/>
        <path fill-rule="evenodd" clip-rule="evenodd" d="M9.29688 5.93754C9.46511 6.11895 9.46511 6.41306 9.29688 6.59447L6.92765 9.14931C6.75942 9.33071 6.48667 9.33071 6.31845 9.14931L5.24153 7.98802C5.0733 7.80661 5.0733 7.5125 5.24153 7.33109C5.40975 7.14969 5.6825 7.14969 5.85073 7.33109L6.62305 8.16392L8.68768 5.93754C8.85591 5.75614 9.12865 5.75614 9.29688 5.93754Z" fill="white"/>
    </g>
    <defs>
        <clipPath id="clip0_6622_5908">
            <rect width="14" height="13.9355" fill="white" transform="translate(0 0.709679)"/>
        </clipPath>
    </defs>
</svg>
