<svg width="20" height="21" viewBox="0 0 20 21" fill="none" xmlns="http://www.w3.org/2000/svg">
    <g clip-path="url(#clip0_5656_2071)">
        <path d="M10.0883 1.10502C9.99678 1.07829 9.89953 1.07827 9.808 1.10499L2.30425 3.29498C2.09096 3.35723 1.94434 3.55277 1.94434 3.77496V8.26371C1.94437 10.6708 2.70192 13.0169 4.10963 14.9694C5.51734 16.922 7.50382 18.382 9.78759 19.1427C9.89017 19.1768 10.0011 19.1768 10.1036 19.1427C12.3867 18.3819 14.3726 16.9221 15.7798 14.9699C17.187 13.0178 17.9443 10.6723 17.9443 8.2658V3.77496C17.9443 3.55282 17.7978 3.35732 17.5845 3.29502L10.0883 1.10502Z" stroke="white" stroke-linejoin="round"/>
        <path fill-rule="evenodd" clip-rule="evenodd" d="M13.2812 7.53218C13.5215 7.79253 13.5215 8.21464 13.2812 8.47499L9.89661 12.1417C9.65628 12.402 9.26664 12.402 9.02632 12.1417L7.48786 10.475C7.24754 10.2146 7.24754 9.79253 7.48786 9.53218C7.72818 9.27183 8.11782 9.27183 8.35814 9.53218L9.46146 10.7274L12.4109 7.53218C12.6513 7.27183 13.0409 7.27183 13.2812 7.53218Z" fill="white"/>
    </g>
    <defs>
        <clipPath id="clip0_5656_2071">
            <rect width="20" height="20" fill="white" transform="translate(0 0.0292969)"/>
        </clipPath>
    </defs>
</svg>
