<svg width="20" height="24" viewBox="0 0 20 24" fill="none" xmlns="http://www.w3.org/2000/svg">
<path d="M10 24C15.0402 24 19.1406 19.8785 19.1406 14.8125C19.1406 10.6745 16.4045 7.16711 12.6554 6.02087L15.0773 3.66064L13.247 0H6.75299L4.92267 3.66064L7.3446 6.02087C3.59552 7.16711 0.859375 10.6745 0.859375 14.8125C0.859375 19.8785 4.95984 24 10 24V24ZM10.7031 5.65192V4.21875H12.4897L10.9911 5.6792C10.8956 5.66876 10.7996 5.65924 10.7031 5.65192ZM12.378 1.40625L13.0811 2.8125H6.91888L7.62201 1.40625H12.378ZM7.51031 4.21875H9.29688V5.65192C9.20038 5.65924 9.10443 5.66876 9.00885 5.6792L7.51031 4.21875ZM10 7.03125C14.2647 7.03125 17.7344 10.522 17.7344 14.8125C17.7344 19.103 14.2647 22.5938 10 22.5938C5.73529 22.5938 2.26562 19.103 2.26562 14.8125C2.26562 10.522 5.73529 7.03125 10 7.03125V7.03125Z" fill="white"/>
<path d="M10 21.1875C13.4905 21.1875 16.3281 18.3082 16.3281 14.8125C16.3281 11.322 13.4951 8.4375 10 8.4375C6.50946 8.4375 3.67188 11.3168 3.67188 14.8125C3.67188 18.303 6.50488 21.1875 10 21.1875ZM10 9.84375C12.714 9.84375 14.9219 12.0727 14.9219 14.8125C14.9219 17.5523 12.714 19.7812 10 19.7812C7.28601 19.7812 5.07812 17.5523 5.07812 14.8125C5.07812 12.0727 7.28601 9.84375 10 9.84375Z" fill="white"/>
</svg>
