<svg width="16" height="16" viewBox="0 0 16 16" fill="none" xmlns="http://www.w3.org/2000/svg">
    <path d="M6.49997 0.5C5.56139 0.500502 4.63603 0.721187 3.79824 1.14432C2.96046 1.56745 2.23362 2.18122 1.67616 2.93631C1.11869 3.69139 0.746145 4.56673 0.588459 5.49196C0.430772 6.4172 0.492345 7.36652 0.768229 8.26363C1.04411 9.16074 1.52661 9.98062 2.17695 10.6574C2.82728 11.3341 3.62731 11.8489 4.51273 12.1602C5.39816 12.4716 6.34428 12.5709 7.27505 12.4501C8.20583 12.3294 9.0953 11.992 9.87197 11.465L13.58 15.17C13.683 15.2805 13.8072 15.3692 13.9452 15.4307C14.0832 15.4922 14.2321 15.5252 14.3832 15.5279C14.5342 15.5306 14.6843 15.5028 14.8244 15.4462C14.9644 15.3896 15.0917 15.3054 15.1985 15.1986C15.3054 15.0917 15.3896 14.9645 15.4462 14.8244C15.5027 14.6843 15.5305 14.5343 15.5279 14.3832C15.5252 14.2322 15.4921 14.0832 15.4306 13.9452C15.3692 13.8072 15.2805 13.683 15.17 13.58L11.465 9.872C12.0779 8.96987 12.4334 7.91773 12.4931 6.8287C12.5529 5.73968 12.3147 4.65496 11.8041 3.69119C11.2935 2.72742 10.5299 1.92105 9.59533 1.35877C8.66077 0.796504 7.59063 0.499605 6.49997 0.5ZM2.74997 6.5C2.74997 5.50544 3.14506 4.55161 3.84832 3.84835C4.55158 3.14509 5.50541 2.75 6.49997 2.75C7.49453 2.75 8.44836 3.14509 9.15162 3.84835C9.85488 4.55161 10.25 5.50544 10.25 6.5C10.25 7.49456 9.85488 8.44839 9.15162 9.15165C8.44836 9.85491 7.49453 10.25 6.49997 10.25C5.50541 10.25 4.55158 9.85491 3.84832 9.15165C3.14506 8.44839 2.74997 7.49456 2.74997 6.5Z" fill="#8995A4"/>
</svg>
