<svg width="55" height="30" viewBox="0 0 55 30" fill="none" xmlns="http://www.w3.org/2000/svg">
<path d="M22 12.9997L22.0749 13.4941L22 12.9997ZM50.5 0.5L54.4076 4.75021L48.773 6.00915L50.5 0.5ZM1.04413 28.5018C10.8783 29.3731 18.0918 28.6535 23.1221 27.146C28.1637 25.6352 30.9517 23.3538 32.0528 21.1517C33.1348 18.9876 32.6308 16.826 30.9049 15.3139C29.1561 13.7818 26.1006 12.8845 22.0749 13.4941L21.9251 12.5054C26.1494 11.8657 29.5314 12.7812 31.5639 14.5617C33.6192 16.3623 34.2402 19.0131 32.9472 21.5989C31.6733 24.1466 28.5863 26.5525 23.4092 28.1039C18.2207 29.6588 10.8717 30.3765 0.955869 29.4979L1.04413 28.5018ZM22.0749 13.4941C18.9411 13.9687 17.3736 14.8909 16.7916 15.89C16.2404 16.8363 16.4671 18.0714 17.5493 19.5208C19.7085 22.4128 24.8725 25.5502 30.62 27.1582C36.3696 28.7668 42.5019 28.7898 46.6519 25.712C50.7608 22.6647 53.1276 16.4151 50.9908 4.98812L51.9737 4.80431C54.1393 16.385 51.811 23.1308 47.2476 26.5152C42.7253 29.8691 36.2079 29.76 30.3505 28.1212C24.4909 26.4818 19.0905 23.2566 16.748 20.1191C15.5793 18.5538 15.0708 16.8573 15.9275 15.3866C16.7535 13.9686 18.7371 12.9881 21.9251 12.5054L22.0749 13.4941Z" fill="#F6193D"/>
</svg>
