<svg width="28" height="28" viewBox="0 0 28 28" fill="none" xmlns="http://www.w3.org/2000/svg">
    <path
        d="M12.25 25.0833C9.49318 24.0526 7.19368 20.5246 6.04335 18.4584C5.54635 17.5659 5.80827 16.4704 6.60568 15.8323C7.03502 15.4889 7.57585 15.316 8.12472 15.3464C8.67359 15.3769 9.19197 15.6086 9.58068 15.9973L10.5 16.9167V10.2083C10.5 9.82156 10.6537 9.45063 10.9272 9.17714C11.2006 8.90365 11.5716 8.75 11.9584 8.75C12.3451 8.75 12.7161 8.90365 12.9895 9.17714C13.263 9.45063 13.4167 9.82156 13.4167 10.2083V13.7083C13.4167 13.3216 13.5703 12.9506 13.8438 12.6771C14.1173 12.4036 14.4882 12.25 14.875 12.25C15.2618 12.25 15.6327 12.4036 15.9062 12.6771C16.1797 12.9506 16.3334 13.3216 16.3334 13.7083V14.875C16.3334 14.4882 16.487 14.1173 16.7605 13.8438C17.034 13.5703 17.4049 13.4167 17.7917 13.4167C18.1785 13.4167 18.5494 13.5703 18.8229 13.8438C19.0964 14.1173 19.25 14.4882 19.25 14.875V16.0417C19.25 15.6549 19.4037 15.284 19.6772 15.0105C19.9506 14.737 20.3216 14.5833 20.7084 14.5833C21.0951 14.5833 21.4661 14.737 21.7395 15.0105C22.013 15.284 22.1667 15.6549 22.1667 16.0417V20.6313C22.1667 21.2555 22.0121 21.8727 21.6522 22.3831C21.0554 23.2283 19.9821 24.5198 18.6667 25.0833C16.625 25.9583 14.7992 26.0365 12.25 25.0833Z"
        stroke="#F6193D" stroke-width="2.3" stroke-linecap="round" stroke-linejoin="round" />
    <path d="M7 5.24992L8.75 6.99992M11.0833 2.33325L11.6667 5.83325M15.75 4.66659L14.5833 6.41659"
        stroke="#F6193D" stroke-width="2.3" stroke-linecap="round" stroke-linejoin="round" />
</svg>