<svg width="26" height="26" viewBox="0 0 26 26" fill="none" xmlns="http://www.w3.org/2000/svg">
<path d="M20.7844 22.2375H25H25.05V22.1875V9.48438V9.43437H25H16.5656V1V0.95H16.5156H1H0.95V1V13.7031V13.7531H1H5.21562V16.5156V16.6156L5.29563 16.5556L9.03229 13.7531H9.43437V22.1875V22.2375H9.48438H16.9677L20.7044 25.04L20.7844 25.1V25V22.2375ZM17.4531 20.7313H10.9406V10.9406H23.5438V20.7313H19.3281H19.2781V20.7812V22.0875L17.4831 20.7412L17.4698 20.7313H17.4531ZM8.54688 12.2469H8.53021L8.51687 12.2569L6.72188 13.6031V12.2969V12.2469H6.67188H2.45625V2.45625H15.0594V9.43437H12.0592L8.82597 2.968L8.78125 2.87855L8.73653 2.968L5.29506 9.85075L5.2727 9.89547L5.31742 9.91783L6.57517 10.5468L6.61989 10.5692L6.64226 10.5244L7.48885 8.83125H10.0737L10.3752 9.43437H9.48438H9.43437V9.48438V12.2469H8.54688ZM9.32053 7.325H8.24197L8.78125 6.24645L9.32053 7.325Z" fill="#303131" stroke="#303131" stroke-width="0.1"/>
<path d="M19.2883 17.6328C18.9854 17.4782 18.6359 17.2497 18.2748 16.9499C18.6685 16.4649 19.0782 15.8379 19.2685 15.1594H20.7344H20.7844V15.1094V13.7031V13.6531H20.7344H17.9719V12.2969V12.2469H17.9219H16.5156H16.4656V12.2969V13.6531H13.7031H13.6531V13.7031V15.1094V15.1594H13.7031H15.169C15.3593 15.8379 15.769 16.4649 16.1627 16.9499C15.8016 17.2497 15.4521 17.4782 15.1492 17.6328C14.834 17.7937 14.5745 17.8719 14.4062 17.8719H14.3562V17.9219V19.3281V19.3781H14.4062C14.8705 19.3781 15.3774 19.2086 15.8685 18.9532C16.3474 18.7041 16.8149 18.3716 17.2188 18.0283C17.6227 18.3716 18.0901 18.7041 18.569 18.9532C19.0601 19.2086 19.567 19.3781 20.0312 19.3781H20.0813V19.3281V17.9219V17.8719H20.0312C19.863 17.8719 19.6035 17.7937 19.2883 17.6328ZM17.6586 15.1588C17.5493 15.3814 17.4007 15.6179 17.2187 15.8577C17.0368 15.6179 16.8882 15.3814 16.7789 15.1588H17.6586Z" fill="#303131" stroke="#303131" stroke-width="0.1"/>
</svg>
