<svg width="20" height="20" viewBox="0 0 20 20" fill="none" xmlns="http://www.w3.org/2000/svg">
<path d="M8.33332 4.30981C8.33332 3.15147 7.01915 2.23231 5.41665 2.49981C3.06415 2.89147 1.98915 7.50481 2.08332 8.33314C2.14998 8.91897 3.52082 9.76814 5.12998 9.16647C6.18082 8.77314 6.76332 7.95814 7.08332 7.08314M11.8892 4.30981C11.8892 3.15147 13.2033 2.23231 14.8058 2.49981C17.1583 2.89147 18.2333 7.50481 18.1392 8.33314C18.0725 8.91897 16.7017 9.76814 15.0925 9.16647C14.0417 8.77314 13.5467 7.95814 13.2267 7.08314M6.66665 11.6665V12.0831M13.3333 11.6665V12.0831M9.37498 13.5415H10.625L9.99998 14.1665L9.37498 13.5415Z" stroke="#303131" stroke-width="1.5" stroke-linecap="round" stroke-linejoin="round"/>
<path d="M3.68326 9.37241C3.45003 10.273 3.33242 11.1996 3.33326 12.1299C3.33326 15.6066 6.31826 17.4999 9.99992 17.4999C13.6816 17.4999 16.6666 15.6066 16.6666 12.1299C16.6666 11.2457 16.5316 10.2966 16.2558 9.37241M8.55326 4.30408C9.02974 4.21047 9.51434 4.16441 9.99992 4.16658C10.6499 4.16658 11.2499 4.25658 11.8008 4.42158" stroke="#303131" stroke-width="1.5" stroke-linecap="round" stroke-linejoin="round"/>
</svg>
