<svg width="20" height="20" viewBox="0 0 20 20" fill="none" xmlns="http://www.w3.org/2000/svg">
<g clip-path="url(#clip0_4961_399)">
<path d="M15.8334 9.99984H18.3334M15.8334 9.99984C15.8345 10.7661 15.6841 11.5249 15.3909 12.2328C15.0977 12.9407 14.6676 13.5837 14.1251 14.1248M15.8334 9.99984C15.8345 9.23362 15.6841 8.47476 15.3909 7.76685C15.0977 7.05894 14.6676 6.41595 14.1251 5.87484M10.0001 15.8332V18.3332M10.0001 15.8332C10.7663 15.8342 11.5252 15.6838 12.2331 15.3907C12.941 15.0975 13.584 14.6673 14.1251 14.1248M10.0001 15.8332C9.23387 15.8342 8.475 15.6838 7.76709 15.3907C7.05918 15.0975 6.4162 14.6673 5.87508 14.1248M4.16675 9.99984C4.16675 8.45274 4.78133 6.96901 5.87529 5.87505C6.96925 4.78109 8.45299 4.1665 10.0001 4.1665M4.16675 9.99984H1.66675M4.16675 9.99984C4.16675 11.6107 4.82008 13.069 5.87508 14.1248M10.0001 4.1665V1.6665M10.0001 4.1665C11.6109 4.1665 13.0692 4.81984 14.1251 5.87484M10.0001 1.6665H11.6667M10.0001 1.6665H8.33341M10.0001 18.3332H11.6667M10.0001 18.3332H8.33341M18.3334 9.99984V8.33317M18.3334 9.99984V11.6665M1.66675 9.99984V8.33317M1.66675 9.99984V11.6665M16.2501 3.74984L15.0001 2.49984M16.2501 3.74984L17.5001 4.99984M16.2501 3.74984L14.1251 5.87484M3.75008 3.74984L5.00008 2.49984M3.75008 3.74984L2.50008 4.99984M3.75008 3.74984L5.83341 5.83317M3.75008 16.2498L5.00008 17.4998M3.75008 16.2498L2.50008 14.9998M3.75008 16.2498L5.87508 14.1248M16.2501 16.2498L15.0001 17.4998M16.2501 16.2498L17.5001 14.9998M16.2501 16.2498L14.1251 14.1248M11.6667 11.6665H11.6676" stroke="#303131" stroke-width="1.5" stroke-linecap="round" stroke-linejoin="round"/>
<path d="M8.75 10C9.44036 10 10 9.44036 10 8.75C10 8.05964 9.44036 7.5 8.75 7.5C8.05964 7.5 7.5 8.05964 7.5 8.75C7.5 9.44036 8.05964 10 8.75 10Z" stroke="#303131" stroke-width="1.5" stroke-linecap="round" stroke-linejoin="round"/>
</g>
<defs>
<clipPath id="clip0_4961_399">
<rect width="20" height="20" fill="white"/>
</clipPath>
</defs>
</svg>
