<svg width="24" height="24" viewBox="0 0 24 24" fill="none" xmlns="http://www.w3.org/2000/svg">
<g clip-path="url(#clip0_28_4031)">
<path d="M15.5625 0C10.9026 0 7.125 3.77756 7.125 8.4375C7.125 12.3184 9.74869 15.5788 13.3165 16.5633C13.3979 16.2102 13.4531 15.8465 13.4531 15.4688C13.4531 15.0767 13.3988 14.6982 13.3113 14.3328C10.9339 13.4215 9.23438 11.1317 9.23438 8.4375C9.23438 4.94798 12.073 2.10938 15.5625 2.10938C19.052 2.10938 21.8906 4.94798 21.8906 8.4375C21.8906 10.9568 20.4004 13.119 18.2645 14.1366C18.3242 14.5741 18.375 15.015 18.375 15.4688C18.375 15.7905 18.327 16.0995 18.2966 16.4133C21.6128 15.2763 24 12.1391 24 8.4375C24 3.77756 20.2224 0 15.5625 0Z" fill="#303131"/>
<path d="M10.6869 7.43768C10.6023 7.78967 10.5469 8.1529 10.5469 8.53132C10.5469 8.92329 10.6035 9.302 10.6935 9.66875C13.0685 10.5812 14.7656 12.8702 14.7656 15.5626C14.7656 19.0521 11.927 21.8907 8.4375 21.8907C4.94798 21.8907 2.10938 19.0521 2.10938 15.5626C2.10938 13.0485 3.59381 10.8907 5.72259 9.87054C5.66156 9.43076 5.625 8.98442 5.625 8.53132C5.625 8.21159 5.66386 7.90217 5.69391 7.59026C2.38284 8.72993 0 11.8645 0 15.5626C0 20.2225 3.77756 24.0001 8.4375 24.0001C13.0974 24.0001 16.875 20.2225 16.875 15.5626C16.875 11.6829 14.2531 8.42328 10.6869 7.43768Z" fill="#303131"/>
</g>
<defs>
<clipPath id="clip0_28_4031">
<rect width="24" height="24" fill="white"/>
</clipPath>
</defs>
</svg>
