<svg width="20" height="20" viewBox="0 0 20 20" fill="none" xmlns="http://www.w3.org/2000/svg">
<path d="M7.5 17.5C7.26389 17.5 7.06611 17.42 6.90667 17.26C6.74667 17.1006 6.66667 16.9028 6.66667 16.6667C6.66667 16.4306 6.74667 16.2328 6.90667 16.0733C7.06611 15.9133 7.26389 15.8333 7.5 15.8333H9.16667V12.4167C7.97222 12.2222 6.97917 11.6667 6.1875 10.75C5.39583 9.83333 5 8.75 5 7.5V3.33333C5 3.09722 5.07972 2.89917 5.23917 2.73917C5.39917 2.57972 5.59722 2.5 5.83333 2.5H14.1667C14.4028 2.5 14.6006 2.57972 14.76 2.73917C14.92 2.89917 15 3.09722 15 3.33333V7.5C15 8.75 14.6042 9.83333 13.8125 10.75C13.0208 11.6667 12.0278 12.2222 10.8333 12.4167V15.8333H12.5C12.7361 15.8333 12.9342 15.9133 13.0942 16.0733C13.2536 16.2328 13.3333 16.4306 13.3333 16.6667C13.3333 16.9028 13.2536 17.1006 13.0942 17.26C12.9342 17.42 12.7361 17.5 12.5 17.5H7.5ZM10 10.8333C10.7778 10.8333 11.4583 10.5972 12.0417 10.125C12.625 9.65278 13.0139 9.05556 13.2083 8.33333H6.79167C6.98611 9.05556 7.375 9.65278 7.95833 10.125C8.54167 10.5972 9.22222 10.8333 10 10.8333ZM6.66667 6.66667H13.3333V4.16667H6.66667V6.66667Z" fill="#303131"/>
</svg>
