<svg width="20" height="20" viewBox="0 0 20 20" fill="none" xmlns="http://www.w3.org/2000/svg">
<path d="M2.85425 16.6668L1.66675 15.5001L5.08341 12.0835C5.51397 11.6529 5.80897 11.1146 5.96841 10.4685C6.12841 9.82292 6.20841 8.83347 6.20841 7.50014C6.20841 6.69458 6.38897 5.90292 6.75008 5.12514C7.11119 4.34736 7.62508 3.62514 8.29175 2.95847C9.55564 1.69458 10.9515 0.979305 12.4792 0.812638C14.007 0.645971 15.264 1.06958 16.2501 2.08347C17.2501 3.08347 17.6667 4.34736 17.5001 5.87514C17.3334 7.40292 16.6251 8.7918 15.3751 10.0418C14.7084 10.7085 13.9862 11.2224 13.2084 11.5835C12.4306 11.9446 11.639 12.1251 10.8334 12.1251C9.48619 12.1251 8.50008 12.2015 7.87508 12.3543C7.25008 12.5071 6.71536 12.8057 6.27091 13.2501L2.85425 16.6668ZM8.58341 9.70847C9.23619 10.3474 10.1181 10.5835 11.2292 10.4168C12.3404 10.2501 13.3334 9.7293 14.2084 8.8543C15.0973 7.96542 15.6287 6.96875 15.8026 5.8643C15.9759 4.76042 15.7362 3.89597 15.0834 3.27097C14.4167 2.6043 13.5454 2.3543 12.4692 2.52097C11.3926 2.68764 10.4029 3.21542 9.50008 4.1043C8.62508 4.9793 8.09397 5.96903 7.90675 7.07347C7.71897 8.17736 7.94453 9.05569 8.58341 9.70847ZM15.0001 19.1668C14.0834 19.1668 13.2987 18.8404 12.6459 18.1876C11.9931 17.5349 11.6667 16.7501 11.6667 15.8335C11.6667 14.9168 11.9931 14.1321 12.6459 13.4793C13.2987 12.8265 14.0834 12.5001 15.0001 12.5001C15.9167 12.5001 16.7015 12.8265 17.3542 13.4793C18.007 14.1321 18.3334 14.9168 18.3334 15.8335C18.3334 16.7501 18.007 17.5349 17.3542 18.1876C16.7015 18.8404 15.9167 19.1668 15.0001 19.1668ZM15.0001 17.5001C15.4584 17.5001 15.8509 17.3371 16.1776 17.011C16.5037 16.6843 16.6667 16.2918 16.6667 15.8335C16.6667 15.3751 16.5037 14.9826 16.1776 14.656C15.8509 14.3299 15.4584 14.1668 15.0001 14.1668C14.5417 14.1668 14.1492 14.3299 13.8226 14.656C13.4965 14.9826 13.3334 15.3751 13.3334 15.8335C13.3334 16.2918 13.4965 16.6843 13.8226 17.011C14.1492 17.3371 14.5417 17.5001 15.0001 17.5001Z" fill="#303131"/>
</svg>
