<svg width="20" height="20" viewBox="0 0 20 20" fill="none" xmlns="http://www.w3.org/2000/svg">
<g clip-path="url(#clip0_4961_3083)">
<path d="M0.833252 18.3335C0.833252 18.7835 1.20825 19.1668 1.66659 19.1668H12.4999C12.9666 19.1668 13.3333 18.7835 13.3333 18.3335V17.5002H0.833252V18.3335ZM7.08325 7.50016C3.95825 7.50016 0.833252 9.16683 0.833252 12.5002H13.3333C13.3333 9.16683 10.2083 7.50016 7.08325 7.50016ZM3.01659 10.8335C3.94159 9.54183 5.90825 9.16683 7.08325 9.16683C8.25825 9.16683 10.2249 9.54183 11.1499 10.8335H3.01659ZM0.833252 14.1668H13.3333V15.8335H0.833252V14.1668ZM14.9999 4.16683V0.833496H13.3333V4.16683H9.16659L9.35825 5.8335H17.3249L16.1583 17.5002H14.9999V19.1668H16.4333C17.1333 19.1668 17.7083 18.6252 17.7916 17.9418L19.1666 4.16683H14.9999Z" fill="#303131"/>
</g>
<defs>
<clipPath id="clip0_4961_3083">
<rect width="20" height="20" fill="white"/>
</clipPath>
</defs>
</svg>
