<svg width="24" height="24" viewBox="0 0 24 24" fill="none" xmlns="http://www.w3.org/2000/svg">
<g clip-path="url(#clip0_3883_59667)">
<path d="M22.3185 9.7896C23.4128 8.69507 24.0096 7.23984 23.9988 5.69189C23.988 4.14422 23.3707 2.69719 22.2604 1.61729C21.1607 0.5476 19.7044 -0.0263362 18.1587 0.0019762C16.6117 0.0300074 15.1749 0.657194 14.113 1.76789C13.1914 2.73178 12.6322 3.9953 12.5383 5.3257C12.5265 5.49328 12.5084 5.65945 12.4848 5.82412C11.2162 4.96804 9.94148 4.32956 8.81934 3.99633C6.75286 3.38259 5.66939 3.90347 5.12443 4.44853C4.19907 5.37403 4.15875 7.01592 5.00607 9.08118C3.96886 9.46616 3.04299 10.0607 2.25085 10.853C-0.751585 13.8559 -0.751585 18.7421 2.25085 21.7451C3.70538 23.1999 5.63925 24.001 7.69631 24.001C9.75333 24.001 11.6872 23.1998 13.1417 21.7451C13.9226 20.9641 14.5293 20.0181 14.913 18.9896C15.8989 19.3942 16.7885 19.5968 17.5494 19.5968C18.3823 19.5968 19.0615 19.3547 19.5451 18.871C20.0911 18.3249 20.6123 17.2389 19.9943 15.1664C19.6597 14.0441 19.0206 12.7702 18.1647 11.5027C18.3164 11.4832 18.4694 11.4685 18.6235 11.4589C20.0176 11.3712 21.3299 10.7784 22.3185 9.7896ZM12.147 20.7508C10.9582 21.9398 9.37753 22.5947 7.69627 22.5947C6.01496 22.5947 4.43433 21.9398 3.24549 20.7508C0.791117 18.296 0.791117 14.3019 3.24549 11.8471C3.92325 11.1692 4.72008 10.6684 5.61507 10.3561C5.86299 10.8137 6.14377 11.2771 6.45324 11.7392C5.6626 11.9525 4.94654 12.366 4.35507 12.9575C2.51293 14.8 2.51293 17.7978 4.35507 19.6403C5.24752 20.5329 6.43407 21.0245 7.69622 21.0245C8.95838 21.0245 10.145 20.5329 11.0374 19.6403C11.6211 19.0565 12.0394 18.3302 12.2548 17.5417C12.7169 17.8513 13.1803 18.1322 13.6379 18.3802C13.3278 19.2663 12.8156 20.0821 12.147 20.7508ZM7.36486 12.9925C7.88888 13.6591 8.46403 14.3091 9.07472 14.9199C9.68437 15.5296 10.333 16.1039 10.9983 16.6273C10.9231 17.388 10.5844 18.1044 10.0427 18.6461C9.41597 19.273 8.58263 19.6183 7.69622 19.6183C6.80986 19.6183 5.97652 19.273 5.34975 18.6461C4.05572 17.3519 4.05572 15.246 5.34975 13.9517C5.88263 13.4188 6.55871 13.0906 7.305 13.0025C7.32535 13.0002 7.34517 12.9965 7.36486 12.9925ZM18.6464 15.5681C18.9694 16.6512 18.9344 17.4927 18.5504 17.8767C18.0527 18.3745 16.8485 18.2859 15.329 17.6397C13.6195 16.9127 11.7025 15.559 10.0695 13.9257C8.43642 12.2924 7.08291 10.375 6.35602 8.66526C5.70985 7.14534 5.62125 5.94065 6.11911 5.44275C6.50194 5.05987 7.3402 5.02401 8.41889 5.3444C9.52692 5.67347 10.8235 6.35404 12.1104 7.2764C11.7873 8.12568 11.2957 8.89569 10.6591 9.53249L10.506 9.68558C10.2315 9.96013 10.2315 10.4053 10.506 10.6798L13.247 13.4212C13.3789 13.5531 13.5578 13.6272 13.7444 13.6272C13.931 13.6272 14.1099 13.553 14.2418 13.421L14.2758 13.387C14.9579 12.7047 15.7856 12.1857 16.6975 11.8565C17.6273 13.1494 18.3141 14.4533 18.6464 15.5681ZM13.7637 11.949L11.9867 10.1717C13.1258 8.87661 13.8154 7.20932 13.9413 5.42461C14.0122 4.42059 14.4342 3.46702 15.1297 2.73956C15.9304 1.90205 17.0152 1.42913 18.1843 1.4079C19.3532 1.38675 20.451 1.81899 21.2797 2.62514C22.1181 3.44058 22.5843 4.53314 22.5924 5.70159C22.6005 6.87032 22.15 7.96902 21.3239 8.79533C20.5776 9.54172 19.5872 9.98919 18.5353 10.0552C16.7534 10.1672 15.0827 10.8341 13.7637 11.949Z" fill="white"/>
</g>
<defs>
<clipPath id="clip0_3883_59667">
<rect width="24" height="24" fill="white"/>
</clipPath>
</defs>
</svg>
