<svg width="24" height="24" viewBox="0 0 24 24" fill="none" xmlns="http://www.w3.org/2000/svg">
<path d="M23.7025 16.3023L19.438 13.0034C19.1405 12.8035 18.6446 12.8035 18.3471 13.1034L18.0496 13.4033L17.157 12.6036L15.9669 3.0069C15.7686 1.80731 14.7769 1.00759 13.5868 1.00759C12.9917 1.00759 12.4959 1.20752 12 1.60738C11.6033 1.20752 11.0083 1.00759 10.4132 1.00759C9.32231 0.907622 8.23141 1.80731 8.13223 3.0069L6.94215 12.6036L6.04959 13.4033L5.65289 13.0034C5.35537 12.7036 4.95868 12.7036 4.56198 12.9035L0.297521 16.2023C0.0991736 16.3023 0 16.5022 0 16.8021C0 17.0021 0.0991736 17.202 0.198347 17.4019L5.15702 22.7001C5.2562 22.9 5.55372 23 5.75207 23C5.95041 23 6.14876 22.9 6.34711 22.8001L10.314 18.8014C10.6116 18.5016 10.6116 18.0017 10.314 17.7018L10.1157 17.5019L12 15.6026L13.8843 17.5019L13.686 17.7018C13.3884 18.0017 13.3884 18.5016 13.686 18.8014L17.6529 22.8001C17.7521 23 18.0496 23 18.2479 23C18.4463 23 18.6446 22.9 18.843 22.7001L23.8017 17.4019C24 17.202 24 17.0021 24 16.8021C24 16.7022 23.9008 16.4023 23.7025 16.3023ZM22.0165 17.0021L18.2479 21.1007L15.4711 18.2017L18.9421 14.6029L22.0165 17.0021ZM12.7934 3.30679C12.7934 2.90693 13.0909 2.50707 13.5868 2.50707C13.9835 2.50707 14.281 2.80697 14.3802 3.20683L15.6694 13.1034C15.6694 13.3033 15.7686 13.5033 15.9669 13.6032L17.0579 14.5029L15.1736 16.4023L12.9917 14.303C12.8926 14.203 12.7934 14.0031 12.7934 13.8032V3.30679ZM8.52893 18.3016L5.75207 21.2006L1.98347 17.0021L5.05785 14.7029L8.52893 18.3016ZM11.2066 3.30679V13.9031C11.2066 14.1031 11.1074 14.303 11.0083 14.403L8.92562 16.5022L7.04132 14.5029L8.13223 13.6032C8.33058 13.5033 8.42975 13.3033 8.42975 13.1034L9.71901 3.20683C9.81818 2.80697 10.1157 2.50707 10.5124 2.50707C10.9091 2.50707 11.2066 2.90693 11.2066 3.30679Z" fill="#303131"/>
</svg>
