<svg width="22" height="22" viewBox="0 0 22 22" fill="none" xmlns="http://www.w3.org/2000/svg">
<path d="M16.2741 1.13706L1.13711 16.2741C1.13711 16.2741 1.13711 16.2741 1.13711 16.2741C1.01726 16.3939 0.95 16.5563 0.95 16.7257C0.95 16.8951 1.01726 17.0575 1.13712 17.1773L4.82268 20.8629C4.94739 20.9876 5.11094 21.05 5.27429 21.05C5.43763 21.05 5.60122 20.9876 5.72591 20.8628L20.863 5.72585C20.9827 5.60609 21.0501 5.44365 21.0501 5.27424V5.2742C21.05 5.10484 20.9827 4.94241 20.8629 4.82264L17.1774 1.13706C16.928 0.887645 16.5236 0.887649 16.2741 1.13706ZM5.27425 19.508L2.49192 16.7257L3.47304 15.7446L4.29171 16.5633C4.41642 16.688 4.57996 16.7504 4.74331 16.7504C4.90666 16.7504 5.07024 16.688 5.19492 16.5633C5.44433 16.3139 5.44433 15.9095 5.19492 15.6601L4.37625 14.8414L5.36777 13.8499L6.18647 14.6686C6.31119 14.7933 6.47473 14.8557 6.63808 14.8557C6.80141 14.8557 6.965 14.7933 7.08968 14.6686C7.33909 14.4192 7.33909 14.0148 7.08968 13.7654L6.27098 12.9467L7.26249 11.9552L8.08119 12.7739C8.2059 12.8986 8.36945 12.961 8.5328 12.961C8.69613 12.961 8.85972 12.8986 8.9844 12.7739C9.23381 12.5245 9.23381 12.1201 8.9844 11.8707L8.1657 11.052L9.15721 10.0605L9.97592 10.8792C10.1006 11.0039 10.2642 11.0663 10.4275 11.0663C10.5909 11.0663 10.7544 11.0039 10.8791 10.8792C11.1285 10.6298 11.1285 10.2254 10.8791 9.97595L10.0604 9.15724L11.0519 8.16573L11.8706 8.98444C11.9953 9.10914 12.1589 9.17154 12.3222 9.17154C12.4856 9.17154 12.6491 9.10915 12.7738 8.98447C13.0232 8.73507 13.0232 8.33067 12.7738 8.08126L11.9551 7.26256L12.9467 6.27105L13.7654 7.08975C13.8901 7.21447 14.0536 7.27682 14.217 7.27682C14.3803 7.27682 14.5439 7.21447 14.6686 7.08971C14.918 6.8403 14.918 6.43591 14.6686 6.1865L13.8499 5.36784L14.8414 4.37632L15.6601 5.19499C15.7848 5.3197 15.9483 5.38209 16.1117 5.38209C16.275 5.38209 16.4386 5.31975 16.5633 5.19499C16.8127 4.94558 16.8127 4.54119 16.5633 4.29178L15.7446 3.47311L16.7258 2.49199L19.5081 5.27428L5.27425 19.508Z" fill="#303131" stroke="#303131" stroke-width="0.1"/>
</svg>
