<svg width="24" height="26" viewBox="0 0 24 26" fill="none" xmlns="http://www.w3.org/2000/svg">
<path d="M13.5062 17.5188H19.5312C19.5312 20.841 16.8283 23.5438 13.5062 23.5438C10.1171 23.5438 7.48112 20.7814 7.48112 17.5188V14.5063H8.98744V18.2719C8.98744 19.5178 10.001 20.5313 11.2468 20.5313C12.4927 20.5313 13.5062 19.5178 13.5062 18.2719V17.5188ZM20.2843 13.0001H12.753C12.3371 13.0001 11.9999 13.3373 11.9999 13.7532V18.2719C11.9999 18.6871 11.662 19.025 11.2468 19.025C10.8316 19.025 10.4936 18.6871 10.4936 18.2719V10.7407C10.4936 8.66424 8.80443 6.97502 6.728 6.97502H3.71558C3.29965 6.97502 2.96245 7.31222 2.96245 7.72815C2.96245 8.14408 3.29965 8.48127 3.71558 8.48127C4.96137 8.48127 5.97497 9.49487 5.97497 10.7407V17.5188C5.97497 21.684 9.3466 25.05 13.5063 25.05C17.6591 25.05 21.0375 21.6716 21.0375 17.5188V13.7532C21.0374 13.3373 20.7003 13.0001 20.2843 13.0001ZM6.72805 8.48127C7.97384 8.48127 8.98744 9.49487 8.98744 10.7407V13.0001H7.48117V10.7407C7.48117 9.89371 7.20003 9.11102 6.7263 8.48127H6.72805ZM19.5312 16.0125H13.5062V14.5063H19.5312V16.0125Z" fill="#303131" stroke="#303131" stroke-width="0.1"/>
<path d="M14.2593 8.48123H15.7656C16.1767 8.48123 16.5187 8.81199 16.5187 9.23434V10.7406C16.5187 11.1566 16.8559 11.4938 17.2718 11.4938C17.6878 11.4938 18.025 11.1566 18.025 10.7406V9.23439C18.025 7.95767 16.9846 6.97503 15.7656 6.97503H14.2593C13.8474 6.97503 13.5062 6.64346 13.5062 6.22192C13.5062 5.80671 13.8441 5.46881 14.2593 5.46881H18.7781C20.0002 5.46881 21.0375 4.48383 21.0375 3.2087C21.0374 1.96317 20.0239 0.95 18.7781 0.95C18.3622 0.95 18.025 1.2872 18.025 1.70312C18.025 2.11905 18.3622 2.45625 18.7781 2.45625C19.1933 2.45625 19.5312 2.79383 19.5312 3.20936C19.5312 3.63201 19.1889 3.96247 18.7781 3.96247H14.2593C13.0135 3.96247 11.9999 4.97598 11.9999 6.22183C11.9999 7.49604 13.0377 8.48123 14.2593 8.48123Z" fill="#303131" stroke="#303131" stroke-width="0.1"/>
</svg>
