<svg width="44" height="42" viewBox="0 0 44 42" fill="none" xmlns="http://www.w3.org/2000/svg">
    <path
        d="M20.105 2.61625C20.7171 0.802144 23.2829 0.802145 23.895 2.61625L27.5371 13.41C27.8088 14.2153 28.5597 14.7609 29.4096 14.7705L40.8005 14.8988C42.715 14.9204 43.5079 17.3606 41.9717 18.5034L32.8316 25.3026C32.1498 25.8099 31.8629 26.6927 32.1164 27.5039L35.5144 38.3769C36.0855 40.2044 34.0097 41.7125 32.4482 40.6047L23.1573 34.013C22.4641 33.5213 21.5359 33.5213 20.8427 34.0131L11.5518 40.6047C9.99033 41.7125 7.91453 40.2044 8.48562 38.3769L11.8836 27.5038C12.1371 26.6927 11.8502 25.8098 11.1684 25.3026L2.02831 18.5034C0.492142 17.3606 1.28503 14.9204 3.1995 14.8988L14.5904 14.7705C15.4403 14.7609 16.1912 14.2153 16.4629 13.41L20.105 2.61625Z"
        fill="#8995A4" />
</svg>
    