<svg width="26" height="24" viewBox="0 0 26 24" fill="none" xmlns="http://www.w3.org/2000/svg">
<path d="M19.8676 14.4482H19.9807L19.9669 14.3361L19.211 8.18077L25.3733 5.72304L25.6062 5.63015L25.3733 5.53727L13.0371 0.617137L13.0001 0.602362L12.963 0.617137L0.626894 5.53727L0.394006 5.63015L0.626894 5.72304L6.78911 8.18077L6.03329 14.3361L6.01951 14.4482H6.13254H12.1776V16.2748C11.333 16.6047 10.7326 17.4269 10.7326 18.3875V22V22.1H10.8326H15.1676H15.2676V22V18.3875C15.2676 17.4269 14.6672 16.6047 13.8226 16.2748V14.4482H19.8676ZM13.8226 8.55889V5.63015V5.53015H13.7226H12.2776H12.1776V5.63015V8.55889L4.83438 5.63015L13.0001 2.37335L21.1657 5.63015L13.8226 8.55889ZM12.3776 20.4549V18.3875C12.3776 18.0443 12.6569 17.765 13.0001 17.765C13.3432 17.765 13.6226 18.0443 13.6226 18.3875V20.4549H12.3776ZM13.8226 10.3299L17.6311 8.81091L18.1213 12.8033H13.8226V10.3299ZM12.1775 10.3299V12.8033H7.87884L8.36906 8.81091L12.1775 10.3299Z" fill="#303131" stroke="#303131" stroke-width="0.2"/>
</svg>
