<svg width="26" height="26" viewBox="0 0 26 26" fill="none" xmlns="http://www.w3.org/2000/svg">
<path d="M3.10938 0.9H22.8906C24.1089 0.9 25.1 1.89106 25.1 3.10938V22.8906C25.1 24.1089 24.1089 25.1 22.8906 25.1H3.10938C1.89106 25.1 0.9 24.1089 0.9 22.8906V3.10938C0.9 1.89106 1.89106 0.9 3.10938 0.9ZM2.50625 22.8906C2.50625 23.223 2.77697 23.4937 3.10938 23.4937H22.8906C23.223 23.4937 23.4937 23.223 23.4937 22.8906V3.10938C23.4937 2.77697 23.223 2.50625 22.8906 2.50625H3.10938C2.77697 2.50625 2.50625 2.77697 2.50625 3.10938V22.8906Z" fill="#303131" stroke="#303131" stroke-width="0.2"/>
<path d="M4.83073 6.5287L4.83068 6.52874C4.66029 6.65669 4.54756 6.84716 4.51762 7.05801C4.51762 7.05804 4.51761 7.05807 4.51761 7.0581L4.61662 7.07214C4.59025 7.2569 4.63841 7.44458 4.75065 7.59381L4.83073 6.5287ZM4.83073 6.5287C7.20534 4.74783 10.0307 3.80625 13.0001 3.80625C15.9695 3.80625 18.7949 4.74783 21.1695 6.5287L21.1695 6.52874C21.3399 6.65669 21.4527 6.84698 21.4828 7.05801L21.4828 7.05811C21.5127 7.26907 21.4577 7.48341 21.3297 7.65386L21.3297 7.6539L17.6179 12.5919L17.6179 12.5919C17.46 12.8019 17.2189 12.9125 16.9753 12.9125C16.8078 12.9125 16.6384 12.8602 16.494 12.7519L16.494 12.7519C15.4782 11.9901 14.2705 11.5875 13.0001 11.5875C11.7299 11.5875 10.522 11.9901 9.5062 12.7519C9.15166 13.0179 8.64866 12.9461 8.38244 12.5919L4.67073 7.65392L4.83073 6.5287ZM19.5467 7.35238C17.597 6.08081 15.3501 5.4125 13.0001 5.4125C10.6501 5.4125 8.40316 6.08081 6.4535 7.35238L9.20984 11.0194C10.1251 10.4745 11.1375 10.1377 12.197 10.0246V7.97192C12.197 7.52833 12.5565 7.1688 13.0001 7.1688C13.4437 7.1688 13.8032 7.52833 13.8032 7.97192V10.0246C14.8627 10.1377 15.8751 10.4745 16.7904 11.0194L19.5467 7.35238Z" fill="#303131" stroke="#303131" stroke-width="0.2"/>
</svg>
