<svg width="24" height="24" viewBox="0 0 24 24" fill="none" xmlns="http://www.w3.org/2000/svg">
<path d="M22.4415 5.14282H1.55845C0.699094 5.14282 0 5.84196 0 6.70127V21.3506C0 22.2099 0.699094 22.909 1.55845 22.909H22.4415C23.3009 22.909 24 22.21 24 21.3506V6.70127C24 5.84196 23.3009 5.14282 22.4415 5.14282ZM22.1299 21.0389H1.87013V7.01295H22.1299V21.0389Z" fill="#303131"/>
<path d="M23.0651 10.4415H0.935181V12.3116H23.0651V10.4415Z" fill="#303131"/>
<path d="M14.9611 1.091H9.35074C8.1476 1.091 7.16895 2.06971 7.16895 3.2728V6.07798H9.03907V3.2728C9.03907 3.10386 9.1818 2.96113 9.35074 2.96113H14.9611C15.1301 2.96113 15.2728 3.10386 15.2728 3.2728V6.07798H17.1429V3.2728C17.1429 2.06971 16.1639 1.091 14.9611 1.091Z" fill="#303131"/>
</svg>
