<svg width="17" height="17" viewBox="0 0 17 17" fill="none" xmlns="http://www.w3.org/2000/svg">
<path d="M15.2189 11.2608H15.2189V2.3631C15.2189 2.13362 15.0329 1.94761 14.8034 1.94761H2.36293C2.13346 1.94761 1.94744 2.13362 1.94744 2.3631V11.4108C1.94744 11.6403 2.13346 11.8263 2.36293 11.8263H5.00176H5.002V11.9763C5.02301 11.9763 5.04398 11.9774 5.06486 11.9798L15.2189 11.2608ZM15.2189 11.2608V11.4108C15.2189 11.6403 15.0328 11.8263 14.8034 11.8263H8.39486H8.39482C8.21801 11.8263 8.04752 11.8919 7.91617 12.0101L15.2189 11.2608ZM2.36293 13.2572H4.20277L3.91369 15.8559L3.91368 15.856C3.87029 16.2487 4.15352 16.6023 4.54628 16.6457L4.5463 16.6457C4.74911 16.6681 4.95184 16.6028 5.1035 16.4663L8.66957 13.2572H14.8034C15.8232 13.2572 16.6498 12.4306 16.6498 11.4108V2.3631C16.6498 1.34334 15.8232 0.516656 14.8034 0.516656H2.36293C1.34318 0.516656 0.516504 1.34334 0.516504 2.3631V11.4108C0.516504 12.4306 1.34318 13.2572 2.36293 13.2572Z" fill="white" stroke="white" stroke-width="0.3"/>
</svg>
