<svg width="174" height="106" viewBox="0 0 174 106" fill="none" xmlns="http://www.w3.org/2000/svg">
<path opacity="0.1" d="M101.095 17.476C89.9404 17.1214 79.3172 13.8469 69.1788 10.2604C59.0405 6.67394 48.9852 2.69979 38.0977 0.800009C31.0871 -0.422066 23.0782 -0.593898 17.4358 2.82489C12.0065 6.11308 10.2515 11.7904 9.30913 17.0568C8.59931 21.0199 8.18248 25.192 10.1262 28.9009C11.4764 31.477 13.8731 33.6421 15.5314 36.1096C21.3036 44.693 17.2259 55.2793 10.9719 63.662C8.039 67.5935 4.6379 71.345 2.37553 75.5308C0.113163 79.7167 -0.933447 84.5128 1.0465 88.7825C3.00984 93.0138 7.68409 96.1934 12.7495 98.4286C23.0374 102.965 35.1602 104.269 46.981 105.006C73.1493 106.635 99.4565 105.93 125.694 105.224C135.404 104.962 145.157 104.697 154.708 103.331C160.013 102.572 165.49 101.368 169.341 98.4588C174.229 94.7678 175.441 88.5172 172.165 83.8874C166.671 76.1233 151.474 74.196 147.637 65.8628C145.522 61.2769 147.694 56.1673 150.766 51.9141C157.357 42.7891 168.403 34.7844 168.986 24.3535C169.385 17.1901 164.074 10.0171 155.863 6.62033C147.255 3.0682 135.324 3.51497 128.973 9.39578C122.435 15.458 110.945 17.7881 101.095 17.476Z" fill="#F6193D"/>
</svg>
